SplineFontDB: 3.0
FontName: HerrVonMuellerhoff-Regular
FullName: Herr Von Muellerhoff Regular
FamilyName: Herr Von Muellerhoff
Weight: Book
Copyright: Copyright (c) 2004 Alejandro Paul (sudtipos@sudtipos.com),\nwith Reserved Font Name "Herr Von Mullerhoff"
Version: 1.000
ItalicAngle: 0
UnderlinePosition: -50
UnderlineWidth: 50
Ascent: 800
Descent: 200
sfntRevision: 0x00010000
LayerCount: 2
Layer: 0 1 "Back"  1
Layer: 1 1 "Fore"  0
XUID: [1021 288 713564382 8868055]
FSType: 0
OS2Version: 2
OS2_WeightWidthSlopeOnly: 0
OS2_UseTypoMetrics: 1
CreationTime: 1322181878
ModificationTime: 1322353316
PfmFamily: 17
TTFWeight: 400
TTFWidth: 5
LineGap: 0
VLineGap: 0
Panose: 2 0 5 6 0 0 0 2 0 4
OS2TypoAscent: 125
OS2TypoAOffset: 1
OS2TypoDescent: -297
OS2TypoDOffset: 1
OS2TypoLinegap: 0
OS2WinAscent: 0
OS2WinAOffset: 1
OS2WinDescent: 0
OS2WinDOffset: 1
HheadAscent: 0
HheadAOffset: 1
HheadDescent: 0
HheadDOffset: 1
OS2SubXSize: 700
OS2SubYSize: 650
OS2SubXOff: 0
OS2SubYOff: 140
OS2SupXSize: 700
OS2SupYSize: 650
OS2SupXOff: 0
OS2SupYOff: 477
OS2StrikeYSize: 50
OS2StrikeYPos: 250
OS2Vendor: 'SUDT'
OS2CodePages: 20000001.00000000
OS2UnicodeRanges: 80000027.5000004b.00000000.00000000
Lookup: 258 0 0 "'kern' Horizontal Kerning in Latin lookup 0"  {"'kern' Horizontal Kerning in Latin lookup 0 subtable"  } ['kern' ('DFLT' <'dflt' > 'latn' <'dflt' > ) ]
MarkAttachClasses: 1
DEI: 91125
TtTable: prep
PUSHW_1
 511
SCANCTRL
PUSHB_1
 4
SCANTYPE
EndTTInstrs
ShortTable: maxp 16
  1
  0
  233
  139
  5
  0
  0
  2
  0
  1
  1
  0
  64
  0
  0
  0
EndShort
LangName: 1033 "" "" "" "HerrVonMullerhoff" "" "Version 1.000" "" "Herr Von Mullerhoff is a trademark of Alejandro Paul." "Alejandro Paul" "Alejandro Paul" "" "http://www.sudtipos.com" "http://www.sudtipos.com" "This Font Software is licensed under the SIL Open Font License,+AA0A-Version 1.1. This license is available with a FAQ at:+AA0A-http://scripts.sil.org/OFL" "http://scripts.sil.org/OFL" 
GaspTable: 1 65535 15
Encoding: UnicodeBmp

StartChar: exclam
Encoding: 33 33 4
Width: 315
GlyphClass: 2
Flags: W
LayerCount: 2
Fore
SplineSet
513 621 m 0,0,1
 527 641 527 641 536 641 c 128,-1,2
 545 641 545 641 545 616.5 c 128,-1,3
 545 592 545 592 423 438.5 c 128,-1,4
 301 285 301 285 150 112 c 1,5,6
 139 101 139 101 132 101 c 128,-1,7
 125 101 125 101 125 117 c 2,8,-1
 125 121 l 1,9,10
 234 256 234 256 358 416.5 c 128,-1,11
 482 577 482 577 513 621 c 0,0,1
88.5 9 m 128,-1,13
 75 -6 75 -6 58.5 -6 c 128,-1,14
 42 -6 42 -6 42 9 c 128,-1,15
 42 24 42 24 56.5 37.5 c 128,-1,16
 71 51 71 51 81.5 51 c 128,-1,17
 92 51 92 51 97 45 c 128,-1,18
 102 39 102 39 102 31.5 c 128,-1,12
 102 24 102 24 88.5 9 c 128,-1,13
EndSplineSet
EndChar

StartChar: quotedbl
Encoding: 34 34 5
Width: 292
GlyphClass: 2
Flags: W
LayerCount: 2
Fore
SplineSet
271 411 m 1,0,1
 323 461 323 461 340 484 c 128,-1,2
 357 507 357 507 369.5 525 c 128,-1,3
 382 543 382 543 388 551 c 128,-1,4
 394 559 394 559 401 559 c 128,-1,5
 408 559 408 559 413 551 c 128,-1,6
 418 543 418 543 418 538 c 128,-1,7
 418 533 418 533 413.5 528 c 128,-1,8
 409 523 409 523 398.5 513 c 128,-1,9
 388 503 388 503 375 490.5 c 128,-1,10
 362 478 362 478 338.5 456 c 128,-1,11
 315 434 315 434 297.5 417 c 128,-1,12
 280 400 280 400 275.5 400 c 128,-1,13
 271 400 271 400 271 411 c 1,0,1
201 411 m 1,14,15
 253 461 253 461 270 484 c 128,-1,16
 287 507 287 507 299.5 525 c 128,-1,17
 312 543 312 543 318 551 c 128,-1,18
 324 559 324 559 331 559 c 128,-1,19
 338 559 338 559 343 551 c 128,-1,20
 348 543 348 543 348 538 c 128,-1,21
 348 533 348 533 343.5 528 c 128,-1,22
 339 523 339 523 328.5 513 c 128,-1,23
 318 503 318 503 305 490.5 c 128,-1,24
 292 478 292 478 268.5 456 c 128,-1,25
 245 434 245 434 227.5 417 c 128,-1,26
 210 400 210 400 205.5 400 c 128,-1,27
 201 400 201 400 201 411 c 1,14,15
EndSplineSet
EndChar

StartChar: numbersign
Encoding: 35 35 6
Width: 517
GlyphClass: 2
Flags: W
LayerCount: 2
Fore
SplineSet
249 151 m 1,0,-1
 319 153 l 1,1,-1
 360 205 l 1,2,3
 338 204 338 204 292 204 c 1,4,5
 279 187 279 187 249 151 c 1,0,-1
452 327 m 0,6,7
 459 338 459 338 464.5 338 c 128,-1,8
 470 338 470 338 470 325 c 128,-1,9
 470 312 470 312 405 228 c 1,10,-1
 502 232 l 2,11,12
 518 232 518 232 518 227 c 128,-1,13
 518 222 518 222 510.5 215 c 128,-1,14
 503 208 503 208 386 205 c 1,15,16
 350 160 350 160 345 155 c 1,17,18
 459 159 459 159 480 162 c 1,19,-1
 486 162 l 2,20,21
 499 162 499 162 499 157 c 128,-1,22
 499 152 499 152 489 144.5 c 128,-1,23
 479 137 479 137 328 134 c 1,24,25
 306 107 306 107 248 40 c 1,26,27
 240 34 240 34 236.5 34 c 128,-1,28
 233 34 233 34 233 45 c 1,29,-1
 304 133 l 1,30,-1
 234 133 l 1,31,32
 180 69 180 69 154 40 c 0,33,34
 148 34 148 34 144 34 c 128,-1,35
 140 34 140 34 140 45 c 1,36,37
 148 55 148 55 172.5 85.5 c 128,-1,38
 197 116 197 116 210 133 c 1,39,-1
 94 133 l 1,40,41
 81 134 81 134 81 138 c 0,42,43
 81 144 81 144 88 147 c 1,44,-1
 224 150 l 1,45,46
 245 178 245 178 266 204 c 1,47,-1
 252 204 l 2,48,49
 160 204 160 204 116 205 c 0,50,51
 103 206 103 206 103 210 c 0,52,53
 103 216 103 216 110 219 c 1,54,55
 258 223 258 223 281 223 c 1,56,-1
 359 327 l 2,57,58
 366 338 366 338 371.5 338 c 128,-1,59
 377 338 377 338 377 324.5 c 128,-1,60
 377 311 377 311 309 224 c 1,61,-1
 377 227 l 1,62,63
 416 276 416 276 452 327 c 0,6,7
EndSplineSet
EndChar

StartChar: dollar
Encoding: 36 36 7
Width: 315
GlyphClass: 2
Flags: W
LayerCount: 2
Fore
SplineSet
414 541 m 1,0,1
 434 534 434 534 434 514 c 0,2,3
 434 482 434 482 382 432.5 c 128,-1,4
 330 383 330 383 284 379 c 1,5,6
 270 379 270 379 270 392 c 0,7,8
 270 400 270 400 276.5 409.5 c 128,-1,9
 283 419 283 419 290 420 c 0,10,11
 296 420 296 420 296 413 c 0,12,13
 296 412 296 412 292 407 c 1,14,15
 326 411 326 411 375 450.5 c 128,-1,16
 424 490 424 490 424 511.5 c 128,-1,17
 424 533 424 533 392 533 c 0,18,19
 345 533 345 533 288.5 495.5 c 128,-1,20
 232 458 232 458 232 415.5 c 128,-1,21
 232 373 232 373 258 293.5 c 128,-1,22
 284 214 284 214 284 180 c 0,23,24
 284 90 284 90 212.5 25 c 128,-1,25
 141 -40 141 -40 61 -40 c 2,26,-1
 51 -40 l 1,27,28
 23 -78 23 -78 14 -94 c 0,29,30
 -4 -128 -4 -128 -10.5 -128 c 128,-1,31
 -17 -128 -17 -128 -17 -110 c 0,32,33
 -17 -103 -17 -103 34 -37 c 1,34,35
 -1 -27 -1 -27 -1 8.5 c 128,-1,36
 -1 44 -1 44 42.5 89.5 c 128,-1,37
 86 135 86 135 129 135 c 0,38,39
 141 135 141 135 141 124.5 c 128,-1,40
 141 114 141 114 128.5 102 c 128,-1,41
 116 90 116 90 107.5 90 c 128,-1,42
 99 90 99 90 99 94 c 0,43,44
 99 95 99 95 108.5 100.5 c 128,-1,45
 118 106 118 106 118 108 c 128,-1,46
 118 110 118 110 110 110 c 0,47,48
 82 110 82 110 52 73 c 128,-1,49
 22 36 22 36 22 5 c 0,50,51
 22 -30 22 -30 65 -30 c 0,52,53
 145 -30 145 -30 194 34.5 c 128,-1,54
 243 99 243 99 243 163 c 128,-1,55
 243 227 243 227 221 298.5 c 128,-1,56
 199 370 199 370 199 405 c 0,57,58
 199 454 199 454 268.5 499 c 128,-1,59
 338 544 338 544 393 544 c 2,60,-1
 396 544 l 1,61,62
 414 568 414 568 427 590 c 0,63,64
 452 631 452 631 457 631 c 0,65,66
 464 631 464 631 464 613 c 0,67,68
 464 606 464 606 414 541 c 1,0,1
EndSplineSet
EndChar

StartChar: percent
Encoding: 37 37 8
Width: 515
GlyphClass: 2
Flags: W
LayerCount: 2
Fore
SplineSet
305 -13 m 0,0,1
 264 -13 264 -13 264 40.5 c 128,-1,2
 264 94 264 94 293.5 156 c 128,-1,3
 323 218 323 218 381 267.5 c 128,-1,4
 439 317 439 317 505 317 c 0,5,6
 521 317 521 317 521 296 c 128,-1,7
 521 275 521 275 491.5 241 c 128,-1,8
 462 207 462 207 433 207 c 0,9,10
 424 207 424 207 424 213 c 128,-1,11
 424 219 424 219 428.5 225 c 128,-1,12
 433 231 433 231 436 231 c 128,-1,13
 439 231 439 231 439 227 c 2,14,-1
 438 222 l 1,15,16
 455 224 455 224 482.5 254 c 128,-1,17
 510 284 510 284 510 296.5 c 128,-1,18
 510 309 510 309 499 309 c 0,19,20
 454 309 454 309 401.5 256 c 128,-1,21
 349 203 349 203 316 137.5 c 128,-1,22
 283 72 283 72 283 33.5 c 128,-1,23
 283 -5 283 -5 310 -5 c 0,24,25
 366 -5 366 -5 442.5 84 c 128,-1,26
 519 173 519 173 530 271 c 1,27,28
 530 282 530 282 533 282 c 0,29,30
 537 282 537 282 537 257 c 0,31,32
 537 207 537 207 508.5 145.5 c 128,-1,33
 480 84 480 84 424.5 35.5 c 128,-1,34
 369 -13 369 -13 305 -13 c 0,0,1
89 217 m 0,35,36
 48 217 48 217 48 270.5 c 128,-1,37
 48 324 48 324 77.5 386 c 128,-1,38
 107 448 107 448 165 497.5 c 128,-1,39
 223 547 223 547 289 547 c 0,40,41
 305 547 305 547 305 526 c 128,-1,42
 305 505 305 505 275.5 471 c 128,-1,43
 246 437 246 437 217 437 c 0,44,45
 208 437 208 437 208 443 c 128,-1,46
 208 449 208 449 212.5 455 c 128,-1,47
 217 461 217 461 220 461 c 128,-1,48
 223 461 223 461 223 457 c 2,49,-1
 222 452 l 1,50,51
 239 454 239 454 266.5 484 c 128,-1,52
 294 514 294 514 294 526.5 c 128,-1,53
 294 539 294 539 283 539 c 0,54,55
 238 539 238 539 185.5 486 c 128,-1,56
 133 433 133 433 100 367.5 c 128,-1,57
 67 302 67 302 67 263.5 c 128,-1,58
 67 225 67 225 94 225 c 0,59,60
 150 225 150 225 226.5 314 c 128,-1,61
 303 403 303 403 314 501 c 1,62,63
 314 512 314 512 317 512 c 0,64,65
 321 512 321 512 321 487 c 0,66,67
 321 437 321 437 292.5 375.5 c 128,-1,68
 264 314 264 314 208.5 265.5 c 128,-1,69
 153 217 153 217 89 217 c 0,35,36
399.5 427.5 m 128,-1,71
 437 479 437 479 459.5 510.5 c 128,-1,72
 482 542 482 542 484.5 546.5 c 128,-1,73
 487 551 487 551 488 554 c 0,74,75
 492 560 492 560 496 560 c 128,-1,76
 500 560 500 560 503 554.5 c 128,-1,77
 506 549 506 549 506 544 c 128,-1,78
 506 539 506 539 504 536 c 0,79,80
 401 384 401 384 284 243 c 0,81,82
 237 187 237 187 66 -8 c 1,83,84
 55 -25 55 -25 46 -25 c 0,85,86
 39 -25 39 -25 39 -17.5 c 128,-1,87
 39 -10 39 -10 41 -6 c 1,88,89
 99 57 99 57 170 139.5 c 128,-1,90
 241 222 241 222 264 251.5 c 128,-1,91
 287 281 287 281 324.5 328.5 c 128,-1,70
 362 376 362 376 399.5 427.5 c 128,-1,71
EndSplineSet
EndChar

StartChar: ampersand
Encoding: 38 38 9
Width: 509
GlyphClass: 2
Flags: W
LayerCount: 2
Fore
SplineSet
601 296 m 0,0,1
 558 296 558 296 499 249 c 1,2,3
 552 213 552 213 604 213 c 0,4,5
 625 213 625 213 637 225.5 c 128,-1,6
 649 238 649 238 649 254.5 c 128,-1,7
 649 271 649 271 636.5 283.5 c 128,-1,8
 624 296 624 296 601 296 c 0,0,1
-10 22 m 0,9,10
 -10 95 -10 95 66 193.5 c 128,-1,11
 142 292 142 292 254 347 c 1,12,13
 218 338 218 338 193 338 c 0,14,15
 114 338 114 338 114 395 c 0,16,17
 114 435 114 435 154.5 489.5 c 128,-1,18
 195 544 195 544 259 594.5 c 128,-1,19
 323 645 323 645 415 680 c 128,-1,20
 507 715 507 715 598 715 c 0,21,22
 640 715 640 715 640 694 c 0,23,24
 640 664 640 664 569 617 c 128,-1,25
 498 570 498 570 450 570 c 0,26,27
 436 570 436 570 436 585.5 c 128,-1,28
 436 601 436 601 457 618.5 c 128,-1,29
 478 636 478 636 483.5 636 c 128,-1,30
 489 636 489 636 489 631.5 c 128,-1,31
 489 627 489 627 479.5 621 c 128,-1,32
 470 615 470 615 470 610.5 c 128,-1,33
 470 606 470 606 474 606 c 0,34,35
 500 606 500 606 561 644.5 c 128,-1,36
 622 683 622 683 622 699 c 0,37,38
 622 706 622 706 609 706 c 0,39,40
 528 706 528 706 441.5 668 c 128,-1,41
 355 630 355 630 293 577.5 c 128,-1,42
 231 525 231 525 190.5 471 c 128,-1,43
 150 417 150 417 150 383 c 128,-1,44
 150 349 150 349 191 349 c 0,45,46
 273 349 273 349 374 416 c 0,47,48
 389 425 389 425 404.5 435.5 c 128,-1,49
 420 446 420 446 423.5 448.5 c 128,-1,50
 427 451 427 451 430 451 c 128,-1,51
 433 451 433 451 433 443 c 2,52,-1
 433 440 l 2,53,54
 433 431 433 431 356 386 c 1,55,-1
 330 370 l 1,56,57
 214 315 214 315 115.5 198 c 128,-1,58
 17 81 17 81 17 13 c 0,59,60
 17 -29 17 -29 62 -29 c 0,61,62
 101 -29 101 -29 159.5 1.5 c 128,-1,63
 218 32 218 32 280 80 c 0,64,65
 391 167 391 167 459 233 c 1,66,67
 456 235 456 235 443.5 245.5 c 128,-1,68
 431 256 431 256 426 259.5 c 128,-1,69
 421 263 421 263 410 270 c 1,70,71
 391 280 391 280 362 280 c 0,72,73
 294 280 294 280 236 220 c 128,-1,74
 178 160 178 160 178 122 c 0,75,76
 178 110 178 110 188 110 c 0,77,78
 216 110 216 110 256.5 153 c 128,-1,79
 297 196 297 196 313 234 c 1,80,81
 318 243 318 243 320 243 c 0,82,83
 326 243 326 243 326 238 c 0,84,85
 326 210 326 210 270.5 151.5 c 128,-1,86
 215 93 215 93 176 93 c 0,87,88
 148 93 148 93 148 118 c 0,89,90
 148 167 148 167 225 233.5 c 128,-1,91
 302 300 302 300 396 300 c 0,92,93
 420 300 420 300 433.5 292.5 c 128,-1,94
 447 285 447 285 451 283 c 128,-1,95
 455 281 455 281 470 270 c 128,-1,96
 485 259 485 259 486 258 c 1,97,98
 553 315 553 315 608 315 c 0,99,100
 637 315 637 315 654.5 299 c 128,-1,101
 672 283 672 283 672 258.5 c 128,-1,102
 672 234 672 234 646 215 c 128,-1,103
 620 196 620 196 565.5 196 c 128,-1,104
 511 196 511 196 472 224 c 1,105,106
 398 152 398 152 312 85 c 0,107,108
 146 -46 146 -46 61 -46 c 0,109,110
 -10 -46 -10 -46 -10 22 c 0,9,10
EndSplineSet
EndChar

StartChar: quotesingle
Encoding: 39 39 10
Width: 222
GlyphClass: 2
Flags: W
LayerCount: 2
Fore
SplineSet
201 407 m 2,0,-1
 201 411 l 1,1,2
 253 461 253 461 270 484 c 128,-1,3
 287 507 287 507 299.5 525 c 128,-1,4
 312 543 312 543 318 551 c 128,-1,5
 324 559 324 559 331 559 c 128,-1,6
 338 559 338 559 343 551 c 128,-1,7
 348 543 348 543 348 538 c 128,-1,8
 348 533 348 533 343.5 528 c 128,-1,9
 339 523 339 523 328.5 513 c 128,-1,10
 318 503 318 503 305 490.5 c 128,-1,11
 292 478 292 478 268.5 456 c 128,-1,12
 245 434 245 434 227.5 417 c 128,-1,13
 210 400 210 400 205.5 400 c 128,-1,14
 201 400 201 400 201 407 c 2,0,-1
EndSplineSet
EndChar

StartChar: parenleft
Encoding: 40 40 11
Width: 253
GlyphClass: 2
Flags: W
LayerCount: 2
Fore
SplineSet
558 730 m 1,0,1
 575 730 575 730 575 724 c 0,2,3
 575 722 575 722 570 720 c 0,4,5
 476 682 476 682 386 597.5 c 128,-1,6
 296 513 296 513 232 413 c 128,-1,7
 168 313 168 313 129 206 c 128,-1,8
 90 99 90 99 90 14 c 0,9,10
 90 -33 90 -33 101 -66 c 0,11,12
 102 -68 102 -68 102 -75.5 c 128,-1,13
 102 -83 102 -83 96.5 -83 c 128,-1,14
 91 -83 91 -83 86 -74 c 0,15,16
 59 -14 59 -14 59 68.5 c 128,-1,17
 59 151 59 151 107 262 c 128,-1,18
 155 373 155 373 228 466 c 128,-1,19
 301 559 301 559 390 631 c 128,-1,20
 479 703 479 703 558 730 c 1,0,1
EndSplineSet
EndChar

StartChar: parenright
Encoding: 41 41 12
Width: 428
GlyphClass: 2
Flags: W
LayerCount: 2
Fore
SplineSet
13 -82 m 1,0,1
 -4 -82 -4 -82 -4 -76 c 0,2,3
 -4 -74 -4 -74 1 -72 c 0,4,5
 95 -34 95 -34 185 50.5 c 128,-1,6
 275 135 275 135 339 235 c 128,-1,7
 403 335 403 335 442 442 c 128,-1,8
 481 549 481 549 481 634 c 0,9,10
 481 681 481 681 470 714 c 0,11,12
 469 716 469 716 469 723.5 c 128,-1,13
 469 731 469 731 474.5 731 c 128,-1,14
 480 731 480 731 485 722 c 0,15,16
 512 662 512 662 512 579.5 c 128,-1,17
 512 497 512 497 464 386 c 128,-1,18
 416 275 416 275 343 182 c 128,-1,19
 270 89 270 89 181 17 c 128,-1,20
 92 -55 92 -55 13 -82 c 1,0,1
EndSplineSet
EndChar

StartChar: asterisk
Encoding: 42 42 13
Width: 368
GlyphClass: 2
Flags: W
LayerCount: 2
Fore
SplineSet
283 304 m 1,0,1
 258 234 258 234 245 210.5 c 128,-1,2
 232 187 232 187 219 186 c 0,3,4
 218 186 218 186 218 186 c 2,5,6
 206 186 206 186 206 196 c 0,7,8
 206 203 206 203 271 304 c 1,9,10
 147 244 147 244 135 244 c 128,-1,11
 123 244 123 244 123 253 c 0,12,13
 123 265 123 265 136.5 271.5 c 128,-1,14
 150 278 150 278 197.5 292 c 128,-1,15
 245 306 245 306 270 314 c 1,16,17
 179 354 179 354 179 370 c 0,18,19
 179 383 179 383 198 385 c 1,20,21
 208 385 208 385 223 374 c 128,-1,22
 238 363 238 363 276 322 c 1,23,24
 301 392 301 392 314 415.5 c 128,-1,25
 327 439 327 439 340 440 c 0,26,27
 341 440 341 440 341 440 c 2,28,29
 353 440 353 440 353 430 c 0,30,31
 353 423 353 423 288 322 c 1,32,33
 412 382 412 382 424 382 c 128,-1,34
 436 382 436 382 436 373 c 0,35,36
 436 361 436 361 422.5 354.5 c 128,-1,37
 409 348 409 348 375 338 c 128,-1,38
 341 328 341 328 333.5 325.5 c 128,-1,39
 326 323 326 323 313.5 319.5 c 128,-1,40
 301 316 301 316 289 312 c 1,41,42
 380 272 380 272 380 256 c 0,43,44
 380 243 380 243 365 242 c 0,45,46
 364 242 364 242 363 242 c 0,47,48
 349 242 349 242 336 252 c 0,49,50
 322 263 322 263 283 304 c 1,0,1
EndSplineSet
EndChar

StartChar: plus
Encoding: 43 43 14
Width: 400
GlyphClass: 2
Flags: W
LayerCount: 2
Fore
SplineSet
267 256 m 1,0,1
 274 256 274 256 372 263 c 0,2,3
 380 263 380 263 382 257 c 1,4,5
 382 248 382 248 375 242.5 c 128,-1,6
 368 237 368 237 344.5 235.5 c 128,-1,7
 321 234 321 234 254 234 c 1,8,-1
 195 133 l 1,9,10
 193 125 193 125 186.5 125 c 128,-1,11
 180 125 180 125 180 131 c 0,12,13
 180 134 180 134 187 149 c 128,-1,14
 194 164 194 164 212 197 c 128,-1,15
 230 230 230 230 232 234 c 1,16,-1
 229 234 l 1,17,-1
 121 235 l 2,18,19
 109 235 109 235 108 240 c 1,20,21
 108 248 108 248 121 250 c 1,22,-1
 126 250 l 1,23,-1
 155 251 l 1,24,25
 188 251 188 251 242 255 c 1,26,27
 273 317 273 317 296 364 c 0,28,29
 300 370 300 370 304 370 c 1,30,31
 316 365 316 365 316 355.5 c 128,-1,32
 316 346 316 346 302 320 c 128,-1,33
 288 294 288 294 267 256 c 1,0,1
EndSplineSet
EndChar

StartChar: comma
Encoding: 44 44 15
Width: 141
GlyphClass: 2
Flags: W
LayerCount: 2
Fore
SplineSet
73 52 m 0,0,1
 91 52 91 52 91 20 c 0,2,3
 91 4 91 4 81 -14 c 128,-1,4
 71 -32 71 -32 57 -42 c 0,5,6
 29 -64 29 -64 5 -70 c 1,7,-1
 -5 -72 l 1,8,9
 -15 -72 -15 -72 -15 -68 c 0,10,11
 -15 -66 -15 -66 -8 -63 c 1,12,13
 4 -61 4 -61 32.5 -44 c 128,-1,14
 61 -27 61 -27 61 -8 c 1,15,16
 34 -4 34 -4 34 12 c 128,-1,17
 34 28 34 28 46 40 c 128,-1,18
 58 52 58 52 73 52 c 0,0,1
EndSplineSet
EndChar

StartChar: hyphen
Encoding: 45 45 16
Width: 500
GlyphClass: 2
Flags: W
LayerCount: 2
Fore
SplineSet
107 127 m 1,0,-1
 130 128 l 1,1,2
 157 128 157 128 304 134 c 1,3,-1
 421 140 l 2,4,5
 432 140 432 140 433 134 c 1,6,7
 433 125 433 125 424.5 119.5 c 128,-1,8
 416 114 416 114 381.5 112.5 c 128,-1,9
 347 111 347 111 242 111 c 2,10,-1
 107 112 l 2,11,12
 92 112 92 112 91 117 c 1,13,14
 91 125 91 125 107 127 c 1,0,-1
EndSplineSet
EndChar

StartChar: period
Encoding: 46 46 17
Width: 137
GlyphClass: 2
Flags: W
LayerCount: 2
Fore
SplineSet
78.5 9 m 128,-1,1
 65 -6 65 -6 48.5 -6 c 128,-1,2
 32 -6 32 -6 32 9 c 128,-1,3
 32 24 32 24 46.5 37.5 c 128,-1,4
 61 51 61 51 71.5 51 c 128,-1,5
 82 51 82 51 87 45 c 128,-1,6
 92 39 92 39 92 31.5 c 128,-1,0
 92 24 92 24 78.5 9 c 128,-1,1
EndSplineSet
EndChar

StartChar: slash
Encoding: 47 47 18
Width: 307
GlyphClass: 2
Flags: W
LayerCount: 2
Fore
SplineSet
636 805 m 0,0,1
 650 825 650 825 659 825 c 128,-1,2
 668 825 668 825 668 800 c 0,3,4
 668 792 668 792 551 630 c 128,-1,5
 434 468 434 468 279.5 266 c 128,-1,6
 125 64 125 64 43 -30 c 1,7,8
 32 -41 32 -41 25 -41 c 128,-1,9
 18 -41 18 -41 18 -25 c 2,10,-1
 18 -21 l 1,11,12
 195 174 195 174 636 805 c 0,0,1
EndSplineSet
EndChar

StartChar: zero
Encoding: 48 48 19
Width: 404
GlyphClass: 2
Flags: W
LayerCount: 2
Fore
SplineSet
454 436 m 1,0,1
 454 457 454 457 460.5 457 c 128,-1,2
 467 457 467 457 467 421 c 0,3,4
 467 341 467 341 414 236.5 c 128,-1,5
 361 132 361 132 269 51 c 128,-1,6
 177 -30 177 -30 83 -30 c 0,7,8
 20 -30 20 -30 20 54 c 0,9,10
 20 100 20 100 39.5 160 c 128,-1,11
 59 220 59 220 96 281 c 128,-1,12
 133 342 133 342 180 394 c 128,-1,13
 227 446 227 446 288.5 479 c 128,-1,14
 350 512 350 512 412 512 c 0,15,16
 440 512 440 512 440 484 c 0,17,18
 440 443 440 443 392 387 c 128,-1,19
 344 331 344 331 295 331 c 0,20,21
 279 331 279 331 279 343 c 0,22,23
 279 352 279 352 286 361.5 c 128,-1,24
 293 371 293 371 299 371 c 128,-1,25
 305 371 305 371 305 364 c 1,26,-1
 303 357 l 1,27,28
 330 358 330 358 375.5 408.5 c 128,-1,29
 421 459 421 459 421 486 c 0,30,31
 421 501 421 501 404 501 c 0,32,33
 330 501 330 501 244 413.5 c 128,-1,34
 158 326 158 326 103 217 c 128,-1,35
 48 108 48 108 48 39 c 0,36,37
 48 -18 48 -18 91.5 -18 c 128,-1,38
 135 -18 135 -18 193.5 22 c 128,-1,39
 252 62 252 62 306.5 124 c 128,-1,40
 361 186 361 186 403 270.5 c 128,-1,41
 445 355 445 355 454 436 c 1,0,1
EndSplineSet
EndChar

StartChar: one
Encoding: 49 49 20
Width: 243
GlyphClass: 2
Flags: W
LayerCount: 2
Fore
SplineSet
85 335 m 0,0,1
 79 335 79 335 79 338.5 c 128,-1,2
 79 342 79 342 82.5 345.5 c 128,-1,3
 86 349 86 349 90 349 c 0,4,5
 127 349 127 349 192 390 c 128,-1,6
 257 431 257 431 303.5 472 c 128,-1,7
 350 513 350 513 357 525 c 1,8,9
 364 533 364 533 377 536 c 1,10,11
 390 536 390 536 390 526 c 0,12,13
 390 522 390 522 384 510 c 1,14,15
 360 470 360 470 289 349 c 0,16,17
 125 69 125 69 55 -27 c 1,18,19
 44 -40 44 -40 38 -40 c 1,20,21
 37 -41 37 -41 37 -41 c 1,22,23
 32 -41 32 -41 32 -38 c 0,24,25
 32 -34 32 -34 38 -25 c 128,-1,26
 44 -16 44 -16 52 -5.5 c 128,-1,27
 60 5 60 5 186.5 226.5 c 128,-1,28
 313 448 313 448 333 481 c 1,29,30
 279 433 279 433 205.5 384 c 128,-1,31
 132 335 132 335 85 335 c 0,0,1
EndSplineSet
EndChar

StartChar: two
Encoding: 50 50 21
Width: 380
GlyphClass: 2
Flags: W
LayerCount: 2
Fore
SplineSet
-78.5 6 m 128,-1,1
 -108 -19 -108 -19 -108 -26 c 128,-1,2
 -108 -33 -108 -33 -104 -33 c 1,3,4
 -25 -2 -25 -2 79 77 c 1,5,6
 43 77 43 77 -3 54 c 128,-1,0
 -49 31 -49 31 -78.5 6 c 128,-1,1
144 100 m 0,7,8
 141 98 141 98 136.5 94 c 128,-1,9
 132 90 132 90 131 90 c 1,10,11
 144 84 144 84 193.5 47.5 c 128,-1,12
 243 11 243 11 273.5 11 c 128,-1,13
 304 11 304 11 338.5 23 c 128,-1,14
 373 35 373 35 394 47 c 2,15,-1
 414 59 l 2,16,17
 418 61 418 61 422.5 61 c 128,-1,18
 427 61 427 61 427 58 c 128,-1,19
 427 55 427 55 421 50 c 128,-1,20
 415 45 415 45 400 35.5 c 128,-1,21
 385 26 385 26 341 9.5 c 128,-1,22
 297 -7 297 -7 261 -7 c 128,-1,23
 225 -7 225 -7 196 8 c 128,-1,24
 167 23 167 23 141 44 c 128,-1,25
 115 65 115 65 102 71 c 1,26,27
 -77 -48 -77 -48 -112 -48 c 0,28,29
 -121 -48 -121 -48 -121 -36 c 128,-1,30
 -121 -24 -121 -24 -89 8.5 c 128,-1,31
 -57 41 -57 41 -1.5 70 c 128,-1,32
 54 99 54 99 106 99 c 2,33,-1
 108 99 l 1,34,35
 229 195 229 195 315 301 c 128,-1,36
 401 407 401 407 401 479 c 0,37,38
 401 495 401 495 395.5 500.5 c 128,-1,39
 390 506 390 506 375 506 c 0,40,41
 320 506 320 506 256 458 c 128,-1,42
 192 410 192 410 153 356 c 128,-1,43
 114 302 114 302 114 275 c 0,44,45
 114 262 114 262 126 262 c 0,46,47
 158 262 158 262 204.5 292.5 c 128,-1,48
 251 323 251 323 282 354 c 2,49,-1
 312 384 l 2,50,51
 316 388 316 388 321.5 388 c 128,-1,52
 327 388 327 388 327 382 c 0,53,54
 327 380 327 380 325 376 c 1,55,56
 301 350 301 350 262 317 c 0,57,58
 181 249 181 249 119 249 c 0,59,60
 89 249 89 249 89 280 c 0,61,62
 89 307 89 307 113 347 c 128,-1,63
 137 387 137 387 175 425 c 128,-1,64
 213 463 213 463 267.5 490.5 c 128,-1,65
 322 518 322 518 375 518 c 0,66,67
 400 518 400 518 413.5 505.5 c 128,-1,68
 427 493 427 493 427 457 c 0,69,70
 427 396 427 396 343.5 289.5 c 128,-1,71
 260 183 260 183 144 100 c 0,7,8
EndSplineSet
EndChar

StartChar: three
Encoding: 51 51 22
Width: 315
GlyphClass: 2
Flags: W
LayerCount: 2
Fore
SplineSet
254 309 m 1,0,1
 279 316 279 316 299 316 c 0,2,3
 348 316 348 316 348 276 c 0,4,5
 348 242 348 242 313 191 c 128,-1,6
 278 140 278 140 224.5 91.5 c 128,-1,7
 171 43 171 43 98 8.5 c 128,-1,8
 25 -26 25 -26 -42 -26 c 0,9,10
 -72 -26 -72 -26 -72 -8 c 0,11,12
 -72 23 -72 23 -2.5 76.5 c 128,-1,13
 67 130 67 130 106 130 c 0,14,15
 115 130 115 130 115 119.5 c 128,-1,16
 115 109 115 109 100 97 c 128,-1,17
 85 85 85 85 80.5 85 c 128,-1,18
 76 85 76 85 76 89 c 0,19,20
 76 91 76 91 85 95 c 128,-1,21
 94 99 94 99 94 102 c 128,-1,22
 94 105 94 105 87 105 c 0,23,24
 68 105 68 105 6 56.5 c 128,-1,25
 -56 8 -56 8 -56 -11 c 0,26,27
 -56 -18 -56 -18 -45 -18 c 0,28,29
 13 -18 13 -18 81.5 19 c 128,-1,30
 150 56 150 56 202 106 c 128,-1,31
 254 156 254 156 289 206 c 128,-1,32
 324 256 324 256 324 281 c 128,-1,33
 324 306 324 306 300 306 c 0,34,35
 239 306 239 306 182 268 c 2,36,-1
 173 262 l 2,37,38
 170 259 170 259 168 259 c 128,-1,39
 166 259 166 259 166 264 c 0,40,41
 166 271 166 271 196 289 c 2,42,-1
 206 295 l 1,43,44
 277 336 277 336 338 402 c 128,-1,45
 399 468 399 468 399 504 c 0,46,47
 399 527 399 527 368 527 c 0,48,49
 318 527 318 527 252 483 c 128,-1,50
 186 439 186 439 143 394 c 0,51,52
 137 388 137 388 130.5 388 c 128,-1,53
 124 388 124 388 124 390.5 c 128,-1,54
 124 393 124 393 125 394 c 0,55,56
 265 537 265 537 375 537 c 0,57,58
 426 537 426 537 426 499 c 128,-1,59
 426 461 426 461 379.5 407.5 c 128,-1,60
 333 354 333 354 254 309 c 1,0,1
EndSplineSet
EndChar

StartChar: four
Encoding: 52 52 23
Width: 401
GlyphClass: 2
Flags: W
LayerCount: 2
Fore
SplineSet
-16 119 m 0,0,1
 1 119 1 119 61 181 c 1,2,3
 32 174 32 174 5.5 153.5 c 128,-1,4
 -21 133 -21 133 -21 126 c 128,-1,5
 -21 119 -21 119 -16 119 c 0,0,1
240 159 m 0,6,7
 425 484 425 484 429.5 489 c 128,-1,8
 434 494 434 494 447 497 c 1,9,10
 460 497 460 497 460 487 c 0,11,12
 460 483 460 483 454 471 c 1,13,14
 427 427 427 427 362 316 c 128,-1,15
 297 205 297 205 262 147 c 1,16,17
 315 116 315 116 332 116 c 0,18,19
 364 116 364 116 391 141.5 c 128,-1,20
 418 167 418 167 418 183 c 0,21,22
 418 188 418 188 410 188 c 128,-1,23
 402 188 402 188 387.5 173 c 128,-1,24
 373 158 373 158 362 142 c 2,25,-1
 352 127 l 1,26,27
 346 127 346 127 346 131 c 0,28,29
 346 146 346 146 372.5 174 c 128,-1,30
 399 202 399 202 415.5 202 c 128,-1,31
 432 202 432 202 432 189 c 0,32,33
 432 165 432 165 396 132.5 c 128,-1,34
 360 100 360 100 317 100 c 0,35,36
 301 100 301 100 249 127 c 1,37,38
 199 45 199 45 148 -27 c 1,39,40
 137 -40 137 -40 131 -40 c 1,41,42
 130 -41 130 -41 130 -41 c 1,43,44
 125 -41 125 -41 125 -38 c 0,45,46
 125 -34 125 -34 131 -25 c 128,-1,47
 137 -16 137 -16 148.5 0.5 c 128,-1,48
 160 17 160 17 228 138 c 1,49,50
 140 183 140 183 88 183 c 1,51,52
 10 107 10 107 -18 107 c 0,53,54
 -29 107 -29 107 -29 116 c 0,55,56
 -29 133 -29 133 3.5 160 c 128,-1,57
 36 187 36 187 73 193 c 1,58,59
 140 265 140 265 218 365 c 128,-1,60
 296 465 296 465 306 490 c 1,61,62
 303 487 303 487 299 487 c 128,-1,63
 295 487 295 487 293 488 c 1,64,65
 293 494 293 494 310.5 508 c 128,-1,66
 328 522 328 522 335 522 c 0,67,68
 345 522 345 522 345 510 c 0,69,70
 345 489 345 489 262.5 383 c 128,-1,71
 180 277 180 277 100 195 c 1,72,73
 134 194 134 194 173.5 183.5 c 128,-1,74
 213 173 213 173 226 166 c 128,-1,75
 239 159 239 159 240 159 c 0,6,7
EndSplineSet
EndChar

StartChar: five
Encoding: 53 53 24
Width: 305
GlyphClass: 2
Flags: W
LayerCount: 2
Fore
SplineSet
240 491 m 1,0,-1
 137 296 l 1,1,2
 217 334 217 334 265 334 c 0,3,4
 323 334 323 334 323 277 c 0,5,6
 323 250 323 250 303 211 c 128,-1,7
 283 172 283 172 246 131 c 128,-1,8
 209 90 209 90 164 54.5 c 128,-1,9
 119 19 119 19 62 -3.5 c 128,-1,10
 5 -26 5 -26 -49 -26 c 0,11,12
 -79 -26 -79 -26 -79 -8 c 0,13,14
 -79 23 -79 23 -9.5 76.5 c 128,-1,15
 60 130 60 130 99 130 c 0,16,17
 108 130 108 130 108 119.5 c 128,-1,18
 108 109 108 109 93 97 c 128,-1,19
 78 85 78 85 73.5 85 c 128,-1,20
 69 85 69 85 69 89 c 0,21,22
 69 91 69 91 78 95 c 128,-1,23
 87 99 87 99 87 102 c 128,-1,24
 87 105 87 105 80 105 c 0,25,26
 61 105 61 105 -1 56.5 c 128,-1,27
 -63 8 -63 8 -63 -11 c 0,28,29
 -63 -18 -63 -18 -52 -18 c 0,30,31
 6 -18 6 -18 71.5 19 c 128,-1,32
 137 56 137 56 185 105.5 c 128,-1,33
 233 155 233 155 265 204.5 c 128,-1,34
 297 254 297 254 297 282 c 0,35,36
 297 317 297 317 251 317 c 0,37,38
 218 317 218 317 176.5 300 c 128,-1,39
 135 283 135 283 109 260 c 1,40,41
 104 260 104 260 104 268.5 c 128,-1,42
 104 277 104 277 228 504 c 1,43,44
 243 527 243 527 247.5 527 c 128,-1,45
 252 527 252 527 258 521 c 0,46,47
 279 502 279 502 326 502 c 0,48,49
 365 502 365 502 400 512 c 1,50,-1
 413 515 l 1,51,52
 419 515 419 515 419 511 c 0,53,54
 419 504 419 504 412 502 c 0,55,56
 367 483 367 483 319 483 c 128,-1,57
 271 483 271 483 240 491 c 1,0,-1
EndSplineSet
EndChar

StartChar: six
Encoding: 54 54 25
Width: 342
GlyphClass: 2
Flags: W
LayerCount: 2
Fore
SplineSet
128 191 m 2,0,-1
 138 202 l 1,1,2
 237 323 237 323 314 323 c 0,3,4
 360 323 360 323 360 271 c 0,5,6
 360 206 360 206 300 124 c 1,7,8
 231 32 231 32 145 -6 c 0,9,10
 95 -27 95 -27 44 -27 c 128,-1,11
 -7 -27 -7 -27 -7 24 c 0,12,13
 -7 113 -7 113 124.5 273.5 c 128,-1,14
 256 434 256 434 437 536 c 0,15,16
 440 538 440 538 444 538 c 128,-1,17
 448 538 448 538 448 535.5 c 128,-1,18
 448 533 448 533 441 529 c 0,19,20
 300 441 300 441 157.5 267.5 c 128,-1,21
 15 94 15 94 15 18 c 0,22,23
 15 -16 15 -16 50 -16 c 0,24,25
 110 -16 110 -16 180 42.5 c 128,-1,26
 250 101 250 101 294.5 172 c 128,-1,27
 339 243 339 243 339 285 c 0,28,29
 339 316 339 316 311 316 c 0,30,31
 290 316 290 316 261.5 297.5 c 128,-1,32
 233 279 233 279 211.5 259 c 128,-1,33
 190 239 190 239 140 189 c 0,34,35
 133 182 133 182 128.5 182 c 128,-1,36
 124 182 124 182 124 183 c 0,37,38
 124 186 124 186 128 191 c 2,0,-1
EndSplineSet
EndChar

StartChar: seven
Encoding: 55 55 26
Width: 380
GlyphClass: 2
Flags: W
LayerCount: 2
Fore
SplineSet
541 518 m 0,0,1
 541 521 541 521 537 521 c 0,2,3
 506 521 506 521 425 433 c 1,4,5
 462 441 462 441 501.5 472.5 c 128,-1,6
 541 504 541 504 541 518 c 0,0,1
404 181 m 2,7,-1
 233 184 l 1,8,9
 129 33 129 33 129 12 c 1,10,11
 138 18 138 18 139.5 18 c 128,-1,12
 141 18 141 18 144 15 c 1,13,14
 144 8 144 8 121.5 -9.5 c 128,-1,15
 99 -27 99 -27 91 -27 c 0,16,17
 79 -27 79 -27 79 -12 c 0,18,19
 79 16 79 16 203 184 c 1,20,-1
 90 184 l 2,21,22
 79 184 79 184 79 191 c 0,23,24
 79 200 79 200 88 205 c 128,-1,25
 97 210 97 210 107 210 c 2,26,-1
 220 206 l 1,27,28
 311 329 311 329 396 421 c 1,29,-1
 395 421 l 2,30,31
 342 421 342 421 292 454.5 c 128,-1,32
 242 488 242 488 203 488 c 128,-1,33
 164 488 164 488 129 453 c 128,-1,34
 94 418 94 418 94 397 c 0,35,36
 94 390 94 390 100 390 c 0,37,38
 116 390 116 390 139 414.5 c 128,-1,39
 162 439 162 439 169.5 455 c 128,-1,40
 177 471 177 471 181 471 c 0,41,42
 188 471 188 471 188 466 c 0,43,44
 188 446 188 446 153 410 c 128,-1,45
 118 374 118 374 97 374 c 128,-1,46
 76 374 76 374 76 390 c 0,47,48
 76 421 76 421 123 463.5 c 128,-1,49
 170 506 170 506 227 506 c 0,50,51
 256 506 256 506 315 469 c 128,-1,52
 374 432 374 432 405 431 c 1,53,54
 504 535 504 535 539 535 c 0,55,56
 557 535 557 535 557 523 c 0,57,58
 557 501 557 501 511.5 465.5 c 128,-1,59
 466 430 466 430 416 422 c 1,60,61
 341 337 341 337 248 205 c 1,62,-1
 405 196 l 2,63,64
 420 196 420 196 421 190 c 1,65,66
 421 181 421 181 404 181 c 2,7,-1
EndSplineSet
EndChar

StartChar: eight
Encoding: 56 56 27
Width: 315
GlyphClass: 2
Flags: W
LayerCount: 2
Fore
SplineSet
276 495.5 m 128,-1,1
 232 458 232 458 232 416 c 128,-1,2
 232 374 232 374 247 326 c 1,3,4
 377 418 377 418 397 450 c 0,5,6
 408 468 408 468 408 484 c 0,7,8
 408 533 408 533 362 533 c 0,9,0
 320 533 320 533 276 495.5 c 128,-1,1
65 -30 m 0,10,11
 145 -30 145 -30 194 34.5 c 128,-1,12
 243 99 243 99 243 161.5 c 128,-1,13
 243 224 243 224 223 292 c 1,14,15
 127 224 127 224 72.5 161.5 c 128,-1,16
 18 99 18 99 18 24 c 0,17,18
 18 -30 18 -30 65 -30 c 0,10,11
61 -40 m 0,19,20
 -8 -40 -8 -40 -8 24 c 0,21,22
 -8 100 -8 100 66 176 c 0,23,24
 129 241 129 241 219 305 c 1,25,26
 199 365 199 365 199 405 c 0,27,28
 199 461 199 461 259 503.5 c 128,-1,29
 319 546 319 546 376 546 c 128,-1,30
 433 546 433 546 433 501 c 0,31,32
 433 454 433 454 376 405 c 0,33,34
 332 368 332 368 251 312 c 1,35,36
 284 211 284 211 284 180 c 0,37,38
 284 90 284 90 212.5 25 c 128,-1,39
 141 -40 141 -40 61 -40 c 0,19,20
EndSplineSet
EndChar

StartChar: nine
Encoding: 57 57 28
Width: 319
GlyphClass: 2
Flags: W
LayerCount: 2
Fore
SplineSet
65 269 m 0,0,1
 65 296 65 296 88 338 c 128,-1,2
 111 380 111 380 148 421 c 128,-1,3
 185 462 185 462 242 491.5 c 128,-1,4
 299 521 299 521 359 521 c 0,5,6
 383 521 383 521 383 501 c 0,7,8
 383 469 383 469 331 419.5 c 128,-1,9
 279 370 279 370 233 366 c 1,10,11
 219 366 219 366 219 379 c 0,12,13
 219 387 219 387 225.5 396.5 c 128,-1,14
 232 406 232 406 239 407 c 0,15,16
 245 407 245 407 245 400 c 0,17,18
 245 399 245 399 241 394 c 1,19,20
 275 398 275 398 324 437.5 c 128,-1,21
 373 477 373 477 373 498 c 0,22,23
 373 507 373 507 358 507 c 0,24,25
 315 507 315 507 264.5 476.5 c 128,-1,26
 214 446 214 446 175.5 405 c 128,-1,27
 137 364 137 364 110.5 323 c 128,-1,28
 84 282 84 282 84 261.5 c 128,-1,29
 84 241 84 241 105 241 c 0,30,31
 142 241 142 241 207 282 c 128,-1,32
 272 323 272 323 318.5 364 c 128,-1,33
 365 405 365 405 372 417 c 1,34,35
 379 425 379 425 392 428 c 1,36,37
 405 428 405 428 405 418 c 0,38,39
 405 414 405 414 399 402 c 1,40,41
 303 244 303 244 106 -27 c 1,42,43
 95 -40 95 -40 89 -40 c 1,44,45
 88 -41 88 -41 88 -41 c 1,46,47
 83 -41 83 -41 83 -38 c 0,48,49
 83 -34 83 -34 89 -25 c 128,-1,50
 95 -16 95 -16 105 -3.5 c 128,-1,51
 115 9 115 9 209.5 155.5 c 128,-1,52
 304 302 304 302 348 373 c 1,53,54
 294 325 294 325 220.5 276 c 128,-1,55
 147 227 147 227 100 227 c 0,56,57
 65 227 65 227 65 269 c 0,0,1
EndSplineSet
EndChar

StartChar: colon
Encoding: 58 58 29
Width: 154
GlyphClass: 2
Flags: W
LayerCount: 2
Fore
SplineSet
164.5 205 m 128,-1,1
 151 190 151 190 134.5 190 c 128,-1,2
 118 190 118 190 118 205 c 128,-1,3
 118 220 118 220 132.5 233.5 c 128,-1,4
 147 247 147 247 157.5 247 c 128,-1,5
 168 247 168 247 173 241 c 128,-1,6
 178 235 178 235 178 227.5 c 128,-1,0
 178 220 178 220 164.5 205 c 128,-1,1
78.5 9 m 128,-1,8
 65 -6 65 -6 48.5 -6 c 128,-1,9
 32 -6 32 -6 32 9 c 128,-1,10
 32 24 32 24 46.5 37.5 c 128,-1,11
 61 51 61 51 71.5 51 c 128,-1,12
 82 51 82 51 87 45 c 128,-1,13
 92 39 92 39 92 31.5 c 128,-1,7
 92 24 92 24 78.5 9 c 128,-1,8
EndSplineSet
EndChar

StartChar: semicolon
Encoding: 59 59 30
Width: 148
GlyphClass: 2
Flags: W
LayerCount: 2
Fore
SplineSet
174.5 205 m 128,-1,1
 161 190 161 190 144.5 190 c 128,-1,2
 128 190 128 190 128 205 c 128,-1,3
 128 220 128 220 142.5 233.5 c 128,-1,4
 157 247 157 247 167.5 247 c 128,-1,5
 178 247 178 247 183 241 c 128,-1,6
 188 235 188 235 188 227.5 c 128,-1,0
 188 220 188 220 174.5 205 c 128,-1,1
80.5 -14 m 128,-1,8
 91 4 91 4 91 20 c 0,9,10
 91 52 91 52 73 52 c 0,11,12
 58 52 58 52 46 40 c 128,-1,13
 34 28 34 28 34 12 c 128,-1,14
 34 -4 34 -4 61 -8 c 1,15,16
 61 -27 61 -27 32.5 -44 c 128,-1,17
 4 -61 4 -61 -8 -63 c 1,18,19
 -15 -66 -15 -66 -15 -68 c 0,20,21
 -15 -72 -15 -72 -9 -72 c 2,22,23
 -9 -72 -9 -72 -8 -72 c 0,24,25
 -1 -71 -1 -71 5.5 -69.5 c 128,-1,26
 12 -68 12 -68 28.5 -60 c 128,-1,27
 45 -52 45 -52 57.5 -42 c 128,-1,7
 70 -32 70 -32 80.5 -14 c 128,-1,8
EndSplineSet
EndChar

StartChar: less
Encoding: 60 60 31
Width: 362
GlyphClass: 2
Flags: W
LayerCount: 2
Fore
SplineSet
141 266 m 1,0,-1
 314 183 l 2,1,2
 319 181 319 181 319 173 c 128,-1,3
 319 165 319 165 304 165 c 1,4,-1
 151 238 l 2,5,6
 109 258 109 258 109 266 c 1,7,8
 108 268 108 268 108 270 c 0,9,10
 108 284 108 284 140 292 c 1,11,-1
 343 322 l 1,12,13
 350 322 350 322 350 318 c 128,-1,14
 350 314 350 314 344 312 c 1,15,-1
 151 283 l 2,16,17
 135 280 135 280 135 276 c 128,-1,18
 135 272 135 272 141 266 c 1,0,-1
EndSplineSet
EndChar

StartChar: equal
Encoding: 61 61 32
Width: 418
GlyphClass: 2
Flags: W
LayerCount: 2
Fore
SplineSet
303 201 m 1,0,1
 334 201 334 201 334 192 c 128,-1,2
 334 183 334 183 298 181 c 1,3,4
 254 183 254 183 173 183 c 2,5,-1
 78 183 l 2,6,7
 69 183 69 183 69 190 c 0,8,9
 69 199 69 199 76.5 204 c 128,-1,10
 84 209 84 209 92 209 c 2,11,-1
 303 201 l 1,0,1
341 269 m 1,12,13
 372 269 372 269 372 260 c 128,-1,14
 372 251 372 251 336 249 c 1,15,16
 292 251 292 251 211 251 c 2,17,-1
 116 251 l 2,18,19
 107 251 107 251 107 258 c 0,20,21
 107 267 107 267 114.5 272 c 128,-1,22
 122 277 122 277 130 277 c 2,23,-1
 341 269 l 1,12,13
EndSplineSet
EndChar

StartChar: greater
Encoding: 62 62 33
Width: 362
GlyphClass: 2
Flags: W
LayerCount: 2
Fore
SplineSet
311 222 m 1,0,-1
 138 305 l 2,1,2
 133 307 133 307 133 315 c 128,-1,3
 133 323 133 323 148 323 c 1,4,-1
 301 250 l 2,5,6
 343 230 343 230 343 222 c 1,7,8
 344 220 344 220 344 218 c 0,9,10
 344 204 344 204 312 196 c 1,11,-1
 109 166 l 1,12,13
 102 166 102 166 102 170 c 128,-1,14
 102 174 102 174 108 176 c 1,15,-1
 301 205 l 2,16,17
 317 208 317 208 317 212 c 128,-1,18
 317 216 317 216 311 222 c 1,0,-1
EndSplineSet
EndChar

StartChar: question
Encoding: 63 63 34
Width: 376
GlyphClass: 2
Flags: W
LayerCount: 2
Fore
SplineSet
176 114 m 0,0,1
 181 111 181 111 181 108.5 c 128,-1,2
 181 106 181 106 169.5 106 c 128,-1,3
 158 106 158 106 145.5 121 c 128,-1,4
 133 136 133 136 133 163 c 1,5,6
 138 212 138 212 178.5 251.5 c 128,-1,7
 219 291 219 291 273.5 319.5 c 128,-1,8
 328 348 328 348 381.5 378.5 c 128,-1,9
 435 409 435 409 472 454.5 c 128,-1,10
 509 500 509 500 509 558 c 0,11,12
 509 644 509 644 432.5 644 c 128,-1,13
 356 644 356 644 271 572.5 c 128,-1,14
 186 501 186 501 186 425 c 0,15,16
 186 386 186 386 212 386 c 0,17,18
 246 386 246 386 306.5 441 c 128,-1,19
 367 496 367 496 379 524 c 0,20,21
 382 531 382 531 388 531 c 128,-1,22
 394 531 394 531 394 524 c 0,23,24
 394 523 394 523 392 517 c 1,25,26
 370 479 370 479 308.5 426.5 c 128,-1,27
 247 374 247 374 209.5 374 c 128,-1,28
 172 374 172 374 172 431 c 0,29,30
 172 527 172 527 258 593.5 c 128,-1,31
 344 660 344 660 437 660 c 0,32,33
 493 660 493 660 528 631 c 128,-1,34
 563 602 563 602 563 550.5 c 128,-1,35
 563 499 563 499 534 461.5 c 128,-1,36
 505 424 505 424 461.5 400 c 128,-1,37
 418 376 418 376 367 349.5 c 128,-1,38
 316 323 316 323 271.5 299.5 c 128,-1,39
 227 276 227 276 196 239.5 c 128,-1,40
 165 203 165 203 162 160 c 1,41,42
 162 120 162 120 176 114 c 0,0,1
118.5 9 m 128,-1,44
 105 -6 105 -6 88.5 -6 c 128,-1,45
 72 -6 72 -6 72 9 c 128,-1,46
 72 24 72 24 86.5 37.5 c 128,-1,47
 101 51 101 51 111.5 51 c 128,-1,48
 122 51 122 51 127 45 c 128,-1,49
 132 39 132 39 132 31.5 c 128,-1,43
 132 24 132 24 118.5 9 c 128,-1,44
EndSplineSet
EndChar

StartChar: at
Encoding: 64 64 35
Width: 555
GlyphClass: 2
Flags: W
LayerCount: 2
Fore
SplineSet
265 14 m 0,0,1
 321 14 321 14 392.5 60 c 128,-1,2
 464 106 464 106 514 169.5 c 128,-1,3
 564 233 564 233 564 280 c 0,4,5
 564 346 564 346 463.5 346 c 128,-1,6
 363 346 363 346 278 311 c 128,-1,7
 193 276 193 276 139.5 223 c 128,-1,8
 86 170 86 170 55.5 111 c 128,-1,9
 25 52 25 52 25 1.5 c 128,-1,10
 25 -49 25 -49 53 -78.5 c 128,-1,11
 81 -108 81 -108 139 -108 c 128,-1,12
 197 -108 197 -108 272.5 -89 c 128,-1,13
 348 -70 348 -70 392 -51 c 2,14,-1
 437 -32 l 2,15,16
 443 -29 443 -29 448.5 -29 c 128,-1,17
 454 -29 454 -29 454 -33.5 c 128,-1,18
 454 -38 454 -38 450 -40 c 0,19,20
 430 -49 430 -49 397.5 -62.5 c 128,-1,21
 365 -76 365 -76 280.5 -98.5 c 128,-1,22
 196 -121 196 -121 130.5 -121 c 128,-1,23
 65 -121 65 -121 28.5 -82.5 c 128,-1,24
 -8 -44 -8 -44 -8 14 c 128,-1,25
 -8 72 -8 72 22.5 130 c 128,-1,26
 53 188 53 188 109.5 240 c 128,-1,27
 166 292 166 292 260.5 325 c 128,-1,28
 355 358 355 358 470 358 c 0,29,30
 530 358 530 358 560 333.5 c 128,-1,31
 590 309 590 309 590 268.5 c 128,-1,32
 590 228 590 228 563 181 c 128,-1,33
 536 134 536 134 491 93.5 c 128,-1,34
 446 53 446 53 381.5 26 c 128,-1,35
 317 -1 317 -1 249 -1 c 0,36,37
 243 -1 243 -1 243 6 c 0,38,39
 243 21 243 21 259 66 c 2,40,-1
 264 80 l 2,41,42
 264 82 264 82 260.5 82 c 128,-1,43
 257 82 257 82 202 42 c 0,44,45
 148 2 148 2 131.5 2 c 128,-1,46
 115 2 115 2 115 32 c 0,47,48
 115 115 115 115 209.5 194 c 128,-1,49
 304 273 304 273 437 273 c 0,50,51
 449 273 449 273 449 263 c 128,-1,52
 449 253 449 253 355 146.5 c 128,-1,53
 261 40 261 40 261 18 c 0,54,55
 261 14 261 14 265 14 c 0,0,1
285 118 m 1,56,57
 302 131 302 131 351 187 c 128,-1,58
 400 243 400 243 400 252 c 0,59,60
 400 256 400 256 392 256 c 0,61,62
 346 256 346 256 285 213.5 c 128,-1,63
 224 171 224 171 181.5 117 c 128,-1,64
 139 63 139 63 139 30 c 0,65,66
 139 24 139 24 145 24 c 128,-1,67
 151 24 151 24 164.5 31.5 c 128,-1,68
 178 39 178 39 197.5 52.5 c 128,-1,69
 217 66 217 66 230 76 c 0,70,71
 279 112 279 112 285 118 c 1,56,57
EndSplineSet
EndChar

StartChar: A
Encoding: 65 65 36
Width: 496
GlyphClass: 2
Flags: W
LayerCount: 2
Fore
SplineSet
531 106 m 1,0,1
 519 97 519 97 492 78.5 c 128,-1,2
 465 60 465 60 449 49 c 128,-1,3
 433 38 433 38 408.5 21.5 c 128,-1,4
 384 5 384 5 367 -5 c 128,-1,5
 350 -15 350 -15 332 -25 c 0,6,7
 295 -45 295 -45 277 -45 c 0,8,9
 260 -45 260 -45 260 -26 c 0,10,11
 260 3 260 3 299.5 68 c 128,-1,12
 339 133 339 133 378.5 187.5 c 128,-1,13
 418 242 418 242 418 245 c 128,-1,14
 418 248 418 248 416 248 c 1,15,16
 404 237 404 237 384.5 218 c 128,-1,17
 365 199 365 199 310 150.5 c 128,-1,18
 255 102 255 102 208.5 65 c 128,-1,19
 162 28 162 28 110.5 -2.5 c 128,-1,20
 59 -33 59 -33 32 -33 c 0,21,22
 -17 -33 -17 -33 -17 35 c 0,23,24
 -17 92 -17 92 17 179 c 128,-1,25
 51 266 51 266 115 361.5 c 128,-1,26
 179 457 179 457 259.5 540.5 c 128,-1,27
 340 624 340 624 445 678.5 c 128,-1,28
 550 733 550 733 654 733 c 0,29,30
 694 733 694 733 694 703 c 0,31,32
 694 664 694 664 633.5 590.5 c 128,-1,33
 573 517 573 517 500 459 c 128,-1,34
 427 401 427 401 394 401 c 0,35,36
 381 401 381 401 381 414.5 c 128,-1,37
 381 428 381 428 403.5 455 c 128,-1,38
 426 482 426 482 434 482 c 0,39,40
 438 482 438 482 438 477.5 c 128,-1,41
 438 473 438 473 425.5 459.5 c 128,-1,42
 413 446 413 446 413 442 c 128,-1,43
 413 438 413 438 419 438 c 0,44,45
 440 438 440 438 501.5 491 c 128,-1,46
 563 544 563 544 617.5 609.5 c 128,-1,47
 672 675 672 675 672 705 c 0,48,49
 672 724 672 724 647 724 c 0,50,51
 582 724 582 724 505.5 682.5 c 128,-1,52
 429 641 429 641 360 576 c 128,-1,53
 291 511 291 511 226.5 430.5 c 128,-1,54
 162 350 162 350 115 272.5 c 128,-1,55
 68 195 68 195 39.5 127.5 c 128,-1,56
 11 60 11 60 11 21 c 128,-1,57
 11 -18 11 -18 42 -18 c 0,58,59
 96 -18 96 -18 256 120 c 0,60,61
 463 299 463 299 611 487 c 0,62,63
 636 518 636 518 650 518 c 128,-1,64
 664 518 664 518 664 507.5 c 128,-1,65
 664 497 664 497 567 377 c 0,66,67
 277 18 277 18 277 -27 c 0,68,69
 277 -35 277 -35 285 -35 c 128,-1,70
 293 -35 293 -35 306.5 -28.5 c 128,-1,71
 320 -22 320 -22 345.5 -5.5 c 128,-1,72
 371 11 371 11 390 24 c 0,73,74
 436 54 436 54 516 110 c 1,75,-1
 583 152 l 2,76,77
 590 156 590 156 598 156 c 128,-1,78
 606 156 606 156 606 154 c 128,-1,79
 606 152 606 152 603 150 c 2,80,-1
 531 106 l 1,0,1
EndSplineSet
EndChar

StartChar: B
Encoding: 66 66 37
Width: 566
GlyphClass: 2
Flags: W
LayerCount: 2
Fore
SplineSet
369 496 m 0,0,1
 372 496 372 496 374 485 c 1,2,3
 374 438 374 438 292 312 c 128,-1,4
 210 186 210 186 110 77 c 128,-1,5
 10 -32 10 -32 -35 -32 c 0,6,7
 -47 -32 -47 -32 -47 -17 c 0,8,9
 -47 46 -47 46 6 143.5 c 128,-1,10
 59 241 59 241 148 342.5 c 128,-1,11
 237 444 237 444 341 534 c 128,-1,12
 445 624 445 624 558.5 681 c 128,-1,13
 672 738 672 738 762 738 c 0,14,15
 831 738 831 738 831 703 c 0,16,17
 831 651 831 651 698.5 546 c 128,-1,18
 566 441 566 441 466 394 c 1,19,20
 466 392 466 392 470 392 c 0,21,22
 514 398 514 398 544 398 c 0,23,24
 640 398 640 398 640 333 c 0,25,26
 640 273 640 273 566 184 c 128,-1,27
 492 95 492 95 385.5 27 c 128,-1,28
 279 -41 279 -41 198 -41 c 0,29,30
 139 -41 139 -41 139 10 c 0,31,32
 139 45 139 45 164 92.5 c 128,-1,33
 189 140 189 140 215 164 c 1,34,35
 221 168 221 168 223 168 c 128,-1,36
 225 168 225 168 225 167 c 0,37,38
 203 137 203 137 184 92.5 c 128,-1,39
 165 48 165 48 165 14 c 0,40,41
 165 -30 165 -30 204 -30 c 0,42,43
 257 -30 257 -30 354 40 c 128,-1,44
 451 110 451 110 528 200.5 c 128,-1,45
 605 291 605 291 605 343 c 0,46,47
 605 388 605 388 540 388 c 0,48,49
 472 388 472 388 434 372 c 1,50,-1
 420 367 l 1,51,52
 353 340 353 340 348 340 c 128,-1,53
 343 340 343 340 343 342.5 c 128,-1,54
 343 345 343 345 351 350 c 1,55,56
 444 388 444 388 545 463 c 128,-1,57
 646 538 646 538 709 607.5 c 128,-1,58
 772 677 772 677 772 709 c 0,59,60
 772 726 772 726 750 726 c 0,61,62
 648 726 648 726 507.5 635.5 c 128,-1,63
 367 545 367 545 250.5 424 c 128,-1,64
 134 303 134 303 51 180 c 128,-1,65
 -32 57 -32 57 -32 -7 c 0,66,67
 -32 -18 -32 -18 -26 -18 c 0,68,69
 -7 -18 -7 -18 80.5 84.5 c 128,-1,70
 168 187 168 187 256 312 c 128,-1,71
 344 437 344 437 360 489 c 0,72,73
 362 496 362 496 369 496 c 0,0,1
EndSplineSet
EndChar

StartChar: C
Encoding: 67 67 38
Width: 293
GlyphClass: 2
Flags: W
LayerCount: 2
Fore
SplineSet
60 189 m 128,-1,1
 22 103 22 103 22 44.5 c 128,-1,2
 22 -14 22 -14 67 -14 c 0,3,4
 128 -14 128 -14 312 110 c 1,5,-1
 379 152 l 2,6,7
 386 156 386 156 394 156 c 128,-1,8
 402 156 402 156 402 154 c 128,-1,9
 402 152 402 152 399 150 c 2,10,-1
 327 106 l 2,11,12
 315 98 315 98 271 68.5 c 128,-1,13
 227 39 227 39 206 26 c 128,-1,14
 185 13 185 13 151 -6 c 0,15,16
 87 -43 87 -43 46 -43 c 0,17,18
 -18 -43 -18 -43 -18 53 c 0,19,20
 -18 116 -18 116 20 204 c 128,-1,21
 58 292 58 292 126.5 383 c 128,-1,22
 195 474 195 474 280.5 553 c 128,-1,23
 366 632 366 632 472.5 682.5 c 128,-1,24
 579 733 579 733 680 733 c 0,25,26
 735 733 735 733 735 691 c 0,27,28
 735 641 735 641 668 554.5 c 128,-1,29
 601 468 601 468 512.5 400 c 128,-1,30
 424 332 424 332 371 332 c 0,31,32
 347 332 347 332 347 346 c 0,33,34
 347 356 347 356 368.5 378.5 c 128,-1,35
 390 401 390 401 403 401 c 0,36,37
 407 401 407 401 407 397.5 c 128,-1,38
 407 394 407 394 394.5 382.5 c 128,-1,39
 382 371 382 371 382 367.5 c 128,-1,40
 382 364 382 364 384 364 c 0,41,42
 414 364 414 364 496 426 c 128,-1,43
 578 488 578 488 650 567.5 c 128,-1,44
 722 647 722 647 722 688 c 0,45,46
 722 721 722 721 672 721 c 0,47,48
 586 721 586 721 489.5 669.5 c 128,-1,49
 393 618 393 618 312 537.5 c 128,-1,50
 231 457 231 457 164.5 366 c 128,-1,0
 98 275 98 275 60 189 c 128,-1,1
EndSplineSet
EndChar

StartChar: D
Encoding: 68 68 39
Width: 706
GlyphClass: 2
Flags: W
LayerCount: 2
Fore
SplineSet
64 113 m 1,0,-1
 60 125 l 1,1,2
 57 125 57 125 49 93 c 0,3,4
 26 1 26 1 26 -60.5 c 128,-1,5
 26 -122 26 -122 47 -122 c 0,6,7
 50 -122 50 -122 154 2 c 1,8,9
 118 20 118 20 94 50 c 128,-1,10
 70 80 70 80 64 113 c 1,0,-1
621 596 m 0,11,12
 635 616 635 616 644 616 c 128,-1,13
 653 616 653 616 653 591 c 0,14,15
 653 547 653 547 279 114 c 1,16,-1
 292 114 l 2,17,18
 331 114 331 114 378 134 c 128,-1,19
 425 154 425 154 464 182 c 0,20,21
 541 236 541 236 590 287 c 1,22,-1
 610 307 l 2,23,24
 619 317 619 317 625 317 c 128,-1,25
 631 317 631 317 631 313 c 0,26,27
 631 307 631 307 623 299 c 2,28,-1
 602 278 l 2,29,30
 588 264 588 264 547.5 230 c 128,-1,31
 507 196 507 196 468.5 170 c 128,-1,32
 430 144 430 144 379.5 122.5 c 128,-1,33
 329 101 329 101 289 101 c 0,34,35
 275 101 275 101 269 102 c 1,36,37
 228 59 228 59 185 7 c 1,38,39
 218 -5 218 -5 248 -5 c 0,40,41
 346 -5 346 -5 468 64.5 c 128,-1,42
 590 134 590 134 688 231 c 128,-1,43
 786 328 786 328 853.5 437 c 128,-1,44
 921 546 921 546 921 621 c 0,45,46
 921 731 921 731 779 731 c 0,47,48
 692 731 692 731 603.5 692.5 c 128,-1,49
 515 654 515 654 447 593 c 128,-1,50
 379 532 379 532 324.5 460.5 c 128,-1,51
 270 389 270 389 241 320 c 128,-1,52
 212 251 212 251 212 196 c 128,-1,53
 212 141 212 141 251 122 c 1,54,55
 564 513 564 513 621 596 c 0,11,12
97 195 m 1,56,-1
 91 153 l 1,57,58
 91 112 91 112 111 75 c 128,-1,59
 131 38 131 38 166 17 c 1,60,-1
 240 109 l 1,61,62
 181 134 181 134 181 211 c 128,-1,63
 181 288 181 288 226 377.5 c 128,-1,64
 271 467 271 467 347.5 549 c 128,-1,65
 424 631 424 631 542 687 c 128,-1,66
 660 743 660 743 789 743 c 0,67,68
 867 743 867 743 905 708 c 128,-1,69
 943 673 943 673 943 609.5 c 128,-1,70
 943 546 943 546 904.5 462.5 c 128,-1,71
 866 379 866 379 796 295.5 c 128,-1,72
 726 212 726 212 640 141.5 c 128,-1,73
 554 71 554 71 447 27 c 128,-1,74
 340 -17 340 -17 239 -17 c 0,75,76
 204 -17 204 -17 174 -6 c 1,77,78
 100 -88 100 -88 61 -128 c 0,79,80
 41 -148 41 -148 26 -148 c 0,81,82
 -1 -148 -1 -148 -1 -79.5 c 128,-1,83
 -1 -11 -1 -11 32 96.5 c 128,-1,84
 65 204 65 204 90 204 c 0,85,86
 97 204 97 204 97 195 c 1,56,-1
EndSplineSet
EndChar

StartChar: E
Encoding: 69 69 40
Width: 315
GlyphClass: 2
Flags: W
LayerCount: 2
Fore
SplineSet
61 -46 m 0,0,1
 -6 -46 -6 -46 -6 24 c 128,-1,2
 -6 94 -6 94 68.5 193 c 128,-1,3
 143 292 143 292 254 347 c 1,4,5
 218 338 218 338 193 338 c 0,6,7
 122 338 122 338 122 393 c 0,8,9
 122 437 122 437 168.5 501 c 128,-1,10
 215 565 215 565 287 625.5 c 128,-1,11
 359 686 359 686 458.5 728.5 c 128,-1,12
 558 771 558 771 652 771 c 0,13,14
 696 771 696 771 696 746 c 0,15,16
 696 703 696 703 595.5 625 c 128,-1,17
 495 547 495 547 444 547 c 0,18,19
 430 547 430 547 430 562.5 c 128,-1,20
 430 578 430 578 451 595.5 c 128,-1,21
 472 613 472 613 477.5 613 c 128,-1,22
 483 613 483 613 483 608.5 c 128,-1,23
 483 604 483 604 473.5 598 c 128,-1,24
 464 592 464 592 464 587.5 c 128,-1,25
 464 583 464 583 468 583 c 0,26,27
 496 583 496 583 587 654 c 128,-1,28
 678 725 678 725 678 752 c 0,29,30
 678 762 678 762 663 762 c 0,31,32
 580 762 580 762 485.5 715.5 c 128,-1,33
 391 669 391 669 320 606.5 c 128,-1,34
 249 544 249 544 202 480 c 128,-1,35
 155 416 155 416 155 380 c 0,36,37
 155 349 155 349 191 349 c 0,38,39
 273 349 273 349 374 416 c 0,40,41
 389 425 389 425 404.5 435.5 c 128,-1,42
 420 446 420 446 423.5 448.5 c 128,-1,43
 427 451 427 451 430 451 c 128,-1,44
 433 451 433 451 433 443 c 2,45,-1
 433 440 l 2,46,47
 433 431 433 431 356 386 c 1,48,-1
 330 370 l 1,49,50
 226 308 226 308 123.5 187.5 c 128,-1,51
 21 67 21 67 21 6 c 0,52,53
 21 -29 21 -29 62 -29 c 0,54,55
 126 -29 126 -29 333 110 c 1,56,-1
 400 152 l 2,57,58
 407 156 407 156 415 156 c 128,-1,59
 423 156 423 156 423 154 c 128,-1,60
 423 152 423 152 420 150 c 2,61,-1
 348 106 l 2,62,63
 339 100 339 100 292 68.5 c 128,-1,64
 245 37 245 37 225 24.5 c 128,-1,65
 205 12 205 12 168 -8 c 1,66,67
 80 -46 80 -46 63 -46 c 0,68,69
 62 -46 62 -46 61 -46 c 0,0,1
EndSplineSet
EndChar

StartChar: F
Encoding: 70 70 41
Width: 395
GlyphClass: 2
Flags: W
LayerCount: 2
Fore
SplineSet
783 767 m 0,0,1
 783 776 783 776 773 776 c 0,2,3
 734 776 734 776 591 626 c 1,4,5
 659 638 659 638 721 689 c 128,-1,6
 783 740 783 740 783 767 c 0,0,1
531 249 m 2,7,-1
 281 255 l 1,8,-1
 275 255 l 1,9,10
 70 -5 70 -5 70 -38 c 0,11,12
 70 -41 70 -41 72.5 -41 c 128,-1,13
 75 -41 75 -41 78.5 -39 c 128,-1,14
 82 -37 82 -37 86.5 -34.5 c 128,-1,15
 91 -32 91 -32 94 -30 c 128,-1,16
 97 -28 97 -28 98 -28 c 128,-1,17
 99 -28 99 -28 99 -31 c 0,18,19
 99 -42 99 -42 64.5 -67 c 128,-1,20
 30 -92 30 -92 17 -92 c 0,21,22
 1 -92 1 -92 1 -70 c 128,-1,23
 1 -48 1 -48 62.5 43 c 128,-1,24
 124 134 124 134 221 255 c 1,25,-1
 15 254 l 2,26,27
 2 254 2 254 2 261 c 0,28,29
 2 273 2 273 15 280 c 128,-1,30
 28 287 28 287 44 287 c 0,31,32
 130 287 130 287 242 281 c 1,33,34
 392 466 392 466 536 612 c 1,35,36
 478 613 478 613 431.5 630.5 c 128,-1,37
 385 648 385 648 360 668 c 0,38,39
 292 722 292 722 227.5 722 c 128,-1,40
 163 722 163 722 105 662 c 128,-1,41
 47 602 47 602 47 564 c 0,42,43
 47 552 47 552 57 552 c 0,44,45
 85 552 85 552 125.5 595 c 128,-1,46
 166 638 166 638 182 676 c 0,47,48
 186 685 186 685 189 685 c 0,49,50
 195 685 195 685 195 680 c 0,51,52
 195 652 195 652 139.5 593.5 c 128,-1,53
 84 535 84 535 45 535 c 0,54,55
 17 535 17 535 17 560 c 0,56,57
 17 609 17 609 94 675.5 c 128,-1,58
 171 742 171 742 265 742 c 0,59,60
 297 742 297 742 345 715.5 c 128,-1,61
 393 689 393 689 448.5 659 c 128,-1,62
 504 629 504 629 549 624 c 1,63,64
 717 790 717 790 777 790 c 0,65,66
 801 790 801 790 801 772 c 0,67,68
 801 737 801 737 731.5 682.5 c 128,-1,69
 662 628 662 628 581 615 c 1,70,71
 457 483 457 483 294 279 c 1,72,73
 403 274 403 274 533 264 c 1,74,75
 552 264 552 264 554 257 c 1,76,77
 554 249 554 249 531 249 c 2,7,-1
EndSplineSet
EndChar

StartChar: G
Encoding: 71 71 42
Width: 405
GlyphClass: 2
Flags: W
LayerCount: 2
Fore
SplineSet
47 -120 m 0,0,1
 51 -120 51 -120 62 -109 c 128,-1,2
 73 -98 73 -98 139 -16 c 1,3,4
 98 -13 98 -13 67 11.5 c 128,-1,5
 36 36 36 36 25 70 c 0,6,7
 24 73 24 73 22.5 73 c 128,-1,8
 21 73 21 73 18.5 45.5 c 128,-1,9
 16 18 16 18 16 -27 c 0,10,11
 16 -120 16 -120 47 -120 c 0,0,1
441 106 m 1,12,13
 373 61 373 61 295.5 26 c 128,-1,14
 218 -9 218 -9 165 -15 c 1,15,-1
 60 -133 l 2,16,17
 45 -149 45 -149 34 -149 c 0,18,19
 -6 -149 -6 -149 -6 -54 c 0,20,21
 -6 38 -6 38 21 132 c 0,22,23
 31 167 31 167 38 167 c 1,24,-1
 48 157 l 1,25,26
 43 134 43 134 43 117 c 0,27,28
 43 65 43 65 74 34 c 128,-1,29
 105 3 105 3 151 0 c 1,30,31
 359 257 359 257 561 519 c 1,32,33
 538 503 538 503 521 491 c 128,-1,34
 504 479 504 479 440 438 c 128,-1,35
 376 397 376 397 325.5 370.5 c 128,-1,36
 275 344 275 344 212.5 320.5 c 128,-1,37
 150 297 150 297 108 297 c 0,38,39
 49 297 49 297 49 357 c 0,40,41
 49 394 49 394 72 443 c 128,-1,42
 95 492 95 492 141.5 543.5 c 128,-1,43
 188 595 188 595 248.5 638.5 c 128,-1,44
 309 682 309 682 393.5 710 c 128,-1,45
 478 738 478 738 568 738 c 0,46,47
 613 738 613 738 613 709 c 0,48,49
 613 678 613 678 568.5 630.5 c 128,-1,50
 524 583 524 583 459 546 c 128,-1,51
 394 509 394 509 343 509 c 1,52,53
 325 510 325 510 325 524 c 128,-1,54
 325 538 325 538 337.5 552 c 128,-1,55
 350 566 350 566 357.5 566 c 128,-1,56
 365 566 365 566 365 563 c 128,-1,57
 365 560 365 560 360 555.5 c 128,-1,58
 355 551 355 551 355 547.5 c 128,-1,59
 355 544 355 544 361 544 c 0,60,61
 398 544 398 544 456 575 c 128,-1,62
 514 606 514 606 557 645.5 c 128,-1,63
 600 685 600 685 600 707 c 0,64,65
 600 726 600 726 567 726 c 0,66,67
 493 726 493 726 402 680.5 c 128,-1,68
 311 635 311 635 239.5 573 c 128,-1,69
 168 511 168 511 119 446.5 c 128,-1,70
 70 382 70 382 70 345 c 0,71,72
 70 310 70 310 115 310 c 0,73,74
 181 310 181 310 295.5 368.5 c 128,-1,75
 410 427 410 427 495 487 c 128,-1,76
 580 547 580 547 594 567 c 0,77,78
 601 576 601 576 618.5 576 c 128,-1,79
 636 576 636 576 636 566 c 128,-1,80
 636 556 636 556 625 540 c 0,81,82
 441 296 441 296 179 0 c 1,83,84
 280 12 280 12 426 110 c 1,85,-1
 493 152 l 2,86,87
 500 156 500 156 508 156 c 128,-1,88
 516 156 516 156 516 154 c 128,-1,89
 516 152 516 152 513 150 c 2,90,-1
 441 106 l 1,12,13
EndSplineSet
EndChar

StartChar: H
Encoding: 72 72 43
Width: 464
GlyphClass: 2
Flags: W
LayerCount: 2
Fore
SplineSet
240 -94 m 1,0,1
 269 -94 269 -94 301.5 -29.5 c 128,-1,2
 334 35 334 35 358 128 c 1,3,4
 235 -42 235 -42 235 -85 c 0,5,6
 235 -92 235 -92 240 -94 c 1,0,1
350 345 m 0,7,8
 350 243 350 243 370 177 c 1,9,10
 393 280 393 280 393 344.5 c 128,-1,11
 393 409 393 409 370 409 c 0,12,13
 350 409 350 409 350 345 c 0,7,8
61 11 m 2,14,-1
 75 19 l 1,15,16
 78 19 78 19 78 16 c 0,17,18
 78 8 78 8 53 -10 c 128,-1,19
 28 -28 28 -28 14 -28 c 128,-1,20
 0 -28 0 -28 0 -14 c 0,21,22
 0 39 0 39 145.5 235 c 128,-1,23
 291 431 291 431 391 539 c 1,24,-1
 393 543 l 2,25,26
 393 545 393 545 390 545 c 1,27,28
 351 519 351 519 227 464.5 c 128,-1,29
 103 410 103 410 49 410 c 0,30,31
 19 410 19 410 19 430 c 0,32,33
 19 436 19 436 27.5 446.5 c 128,-1,34
 36 457 36 457 39.5 457 c 128,-1,35
 43 457 43 457 50 450.5 c 128,-1,36
 57 444 57 444 93.5 444 c 128,-1,37
 130 444 130 444 217 476.5 c 128,-1,38
 304 509 304 509 398 563 c 0,39,40
 430 582 430 582 451 601 c 128,-1,41
 472 620 472 620 499.5 649 c 128,-1,42
 527 678 527 678 535.5 686.5 c 128,-1,43
 544 695 544 695 567.5 720.5 c 128,-1,44
 591 746 591 746 605 760 c 0,45,46
 644 797 644 797 669 797 c 0,47,48
 677 797 677 797 677 790 c 0,49,50
 677 750 677 750 548 656 c 1,51,52
 499 619 499 619 491 610 c 0,53,54
 378 486 378 486 219 275.5 c 128,-1,55
 60 65 60 65 59 14 c 0,56,57
 59 11 59 11 61 11 c 2,14,-1
571 150 m 2,58,-1
 499 106 l 2,59,60
 461 82 461 82 431.5 82 c 128,-1,61
 402 82 402 82 379 103 c 1,62,63
 351 14 351 14 311.5 -46 c 128,-1,64
 272 -106 272 -106 234 -106 c 0,65,66
 221 -106 221 -106 221 -94 c 0,67,68
 221 -31 221 -31 351 149 c 1,69,70
 325 212 325 212 325 327 c 0,71,72
 325 366 325 366 337 392 c 128,-1,73
 349 418 349 418 370 418 c 0,74,75
 418 418 418 418 418 318 c 0,76,77
 418 276 418 276 409 228 c 1,78,79
 548 409 548 409 726 605 c 128,-1,80
 904 801 904 801 964 845 c 1,81,82
 978 854 978 854 998 854 c 256,83,84
 1018 854 1018 854 1018 847 c 0,85,86
 1018 842 1018 842 1014 838 c 0,87,88
 1009 833 1009 833 998 823 c 128,-1,89
 987 813 987 813 979 805 c 0,90,91
 629 455 629 455 413 198 c 1,92,-1
 401 183 l 1,93,94
 400 180 400 180 396 161.5 c 128,-1,95
 392 143 392 143 389 134 c 1,96,97
 410 98 410 98 443 98 c 0,98,99
 462 98 462 98 480 108 c 0,100,101
 510 125 510 125 551 152 c 0,102,103
 558 156 558 156 566 156 c 128,-1,104
 574 156 574 156 574 154 c 128,-1,105
 574 152 574 152 571 150 c 2,58,-1
EndSplineSet
EndChar

StartChar: I
Encoding: 73 73 44
Width: 371
GlyphClass: 2
Flags: W
LayerCount: 2
Fore
SplineSet
473 466 m 128,-1,1
 473 462 473 462 440.5 432.5 c 128,-1,2
 408 403 408 403 362.5 366.5 c 128,-1,3
 317 330 317 330 262.5 303.5 c 128,-1,4
 208 277 208 277 166 277 c 0,5,6
 115 277 115 277 115 328 c 0,7,8
 115 375 115 375 158.5 447.5 c 128,-1,9
 202 520 202 520 269 589.5 c 128,-1,10
 336 659 336 659 430 709 c 128,-1,11
 524 759 524 759 612 759 c 0,12,13
 661 759 661 759 661 697 c 1,14,15
 650 617 650 617 601 526.5 c 128,-1,16
 552 436 552 436 485.5 354.5 c 128,-1,17
 419 273 419 273 325 182 c 128,-1,18
 231 91 231 91 146 20 c 128,-1,19
 61 -51 61 -51 -42 -130 c 0,20,21
 -52 -137 -52 -137 -56 -137 c 1,22,-1
 -58 -136 l 1,23,-1
 -58 -134 l 2,24,25
 -58 -130 -58 -130 -48 -122 c 0,26,27
 148 40 148 40 381 298 c 0,28,29
 492 421 492 421 566.5 537 c 128,-1,30
 641 653 641 653 641 719 c 0,31,32
 641 748 641 748 608 748 c 0,33,34
 540 748 540 748 454 695.5 c 128,-1,35
 368 643 368 643 300 572.5 c 128,-1,36
 232 502 232 502 184.5 430 c 128,-1,37
 137 358 137 358 137 321.5 c 128,-1,38
 137 285 137 285 171 285 c 0,39,40
 220 285 220 285 301.5 334.5 c 128,-1,41
 383 384 383 384 460 465 c 0,42,43
 465 470 465 470 469 470 c 128,-1,0
 473 470 473 470 473 466 c 128,-1,1
EndSplineSet
EndChar

StartChar: J
Encoding: 74 74 45
Width: 414
GlyphClass: 2
Flags: W
LayerCount: 2
Fore
SplineSet
-270 -455 m 0,0,1
 -270 -459 -270 -459 -267 -459 c 0,2,3
 -238 -459 -238 -459 -78.5 -284.5 c 128,-1,4
 81 -110 81 -110 264 118 c 1,5,6
 112 17 112 17 -18 -97 c 1,7,8
 -173 -231 -173 -231 -235 -342 c 0,9,10
 -270 -405 -270 -405 -270 -455 c 0,0,1
-291 -481 m 0,11,12
 -301 -481 -301 -481 -301 -468 c 0,13,14
 -301 -401 -301 -401 -245.5 -317 c 128,-1,15
 -190 -233 -190 -233 -98 -150 c 0,16,17
 70 4 70 4 284 142 c 1,18,19
 447 347 447 347 552.5 503.5 c 128,-1,20
 658 660 658 660 658 709 c 0,21,22
 658 724 658 724 653.5 727 c 128,-1,23
 649 730 649 730 632 730 c 0,24,25
 557 730 557 730 449.5 672.5 c 128,-1,26
 342 615 342 615 251 538.5 c 128,-1,27
 160 462 160 462 95 382 c 128,-1,28
 30 302 30 302 30 259 c 0,29,30
 30 222 30 222 78 222 c 128,-1,31
 126 222 126 222 203 262 c 128,-1,32
 280 302 280 302 334 342 c 2,33,-1
 389 382 l 1,34,-1
 398 380 l 1,35,36
 332 322 332 322 242 270 c 0,37,38
 204 248 204 248 155.5 229.5 c 128,-1,39
 107 211 107 211 71 211 c 0,40,41
 12 211 12 211 12 261 c 128,-1,42
 12 311 12 311 69 392.5 c 128,-1,43
 126 474 126 474 212 552.5 c 128,-1,44
 298 631 298 631 413 688 c 128,-1,45
 528 745 528 745 629 745 c 0,46,47
 654 745 654 745 662 735 c 128,-1,48
 670 725 670 725 670 700 c 0,49,50
 670 571 670 571 381 202 c 1,51,52
 451 245 451 245 457.5 245 c 128,-1,53
 464 245 464 245 464 242 c 128,-1,54
 464 239 464 239 460 236 c 1,55,56
 433 224 433 224 366 183 c 1,57,58
 172 -61 172 -61 -35 -271 c 128,-1,59
 -242 -481 -242 -481 -291 -481 c 0,11,12
EndSplineSet
EndChar

StartChar: K
Encoding: 75 75 46
Width: 704
GlyphClass: 2
Flags: W
LayerCount: 2
Fore
SplineSet
49 449 m 1,0,-1
 45 441 l 1,1,2
 45 433 45 433 74 433 c 128,-1,3
 103 433 103 433 138.5 438 c 128,-1,4
 174 443 174 443 247 469.5 c 128,-1,5
 320 496 320 496 373 525 c 0,6,7
 445 564 445 564 466 582 c 1,8,9
 628 749 628 749 664 775 c 0,10,11
 681 788 681 788 692.5 788 c 128,-1,12
 704 788 704 788 704 780 c 0,13,14
 704 759 704 759 630 692.5 c 128,-1,15
 556 626 556 626 515 603 c 1,16,17
 502 587 502 587 442 515 c 128,-1,18
 382 443 382 443 326.5 375 c 128,-1,19
 271 307 271 307 210 230 c 0,20,21
 75 58 75 58 75 15 c 0,22,23
 75 13 75 13 78 13 c 0,24,25
 90 17 90 17 94 17 c 128,-1,26
 98 17 98 17 98 14 c 0,27,28
 98 5 98 5 69 -12 c 128,-1,29
 40 -29 40 -29 26 -29 c 0,30,31
 17 -29 17 -29 17 -12 c 0,32,33
 17 33 17 33 79 124 c 128,-1,34
 141 215 141 215 215 298 c 128,-1,35
 289 381 289 381 356.5 454.5 c 128,-1,36
 424 528 424 528 429 538 c 0,37,38
 429 539 429 539 427 539 c 1,39,40
 282 452 282 452 138 412 c 0,41,42
 82 396 82 396 41.5 396 c 128,-1,43
 1 396 1 396 1 421 c 0,44,45
 1 434 1 434 16.5 445 c 128,-1,46
 32 456 32 456 40.5 456 c 128,-1,47
 49 456 49 456 49 449 c 1,0,-1
479 -18 m 0,48,49
 512 -18 512 -18 560.5 2.5 c 128,-1,50
 609 23 609 23 644 44.5 c 128,-1,51
 679 66 679 66 726.5 96.5 c 128,-1,52
 774 127 774 127 794.5 139.5 c 128,-1,53
 815 152 815 152 815 154 c 128,-1,54
 815 156 815 156 807 156 c 128,-1,55
 799 156 799 156 792 152 c 2,56,-1
 725 110 l 1,57,58
 551 -7 551 -7 480 -7 c 0,59,60
 397 -7 397 -7 397 162 c 0,61,62
 397 267 397 267 425 390 c 1,63,64
 439 354 439 354 489 354 c 128,-1,65
 539 354 539 354 630 404 c 128,-1,66
 721 454 721 454 802 518 c 128,-1,67
 883 582 883 582 943 643.5 c 128,-1,68
 1003 705 1003 705 1003 727 c 0,69,70
 1003 742 1003 742 971 742 c 0,71,72
 957 742 957 742 902 676 c 2,73,-1
 877 646 l 1,74,75
 787 549 787 549 668.5 462.5 c 128,-1,76
 550 376 550 376 484 376 c 0,77,78
 442 376 442 376 431 416 c 1,79,80
 449 484 449 484 459 495 c 1,81,-1
 461 499 l 2,82,83
 461 501 461 501 459 501 c 0,84,85
 445 501 445 501 420.5 457.5 c 128,-1,86
 396 414 396 414 374.5 335 c 128,-1,87
 353 256 353 256 353 173.5 c 128,-1,88
 353 91 353 91 383.5 36.5 c 128,-1,89
 414 -18 414 -18 479 -18 c 0,48,49
EndSplineSet
EndChar

StartChar: L
Encoding: 76 76 47
Width: 624
GlyphClass: 2
Flags: W
LayerCount: 2
Fore
SplineSet
164 -2 m 1,0,1
 103 38 103 38 81 110 c 1,2,3
 41 54 41 54 23.5 -16.5 c 128,-1,4
 6 -87 6 -87 6 -129 c 128,-1,5
 6 -171 6 -171 13 -174 c 1,6,7
 38 -174 38 -174 164 -2 c 1,0,1
107 155 m 2,8,-1
 106 144 l 1,9,10
 123 68 123 68 185 26 c 1,11,12
 213 64 213 64 273 147.5 c 128,-1,13
 333 231 333 231 372 284.5 c 128,-1,14
 411 338 411 338 468 414.5 c 128,-1,15
 525 491 525 491 566.5 540.5 c 128,-1,16
 608 590 608 590 652 638 c 0,17,18
 739 733 739 733 783 733 c 0,19,20
 802 733 802 733 802 702 c 0,21,22
 802 651 802 651 758.5 544.5 c 128,-1,23
 715 438 715 438 657.5 350.5 c 128,-1,24
 600 263 600 263 567 263 c 0,25,26
 547 263 547 263 547 303.5 c 128,-1,27
 547 344 547 344 578 416.5 c 128,-1,28
 609 489 609 489 628 489 c 0,29,30
 635 489 635 489 635 480 c 0,31,32
 635 477 635 477 634 475 c 0,33,34
 610 445 610 445 591 392.5 c 128,-1,35
 572 340 572 340 572 312.5 c 128,-1,36
 572 285 572 285 584 285 c 0,37,38
 607 285 607 285 656 372 c 128,-1,39
 705 459 705 459 744.5 560 c 128,-1,40
 784 661 784 661 784 700 c 0,41,42
 784 717 784 717 775 717 c 0,43,44
 755 717 755 717 667.5 609 c 128,-1,45
 580 501 580 501 430.5 303 c 128,-1,46
 281 105 281 105 207 13 c 1,47,48
 266 -18 266 -18 332 -18 c 128,-1,49
 398 -18 398 -18 471 -6 c 128,-1,50
 544 6 544 6 582 18 c 2,51,-1
 621 31 l 1,52,-1
 624 31 l 2,53,54
 630 31 630 31 630 27 c 0,55,56
 630 20 630 20 623 18 c 0,57,58
 433 -42 433 -42 307 -42 c 0,59,60
 238 -42 238 -42 185 -14 c 1,61,62
 27 -208 27 -208 -9 -208 c 0,63,64
 -26 -208 -26 -208 -26 -147 c 128,-1,65
 -26 -86 -26 -86 4.5 -6.5 c 128,-1,66
 35 73 35 73 65.5 116.5 c 128,-1,67
 96 160 96 160 104 160 c 0,68,69
 107 160 107 160 107 155 c 2,8,-1
EndSplineSet
EndChar

StartChar: M
Encoding: 77 77 48
Width: 709
GlyphClass: 2
Flags: W
LayerCount: 2
Fore
SplineSet
27 5 m 1,0,1
 4 5 4 5 0 17 c 1,2,3
 0 30 0 30 86 133 c 128,-1,4
 172 236 172 236 275 356.5 c 128,-1,5
 378 477 378 477 464 601.5 c 128,-1,6
 550 726 550 726 550 777 c 0,7,8
 550 809 550 809 517 809 c 0,9,10
 463 809 463 809 403 780.5 c 128,-1,11
 343 752 343 752 290.5 706.5 c 128,-1,12
 238 661 238 661 189 605 c 128,-1,13
 140 549 140 549 106 494 c 1,14,15
 29 374 29 374 29 319 c 0,16,17
 29 290 29 290 53 290 c 0,18,19
 86 290 86 290 160 346 c 128,-1,20
 234 402 234 402 291 458 c 2,21,-1
 348 513 l 2,22,23
 350 515 350 515 354.5 515 c 128,-1,24
 359 515 359 515 359 512 c 1,25,-1
 357 508 l 1,26,27
 348 499 348 499 332.5 483 c 128,-1,28
 317 467 317 467 274 427.5 c 128,-1,29
 231 388 231 388 193.5 357.5 c 128,-1,30
 156 327 156 327 113 302 c 128,-1,31
 70 277 70 277 45 277 c 0,32,33
 9 277 9 277 9 320.5 c 128,-1,34
 9 364 9 364 34.5 426.5 c 128,-1,35
 60 489 60 489 108.5 557 c 128,-1,36
 157 625 157 625 217.5 685 c 128,-1,37
 278 745 278 745 357 784 c 128,-1,38
 436 823 436 823 514 823 c 0,39,40
 534 823 534 823 553 808.5 c 128,-1,41
 572 794 572 794 572 764.5 c 128,-1,42
 572 735 572 735 550.5 687 c 128,-1,43
 529 639 529 639 486 575 c 128,-1,44
 443 511 443 511 406.5 459.5 c 128,-1,45
 370 408 370 408 309.5 334 c 128,-1,46
 249 260 249 260 225 231.5 c 128,-1,47
 201 203 201 203 154 147 c 1,48,49
 155 146 155 146 163 152 c 0,50,51
 589 538 589 538 644 587 c 128,-1,52
 699 636 699 636 703.5 641 c 128,-1,53
 708 646 708 646 710 648 c 0,54,55
 718 656 718 656 730.5 656 c 128,-1,56
 743 656 743 656 743 644 c 0,57,58
 743 614 743 614 655.5 492 c 128,-1,59
 568 370 568 370 481 259 c 128,-1,60
 394 148 394 148 394 144 c 1,61,-1
 395 143 l 1,62,63
 456 196 456 196 645.5 372.5 c 128,-1,64
 835 549 835 549 976.5 677 c 128,-1,65
 1118 805 1118 805 1134 805 c 0,66,67
 1145 805 1145 805 1145 791 c 0,68,69
 1145 764 1145 764 1099.5 695 c 128,-1,70
 1054 626 1054 626 937 478 c 0,71,72
 932 472 932 472 775 284 c 0,73,74
 429 -129 429 -129 429 -193 c 0,75,76
 429 -197 429 -197 435.5 -197 c 128,-1,77
 442 -197 442 -197 485.5 -174.5 c 128,-1,78
 529 -152 529 -152 546 -137 c 128,-1,79
 563 -122 563 -122 566 -122 c 128,-1,80
 569 -122 569 -122 569 -126.5 c 128,-1,81
 569 -131 569 -131 567 -133 c 0,82,83
 556 -147 556 -147 499.5 -179 c 128,-1,84
 443 -211 443 -211 428 -211 c 128,-1,85
 413 -211 413 -211 413 -198 c 0,86,87
 413 -135 413 -135 520 24 c 0,88,89
 688 275 688 275 927 539 c 0,90,91
 957 573 957 573 1038 673 c 128,-1,92
 1119 773 1119 773 1119 781 c 0,93,94
 1119 783 1119 783 1118 783 c 0,95,96
 1112 783 1112 783 748.5 449 c 128,-1,97
 385 115 385 115 278 13 c 0,98,99
 266 1 266 1 255 1 c 0,100,101
 226 1 226 1 226 8 c 128,-1,102
 226 15 226 15 240 32.5 c 128,-1,103
 254 50 254 50 390 216 c 0,104,105
 710 607 710 607 710 626 c 1,106,-1
 709 627 l 1,107,108
 700 623 700 623 447 393 c 1,109,110
 77 59 77 59 27 5 c 1,0,1
EndSplineSet
EndChar

StartChar: N
Encoding: 78 78 49
Width: 506
GlyphClass: 2
Flags: W
LayerCount: 2
Fore
SplineSet
41 255 m 0,0,1
 0 255 0 255 0 300 c 0,2,3
 0 397 0 397 84.5 512 c 128,-1,4
 169 627 169 627 292.5 706 c 128,-1,5
 416 785 416 785 520 785 c 0,6,7
 545 785 545 785 554.5 774 c 128,-1,8
 564 763 564 763 564 738 c 0,9,10
 564 680 564 680 488 554 c 0,11,12
 362 347 362 347 170 126 c 0,13,14
 167 123 167 123 167 119.5 c 128,-1,15
 167 116 167 116 169 116 c 128,-1,16
 171 116 171 116 177 122 c 0,17,18
 423 347 423 347 452 376 c 128,-1,19
 481 405 481 405 705.5 607.5 c 128,-1,20
 930 810 930 810 940 810 c 128,-1,21
 950 810 950 810 950 799 c 0,22,23
 950 763 950 763 836 613.5 c 128,-1,24
 722 464 722 464 584.5 302 c 128,-1,25
 447 140 447 140 333 -11.5 c 128,-1,26
 219 -163 219 -163 219 -202 c 0,27,28
 219 -206 219 -206 223.5 -206 c 128,-1,29
 228 -206 228 -206 245 -195 c 128,-1,30
 262 -184 262 -184 264 -184 c 0,31,32
 272 -184 272 -184 272 -189 c 0,33,34
 272 -191 272 -191 268 -194 c 0,35,36
 227 -221 227 -221 214 -221 c 0,37,38
 203 -221 203 -221 203 -208 c 0,39,40
 203 -155 203 -155 277.5 -36 c 128,-1,41
 352 83 352 83 458 216.5 c 128,-1,42
 564 350 564 350 670.5 476.5 c 128,-1,43
 777 603 777 603 851.5 692 c 128,-1,44
 926 781 926 781 926 790 c 0,45,46
 926 791 926 791 924 791 c 128,-1,47
 922 791 922 791 860 735 c 128,-1,48
 798 679 798 679 707 595.5 c 128,-1,49
 616 512 616 512 527 430.5 c 128,-1,50
 438 349 438 349 367 284 c 128,-1,51
 296 219 296 219 170 100.5 c 128,-1,52
 44 -18 44 -18 43 -19 c 0,53,54
 33 -29 33 -29 19.5 -29 c 128,-1,55
 6 -29 6 -29 6 -24.5 c 128,-1,56
 6 -20 6 -20 28 9 c 128,-1,57
 50 38 50 38 153.5 166 c 128,-1,58
 257 294 257 294 337 395.5 c 128,-1,59
 417 497 417 497 485 602 c 128,-1,60
 553 707 553 707 553 746 c 0,61,62
 553 762 553 762 545.5 768.5 c 128,-1,63
 538 775 538 775 520 775 c 0,64,65
 458 775 458 775 384.5 736 c 128,-1,66
 311 697 311 697 247 638.5 c 128,-1,67
 183 580 183 580 129 514.5 c 128,-1,68
 75 449 75 449 43.5 390 c 128,-1,69
 12 331 12 331 12 297.5 c 128,-1,70
 12 264 12 264 42.5 264 c 128,-1,71
 73 264 73 264 112.5 284 c 128,-1,72
 152 304 152 304 187 332 c 0,73,74
 260 390 260 390 301 436 c 2,75,-1
 319 456 l 2,76,77
 324 462 324 462 327.5 462 c 128,-1,78
 331 462 331 462 331 457.5 c 128,-1,79
 331 453 331 453 325 446.5 c 128,-1,80
 319 440 319 440 307.5 427 c 128,-1,81
 296 414 296 414 261 381 c 128,-1,82
 226 348 226 348 193 322.5 c 128,-1,83
 160 297 160 297 117.5 276 c 128,-1,84
 75 255 75 255 41 255 c 0,0,1
EndSplineSet
EndChar

StartChar: O
Encoding: 79 79 50
Width: 441
GlyphClass: 2
Flags: W
LayerCount: 2
Fore
SplineSet
719 648 m 1,0,1
 707 555 707 555 643.5 438.5 c 128,-1,2
 580 322 580 322 489.5 219 c 128,-1,3
 399 116 399 116 280 45 c 128,-1,4
 161 -26 161 -26 51 -26 c 0,5,6
 -17 -26 -17 -26 -17 65 c 0,7,8
 -17 127 -17 127 15 213 c 128,-1,9
 47 299 47 299 109 390.5 c 128,-1,10
 171 482 171 482 251 560 c 128,-1,11
 331 638 331 638 439.5 688.5 c 128,-1,12
 548 739 548 739 660 739 c 0,13,14
 692 739 692 739 692 710 c 0,15,16
 692 655 692 655 609 569 c 128,-1,17
 526 483 526 483 452 482 c 1,18,19
 434 486 434 486 434 493.5 c 128,-1,20
 434 501 434 501 446.5 516 c 128,-1,21
 459 531 459 531 464.5 531 c 128,-1,22
 470 531 470 531 470 527.5 c 128,-1,23
 470 524 470 524 466 520 c 128,-1,24
 462 516 462 516 462 512 c 0,25,26
 462 510 462 510 466 510 c 0,27,28
 493 510 493 510 544.5 550 c 128,-1,29
 596 590 596 590 637 639 c 128,-1,30
 678 688 678 688 678 712 c 0,31,32
 678 727 678 727 660 727 c 0,33,34
 554 727 554 727 451 673 c 128,-1,35
 348 619 348 619 272.5 537 c 128,-1,36
 197 455 197 455 138 360.5 c 128,-1,37
 79 266 79 266 49 182 c 128,-1,38
 19 98 19 98 19 41 c 128,-1,39
 19 -16 19 -16 56 -16 c 0,40,41
 115 -16 115 -16 211.5 40.5 c 128,-1,42
 308 97 308 97 405.5 183.5 c 128,-1,43
 503 270 503 270 586 386 c 128,-1,44
 669 502 669 502 697 608 c 0,45,46
 709 656 709 656 712 656 c 0,47,48
 719 656 719 656 719 648 c 1,0,1
EndSplineSet
EndChar

StartChar: P
Encoding: 80 80 51
Width: 361
GlyphClass: 2
Flags: W
LayerCount: 2
Fore
SplineSet
437 422 m 2,0,1
 441 432 441 432 445.5 432 c 128,-1,2
 450 432 450 432 449.5 424.5 c 128,-1,3
 449 417 449 417 446 402 c 0,4,5
 437 367 437 367 437 344 c 0,6,7
 437 302 437 302 469 302 c 0,8,9
 521 302 521 302 624.5 381.5 c 128,-1,10
 728 461 728 461 811.5 561.5 c 128,-1,11
 895 662 895 662 895 715 c 0,12,13
 895 756 895 756 840 756 c 0,14,15
 762 756 762 756 651 698 c 128,-1,16
 540 640 540 640 431 549.5 c 128,-1,17
 322 459 322 459 226.5 357.5 c 128,-1,18
 131 256 131 256 71.5 158.5 c 128,-1,19
 12 61 12 61 12 0 c 0,20,21
 12 -8 12 -8 19 -8 c 0,22,23
 48 -8 48 -8 146 108.5 c 128,-1,24
 244 225 244 225 334.5 355.5 c 128,-1,25
 425 486 425 486 442 530 c 0,26,27
 445 537 445 537 448 537 c 0,28,29
 459 537 459 537 459 509.5 c 128,-1,30
 459 482 459 482 454 475 c 1,31,32
 443 445 443 445 410 394 c 0,33,34
 333 273 333 273 191.5 126 c 128,-1,35
 50 -21 50 -21 16 -21 c 0,36,37
 0 -21 0 -21 0 0 c 0,38,39
 0 78 0 78 94 210.5 c 128,-1,40
 188 343 188 343 318.5 465.5 c 128,-1,41
 449 588 449 588 597.5 678 c 128,-1,42
 746 768 746 768 844 768 c 0,43,44
 928 768 928 768 928 708 c 0,45,46
 928 661 928 661 876 587.5 c 128,-1,47
 824 514 824 514 751 447 c 128,-1,48
 678 380 678 380 592 332 c 128,-1,49
 506 284 506 284 444 284 c 0,50,51
 410 284 410 284 410 324 c 0,52,53
 410 358 410 358 430 406 c 2,54,-1
 437 422 l 2,0,1
EndSplineSet
EndChar

StartChar: Q
Encoding: 81 81 52
Width: 469
GlyphClass: 2
Flags: W
LayerCount: 2
Fore
SplineSet
77 6 m 0,0,1
 8 6 8 6 -96.5 -56.5 c 128,-1,2
 -201 -119 -201 -119 -201 -170 c 0,3,4
 -201 -174 -201 -174 -197 -174 c 0,5,6
 -181 -174 -181 -174 -95.5 -122.5 c 128,-1,7
 -10 -71 -10 -71 96 5 c 1,8,9
 90 6 90 6 77 6 c 0,0,1
158 214 m 0,10,11
 125 214 125 214 125 259 c 0,12,13
 125 357 125 357 202.5 458.5 c 128,-1,14
 280 560 280 560 394 624 c 128,-1,15
 508 688 508 688 610 688 c 0,16,17
 646 688 646 688 666 669 c 128,-1,18
 686 650 686 650 686 595.5 c 128,-1,19
 686 541 686 541 641.5 467.5 c 128,-1,20
 597 394 597 394 522 317 c 0,21,22
 372 164 372 164 176 25 c 1,23,24
 214 17 214 17 308 -25.5 c 128,-1,25
 402 -68 402 -68 452 -68 c 128,-1,26
 502 -68 502 -68 556 -47.5 c 128,-1,27
 610 -27 610 -27 640 -6 c 1,28,-1
 671 14 l 2,29,30
 676 18 676 18 681.5 18 c 128,-1,31
 687 18 687 18 687 14.5 c 128,-1,32
 687 11 687 11 682.5 7 c 128,-1,33
 678 3 678 3 669.5 -3 c 128,-1,34
 661 -9 661 -9 633 -25 c 128,-1,35
 605 -41 605 -41 576 -54 c 0,36,37
 502 -86 502 -86 428 -86 c 128,-1,38
 354 -86 354 -86 266 -46.5 c 128,-1,39
 178 -7 178 -7 140 0 c 1,40,41
 21 -83 21 -83 -76.5 -136 c 128,-1,42
 -174 -189 -174 -189 -208 -189 c 0,43,44
 -225 -189 -225 -189 -225 -171 c 0,45,46
 -225 -142 -225 -142 -168 -94 c 128,-1,47
 -111 -46 -111 -46 -27 -7.5 c 128,-1,48
 57 31 57 31 122 31 c 2,49,-1
 131 31 l 1,50,51
 329 175 329 175 482 332 c 0,52,53
 562 414 562 414 609 492.5 c 128,-1,54
 656 571 656 571 656 632 c 0,55,56
 656 658 656 658 646 668 c 128,-1,57
 636 678 636 678 610 678 c 0,58,59
 533 678 533 678 420.5 605 c 128,-1,60
 308 532 308 532 223.5 429.5 c 128,-1,61
 139 327 139 327 139 253 c 0,62,63
 139 225 139 225 168 225 c 0,64,65
 220 225 220 225 294 273.5 c 128,-1,66
 368 322 368 322 416 370 c 2,67,-1
 465 418 l 2,68,69
 469 422 469 422 474.5 422 c 128,-1,70
 480 422 480 422 480 418.5 c 128,-1,71
 480 415 480 415 475 409.5 c 128,-1,72
 470 404 470 404 457.5 390.5 c 128,-1,73
 445 377 445 377 407 343 c 128,-1,74
 369 309 369 309 332.5 283 c 128,-1,75
 296 257 296 257 247.5 235.5 c 128,-1,76
 199 214 199 214 158 214 c 0,10,11
EndSplineSet
EndChar

StartChar: R
Encoding: 82 82 53
Width: 654
GlyphClass: 2
Flags: W
LayerCount: 2
Fore
SplineSet
407 392 m 2,0,-1
 403 285 l 1,1,2
 413 272 413 272 435 272 c 0,3,4
 487 272 487 272 590.5 351.5 c 128,-1,5
 694 431 694 431 777.5 531.5 c 128,-1,6
 861 632 861 632 861 685 c 0,7,8
 861 726 861 726 806 726 c 0,9,10
 728 726 728 726 617 668 c 128,-1,11
 506 610 506 610 397 519.5 c 128,-1,12
 288 429 288 429 192.5 327.5 c 128,-1,13
 97 226 97 226 37.5 128.5 c 128,-1,14
 -22 31 -22 31 -22 -30 c 0,15,16
 -22 -38 -22 -38 -15 -38 c 0,17,18
 14 -38 14 -38 112 78.5 c 128,-1,19
 210 195 210 195 300.5 325.5 c 128,-1,20
 391 456 391 456 408 500 c 0,21,22
 411 507 411 507 414 507 c 0,23,24
 425 507 425 507 425 479.5 c 128,-1,25
 425 452 425 452 420 445 c 1,26,27
 409 415 409 415 376 364 c 0,28,29
 299 243 299 243 157.5 96 c 128,-1,30
 16 -51 16 -51 -18 -51 c 0,31,32
 -34 -51 -34 -51 -34 -30 c 0,33,34
 -34 48 -34 48 60 180.5 c 128,-1,35
 154 313 154 313 284.5 435.5 c 128,-1,36
 415 558 415 558 563.5 648 c 128,-1,37
 712 738 712 738 810 738 c 0,38,39
 894 738 894 738 894 678 c 0,40,41
 894 631 894 631 842 557.5 c 128,-1,42
 790 484 790 484 717 417 c 128,-1,43
 644 350 644 350 558 302 c 128,-1,44
 472 254 472 254 410 254 c 0,45,46
 405 254 405 254 402 255 c 1,47,48
 412 -41 412 -41 499 -41 c 0,49,50
 529 -41 529 -41 575.5 -22.5 c 128,-1,51
 622 -4 622 -4 654 15 c 2,52,-1
 686 34 l 2,53,54
 694 39 694 39 698 39 c 128,-1,55
 702 39 702 39 702 35.5 c 128,-1,56
 702 32 702 32 695 26 c 1,57,58
 681 17 681 17 659 3 c 128,-1,59
 637 -11 637 -11 582 -34.5 c 128,-1,60
 527 -58 527 -58 491.5 -58 c 128,-1,61
 456 -58 456 -58 432 -35.5 c 128,-1,62
 408 -13 408 -13 396 26 c 0,63,64
 373 96 373 96 373 191.5 c 128,-1,65
 373 287 373 287 384.5 342 c 128,-1,66
 396 397 396 397 405 397 c 0,67,68
 407 397 407 397 407 392 c 2,0,-1
EndSplineSet
EndChar

StartChar: S
Encoding: 83 83 54
Width: 563
GlyphClass: 2
Flags: W
LayerCount: 2
Fore
SplineSet
314 -49 m 0,0,1
 352 -49 352 -49 398 12 c 128,-1,2
 444 73 444 73 483 162.5 c 128,-1,3
 522 252 522 252 555.5 347 c 128,-1,4
 589 442 589 442 608 516.5 c 128,-1,5
 627 591 627 591 627 605 c 128,-1,6
 627 619 627 619 625 619 c 0,7,8
 616 619 616 619 511 508.5 c 128,-1,9
 406 398 406 398 344 336 c 128,-1,10
 282 274 282 274 199 198 c 0,11,12
 27 42 27 42 -193 -79 c 0,13,14
 -199 -82 -199 -82 -205 -82 c 128,-1,15
 -211 -82 -211 -82 -211 -78 c 128,-1,16
 -211 -74 -211 -74 -204 -71 c 0,17,18
 -56 5 -56 5 89 124 c 0,19,20
 238 247 238 247 330 340.5 c 128,-1,21
 422 434 422 434 470 485 c 128,-1,22
 518 536 518 536 584.5 607 c 128,-1,23
 651 678 651 678 686 715 c 0,24,25
 692 721 692 721 696 721 c 128,-1,26
 700 721 700 721 700 715 c 0,27,28
 700 684 700 684 681 599 c 128,-1,29
 662 514 662 514 625 401.5 c 128,-1,30
 588 289 588 289 542 185 c 128,-1,31
 496 81 496 81 433 9.5 c 128,-1,32
 370 -62 370 -62 307 -62 c 0,33,34
 268 -62 268 -62 245.5 -21.5 c 128,-1,35
 223 19 223 19 223 84.5 c 128,-1,36
 223 150 223 150 255 205 c 0,37,38
 263 219 263 219 269 219 c 0,39,40
 274 219 274 219 276 211 c 1,41,42
 266 194 266 194 258 152.5 c 128,-1,43
 250 111 250 111 250 69 c 0,44,45
 250 -49 250 -49 314 -49 c 0,0,1
EndSplineSet
EndChar

StartChar: T
Encoding: 84 84 55
Width: 312
GlyphClass: 2
Flags: W
LayerCount: 2
Fore
SplineSet
784 733 m 0,0,1
 784 742 784 742 774 742 c 0,2,3
 735 742 735 742 592 592 c 1,4,5
 660 604 660 604 722 655 c 128,-1,6
 784 706 784 706 784 733 c 0,0,1
196 645 m 0,7,8
 196 618 196 618 140.5 559.5 c 128,-1,9
 85 501 85 501 46 501 c 0,10,11
 18 501 18 501 18 526 c 0,12,13
 18 575 18 575 95 641.5 c 128,-1,14
 172 708 172 708 266 708 c 0,15,16
 298 708 298 708 346 681.5 c 128,-1,17
 394 655 394 655 449.5 625 c 128,-1,18
 505 595 505 595 550 590 c 1,19,20
 718 756 718 756 778 756 c 0,21,22
 802 756 802 756 802 738 c 0,23,24
 802 703 802 703 732.5 648.5 c 128,-1,25
 663 594 663 594 582 581 c 1,26,27
 428 417 428 417 249.5 187.5 c 128,-1,28
 71 -42 71 -42 71 -72 c 0,29,30
 71 -75 71 -75 73.5 -75 c 128,-1,31
 76 -75 76 -75 79.5 -73 c 128,-1,32
 83 -71 83 -71 87.5 -68.5 c 128,-1,33
 92 -66 92 -66 95 -64 c 128,-1,34
 98 -62 98 -62 99 -62 c 128,-1,35
 100 -62 100 -62 100 -65 c 0,36,37
 100 -76 100 -76 65.5 -101 c 128,-1,38
 31 -126 31 -126 18 -126 c 0,39,40
 2 -126 2 -126 2 -108 c 0,41,42
 2 -61 2 -61 182.5 171 c 128,-1,43
 363 403 363 403 537 578 c 1,44,45
 479 579 479 579 432.5 596.5 c 128,-1,46
 386 614 386 614 361 634 c 0,47,48
 293 688 293 688 228.5 688 c 128,-1,49
 164 688 164 688 106 628 c 128,-1,50
 48 568 48 568 48 530 c 0,51,52
 48 518 48 518 58 518 c 0,53,54
 86 518 86 518 126.5 561 c 128,-1,55
 167 604 167 604 183 642 c 1,56,57
 188 651 188 651 190 651 c 0,58,59
 196 651 196 651 196 645 c 0,7,8
EndSplineSet
EndChar

StartChar: U
Encoding: 85 85 56
Width: 693
GlyphClass: 2
Flags: W
LayerCount: 2
Fore
SplineSet
419 -56 m 0,0,1
 466 -56 466 -56 713 110 c 1,2,-1
 780 152 l 2,3,4
 787 156 787 156 795 156 c 128,-1,5
 803 156 803 156 803 154 c 128,-1,6
 803 152 803 152 800 150 c 2,7,-1
 728 106 l 2,8,9
 713 96 713 96 668 65.5 c 128,-1,10
 623 35 623 35 595 17 c 128,-1,11
 567 -1 567 -1 529 -24 c 0,12,13
 454 -68 454 -68 412 -68 c 1,14,15
 396 -66 396 -66 396 -39 c 128,-1,16
 396 -12 396 -12 428 49 c 128,-1,17
 460 110 460 110 504.5 174 c 128,-1,18
 549 238 549 238 594 298 c 128,-1,19
 639 358 639 358 668 396.5 c 128,-1,20
 697 435 697 435 695 435 c 0,21,22
 690 435 690 435 608 358.5 c 128,-1,23
 526 282 526 282 427 191 c 128,-1,24
 328 100 328 100 227 23.5 c 128,-1,25
 126 -53 126 -53 88 -53 c 0,26,27
 73 -53 73 -53 73 -37 c 0,28,29
 73 37 73 37 241 241 c 0,30,31
 311 326 311 326 381 412 c 128,-1,32
 451 498 451 498 500 579.5 c 128,-1,33
 549 661 549 661 549 711 c 0,34,35
 549 725 549 725 541 733 c 128,-1,36
 533 741 533 741 523.5 743 c 128,-1,37
 514 745 514 745 496 746 c 1,38,39
 441 745 441 745 373 703.5 c 128,-1,40
 305 662 305 662 245 599.5 c 128,-1,41
 185 537 185 537 134.5 469 c 128,-1,42
 84 401 84 401 54 342 c 128,-1,43
 24 283 24 283 24 256.5 c 128,-1,44
 24 230 24 230 43 230 c 0,45,46
 81 230 81 230 149.5 277 c 128,-1,47
 218 324 218 324 268 371 c 2,48,-1
 317 418 l 2,49,50
 323 424 323 424 327 424 c 128,-1,51
 331 424 331 424 331 421.5 c 128,-1,52
 331 419 331 419 325 413 c 2,53,-1
 306 394 l 2,54,55
 293 381 293 381 255 348 c 128,-1,56
 217 315 217 315 183.5 290 c 128,-1,57
 150 265 150 265 111 244 c 128,-1,58
 72 223 72 223 47 223 c 0,59,60
 -2 223 -2 223 -2 274 c 0,61,62
 -2 314 -2 314 27.5 375 c 128,-1,63
 57 436 57 436 108.5 501.5 c 128,-1,64
 160 567 160 567 222 625 c 128,-1,65
 284 683 284 683 358.5 720 c 128,-1,66
 433 757 433 757 497.5 757 c 128,-1,67
 562 757 562 757 562 704 c 0,68,69
 562 633 562 633 513 540 c 128,-1,70
 464 447 464 447 394.5 360.5 c 128,-1,71
 325 274 325 274 255.5 194.5 c 128,-1,72
 186 115 186 115 137 52.5 c 128,-1,73
 88 -10 88 -10 88 -35 c 0,74,75
 88 -40 88 -40 93 -40 c 0,76,77
 135 -40 135 -40 286 83.5 c 128,-1,78
 437 207 437 207 566 330 c 2,79,-1
 696 453 l 1,80,81
 779 536 779 536 838 605.5 c 128,-1,82
 897 675 897 675 902 680 c 1,83,84
 915 699 915 699 926 699 c 128,-1,85
 937 699 937 699 947 695.5 c 128,-1,86
 957 692 957 692 957 688 c 0,87,88
 957 678 957 678 804.5 489.5 c 128,-1,89
 652 301 652 301 648 295.5 c 128,-1,90
 644 290 644 290 610 249 c 128,-1,91
 576 208 576 208 546 169.5 c 128,-1,92
 516 131 516 131 483 86 c 0,93,94
 410 -14 410 -14 410 -46 c 0,95,96
 410 -56 410 -56 419 -56 c 0,0,1
EndSplineSet
EndChar

StartChar: V
Encoding: 86 86 57
Width: 407
GlyphClass: 2
Flags: W
LayerCount: 2
Fore
SplineSet
329 404 m 0,0,1
 286 343 286 343 190.5 275 c 128,-1,2
 95 207 95 207 32 207 c 0,3,4
 15 207 15 207 7.5 216.5 c 128,-1,5
 0 226 0 226 0 248 c 0,6,7
 0 303 0 303 43.5 386.5 c 128,-1,8
 87 470 87 470 154 550 c 128,-1,9
 221 630 221 630 315.5 687.5 c 128,-1,10
 410 745 410 745 499 745 c 0,11,12
 560 745 560 745 560 670 c 0,13,14
 560 620 560 620 508 519 c 128,-1,15
 456 418 456 418 393 325.5 c 128,-1,16
 330 233 330 233 278 157.5 c 128,-1,17
 226 82 226 82 226 78 c 1,18,19
 250 106 250 106 340.5 197 c 128,-1,20
 431 288 431 288 501.5 354 c 128,-1,21
 572 420 572 420 666.5 500.5 c 128,-1,22
 761 581 761 581 842 639 c 128,-1,23
 923 697 923 697 1005 736.5 c 128,-1,24
 1087 776 1087 776 1143 776 c 0,25,26
 1162 776 1162 776 1162 768 c 0,27,28
 1162 758 1162 758 1106.5 722.5 c 128,-1,29
 1051 687 1051 687 1047 687 c 128,-1,30
 1043 687 1043 687 1043 690 c 128,-1,31
 1043 693 1043 693 1050.5 701 c 128,-1,32
 1058 709 1058 709 1058 711 c 128,-1,33
 1058 713 1058 713 1055 713 c 0,34,35
 994 713 994 713 826 595 c 128,-1,36
 658 477 658 477 461.5 297 c 128,-1,37
 265 117 265 117 132 -44 c 0,38,39
 111 -70 111 -70 65 -70 c 0,40,41
 57 -70 57 -70 57 -67 c 128,-1,42
 57 -64 57 -64 69 -53 c 128,-1,43
 81 -42 81 -42 136 30 c 128,-1,44
 191 102 191 102 207.5 128.5 c 128,-1,45
 224 155 224 155 285 244 c 128,-1,46
 346 333 346 333 389.5 400 c 128,-1,47
 433 467 433 467 479.5 557 c 128,-1,48
 526 647 526 647 536 703 c 1,49,50
 534 737 534 737 497 737 c 0,51,52
 443 737 443 737 358.5 682 c 128,-1,53
 274 627 274 627 198 551 c 128,-1,54
 122 475 122 475 67 388.5 c 128,-1,55
 12 302 12 302 12 246 c 0,56,57
 12 217 12 217 37 217 c 0,58,59
 96 217 96 217 173.5 273.5 c 128,-1,60
 251 330 251 330 321 412 c 0,61,62
 326 418 326 418 330 418 c 128,-1,63
 334 418 334 418 334 414 c 128,-1,64
 334 410 334 410 329 404 c 0,0,1
EndSplineSet
EndChar

StartChar: W
Encoding: 87 87 58
Width: 646
GlyphClass: 2
Flags: W
LayerCount: 2
Fore
SplineSet
350 -62 m 2,0,-1
 648 457 l 1,1,2
 648 460 648 460 645 460 c 1,3,4
 358 196 358 196 254 74 c 0,5,6
 240 58 240 58 184.5 3 c 128,-1,7
 129 -52 129 -52 117.5 -61 c 128,-1,8
 106 -70 106 -70 77 -75 c 1,9,10
 71 -75 71 -75 71 -68 c 128,-1,11
 71 -61 71 -61 150.5 34.5 c 128,-1,12
 230 130 230 130 325 246.5 c 128,-1,13
 420 363 420 363 499.5 495 c 128,-1,14
 579 627 579 627 579 699 c 0,15,16
 579 741 579 741 536 741 c 0,17,18
 463 741 463 741 369.5 682 c 128,-1,19
 276 623 276 623 201.5 544 c 128,-1,20
 127 465 127 465 75 383.5 c 128,-1,21
 23 302 23 302 23 257 c 0,22,23
 23 229 23 229 56 229 c 128,-1,24
 89 229 89 229 132.5 251 c 128,-1,25
 176 273 176 273 215 305 c 0,26,27
 294 370 294 370 344 423 c 1,28,-1
 364 445 l 2,29,30
 368 448 368 448 371 448 c 128,-1,31
 374 448 374 448 374 442 c 1,32,33
 249 301 249 301 130 240 c 0,34,35
 82 216 82 216 45 216 c 0,36,37
 0 216 0 216 0 266 c 0,38,39
 0 306 0 306 28.5 367 c 128,-1,40
 57 428 57 428 109.5 493.5 c 128,-1,41
 162 559 162 559 226.5 616.5 c 128,-1,42
 291 674 291 674 372.5 711.5 c 128,-1,43
 454 749 454 749 532 749 c 0,44,45
 601 749 601 749 601 681 c 0,46,47
 601 633 601 633 568 558 c 128,-1,48
 535 483 535 483 488 410 c 0,49,50
 395 265 395 265 315 166 c 1,51,-1
 282 126 l 1,52,-1
 732 564 l 2,53,54
 759 589 759 589 762 589 c 0,55,56
 769 589 769 589 769 580.5 c 128,-1,57
 769 572 769 572 750 552 c 1,58,59
 586 292 586 292 468 79 c 1,60,-1
 465 68 l 1,61,62
 540 157 540 157 691 304 c 128,-1,63
 842 451 842 451 946 543 c 128,-1,64
 1050 635 1050 635 1150 701 c 128,-1,65
 1250 767 1250 767 1301 767 c 0,66,67
 1316 767 1316 767 1316 751 c 0,68,69
 1316 747 1316 747 1309.5 743 c 128,-1,70
 1303 739 1303 739 1269 714 c 0,71,72
 1170 644 1170 644 1169 645 c 1,73,74
 1166 645 1166 645 1166 647 c 2,75,-1
 1168 653 l 1,76,77
 1168 657 1168 657 1163 657 c 0,78,79
 1124 657 1124 657 1010.5 568 c 128,-1,80
 897 479 897 479 771.5 358 c 128,-1,81
 646 237 646 237 530.5 115 c 128,-1,82
 415 -7 415 -7 366 -73 c 0,83,84
 357 -84 357 -84 350 -84 c 128,-1,85
 343 -84 343 -84 343 -79.5 c 128,-1,86
 343 -75 343 -75 350 -62 c 2,0,-1
EndSplineSet
EndChar

StartChar: X
Encoding: 88 88 59
Width: 811
GlyphClass: 2
Flags: W
LayerCount: 2
Fore
SplineSet
941 701 m 0,0,1
 941 695 941 695 929 681.5 c 128,-1,2
 917 668 917 668 893 641.5 c 128,-1,3
 869 615 869 615 835 581.5 c 128,-1,4
 801 548 801 548 780 527 c 128,-1,5
 759 506 759 506 714 463.5 c 128,-1,6
 669 421 669 421 655 408 c 128,-1,7
 641 395 641 395 588.5 346.5 c 128,-1,8
 536 298 536 298 531 293 c 1,9,10
 523 175 523 175 523 88 c 0,11,12
 523 -13 523 -13 589 -13 c 0,13,14
 666 -13 666 -13 830 110 c 1,15,-1
 897 152 l 2,16,17
 904 156 904 156 912 156 c 128,-1,18
 920 156 920 156 920 154 c 128,-1,19
 920 152 920 152 917 150 c 2,20,-1
 845 106 l 1,21,22
 776 57 776 57 737 31 c 128,-1,23
 698 5 698 5 650.5 -18 c 128,-1,24
 603 -41 603 -41 572 -41 c 0,25,26
 482 -41 482 -41 482 146 c 0,27,28
 482 178 482 178 484 250 c 1,29,30
 353 128 353 128 240 32 c 1,31,32
 92 -92 92 -92 72 -92 c 0,33,34
 69 -92 69 -92 69 -90 c 0,35,36
 69 -79 69 -79 83 -71 c 0,37,38
 84 -70 84 -70 99 -60 c 0,39,40
 143 -29 143 -29 183 4 c 0,41,42
 337 129 337 129 485 269 c 1,43,44
 487 302 487 302 491 366 c 0,45,46
 499 494 499 494 499 566 c 0,47,48
 499 753 499 753 410 753 c 0,49,50
 361 753 361 753 291 694.5 c 128,-1,51
 221 636 221 636 162 558 c 128,-1,52
 103 480 103 480 61 398.5 c 128,-1,53
 19 317 19 317 19 273 c 0,54,55
 19 239 19 239 51 239 c 0,56,57
 109 239 109 239 215 331 c 128,-1,58
 321 423 321 423 378 519 c 0,59,60
 384 529 384 529 388 529 c 128,-1,61
 392 529 392 529 392 522 c 128,-1,62
 392 515 392 515 389 509 c 0,63,64
 348 450 348 450 258 356 c 0,65,66
 208 303 208 303 150.5 266 c 128,-1,67
 93 229 93 229 49 229 c 0,68,69
 -6 229 -6 229 -6 288 c 0,70,71
 -6 371 -6 371 62 486.5 c 128,-1,72
 130 602 130 602 228 687.5 c 128,-1,73
 326 773 326 773 403 773 c 0,74,75
 538 773 538 773 538 502 c 0,76,77
 538 440 538 440 532 314 c 1,78,79
 695 472 695 472 902 704 c 0,80,81
 912 715 912 715 926.5 715 c 128,-1,82
 941 715 941 715 941 701 c 0,0,1
EndSplineSet
EndChar

StartChar: Y
Encoding: 89 89 60
Width: 615
GlyphClass: 2
Flags: W
LayerCount: 2
Fore
SplineSet
-110 -466 m 0,0,1
 -40 -465 -40 -465 342 11 c 1,2,3
 148 -124 148 -124 18 -251 c 128,-1,4
 -112 -378 -112 -378 -112 -463 c 0,5,6
 -112 -466 -112 -466 -110 -466 c 0,0,1
33 405 m 1,7,-1
 27 396 l 1,8,9
 27 392 27 392 34 392 c 0,10,11
 87 392 87 392 148 408 c 128,-1,12
 209 424 209 424 258 446 c 0,13,14
 360 493 360 493 412 530 c 2,15,-1
 434 546 l 1,16,-1
 446 558 l 2,17,18
 458 571 458 571 475 589 c 128,-1,19
 492 607 492 607 514 629.5 c 128,-1,20
 536 652 536 652 556 672 c 0,21,22
 590 708 590 708 623 736.5 c 128,-1,23
 656 765 656 765 673 765 c 0,24,25
 679 765 679 765 684.5 761 c 128,-1,26
 690 757 690 757 690 749.5 c 128,-1,27
 690 742 690 742 651.5 702.5 c 128,-1,28
 613 663 613 663 559.5 611.5 c 128,-1,29
 506 560 506 560 473 523 c 128,-1,30
 440 486 440 486 390.5 417 c 128,-1,31
 341 348 341 348 341 315 c 0,32,33
 341 308 341 308 351 308 c 0,34,35
 451 308 451 308 728 520 c 1,36,37
 812 632 812 632 844 667 c 128,-1,38
 876 702 876 702 901.5 724 c 128,-1,39
 927 746 927 746 940.5 753 c 128,-1,40
 954 760 954 760 961 760 c 128,-1,41
 968 760 968 760 973 755 c 128,-1,42
 978 750 978 750 978 746 c 128,-1,43
 978 742 978 742 971 732 c 0,44,45
 948 696 948 696 894 652 c 1,46,47
 886 644 886 644 793 526.5 c 128,-1,48
 700 409 700 409 681 385 c 1,49,50
 601 276 601 276 467 109 c 1,51,52
 694 253 694 253 710 253 c 0,53,54
 715 253 715 253 715 248 c 128,-1,55
 715 243 715 243 707 238 c 0,56,57
 610 189 610 189 445 81 c 1,58,59
 323 -69 323 -69 217.5 -188.5 c 128,-1,60
 112 -308 112 -308 9 -402.5 c 128,-1,61
 -94 -497 -94 -497 -136 -497 c 0,62,63
 -141 -497 -141 -497 -146 -490.5 c 128,-1,64
 -151 -484 -151 -484 -151 -479 c 0,65,66
 -151 -428 -151 -428 -105 -360.5 c 128,-1,67
 -59 -293 -59 -293 20 -222 c 0,68,69
 164 -92 164 -92 369 45 c 1,70,71
 557 282 557 282 693 471 c 1,72,73
 430 293 430 293 346 293 c 0,74,75
 320 293 320 293 320 319 c 0,76,77
 320 365 320 365 384 470 c 1,78,-1
 406 505 l 1,79,80
 406 507 406 507 403 507 c 1,81,-1
 376 490 l 1,82,83
 358 480 358 480 306 454 c 128,-1,84
 254 428 254 428 204.5 408.5 c 128,-1,85
 155 389 155 389 90 372.5 c 128,-1,86
 25 356 25 356 -27 356 c 0,87,88
 -45 356 -45 356 -45 367 c 0,89,90
 -45 384 -45 384 -16 397 c 128,-1,91
 13 410 13 410 23 410 c 128,-1,92
 33 410 33 410 33 405 c 1,7,-1
EndSplineSet
EndChar

StartChar: Z
Encoding: 90 90 61
Width: 687
GlyphClass: 2
Flags: W
LayerCount: 2
Fore
SplineSet
56 -102 m 0,0,1
 61 -102 61 -102 147 -18 c 1,2,3
 80 21 80 21 35 108 c 1,4,5
 24 108 24 108 24 42 c 0,6,7
 24 -102 24 -102 56 -102 c 0,0,1
46 176 m 1,8,9
 51 187 51 187 56.5 187 c 128,-1,10
 62 187 62 187 62 169 c 128,-1,11
 62 151 62 151 89.5 97 c 128,-1,12
 117 43 117 43 173 7 c 1,13,14
 334 166 334 166 549 386.5 c 128,-1,15
 764 607 764 607 764 616 c 0,16,17
 764 617 764 617 763 617 c 0,18,19
 690 576 690 576 648.5 576 c 128,-1,20
 607 576 607 576 577 591 c 128,-1,21
 547 606 547 606 530 624 c 1,22,23
 471 668 471 668 440 673 c 1,24,25
 396 673 396 673 354.5 647 c 128,-1,26
 313 621 313 621 286.5 585 c 128,-1,27
 260 549 260 549 244 514 c 128,-1,28
 228 479 228 479 228 461.5 c 128,-1,29
 228 444 228 444 238 444 c 0,30,31
 260 444 260 444 317.5 493.5 c 128,-1,32
 375 543 375 543 398 596 c 0,33,34
 402 606 402 606 407 606 c 128,-1,35
 412 606 412 606 412 599.5 c 128,-1,36
 412 593 412 593 411 591 c 0,37,38
 394 546 394 546 326 486 c 128,-1,39
 258 426 258 426 213 426 c 0,40,41
 196 426 196 426 196 451 c 128,-1,42
 196 476 196 476 216 516 c 128,-1,43
 236 556 236 556 270 596.5 c 128,-1,44
 304 637 304 637 359 665.5 c 128,-1,45
 414 694 414 694 474 694 c 0,46,47
 519 694 519 694 568 646 c 0,48,49
 586 629 586 629 614 614 c 128,-1,50
 642 599 642 599 670.5 599 c 128,-1,51
 699 599 699 599 740 620 c 0,52,53
 805 654 805 654 837 686 c 0,54,55
 842 691 842 691 848 691 c 128,-1,56
 854 691 854 691 865 685.5 c 128,-1,57
 876 680 876 680 876 673 c 128,-1,58
 876 666 876 666 870 660 c 0,59,60
 449 231 449 231 191 -3 c 1,61,62
 246 -32 246 -32 319 -32 c 0,63,64
 480 -32 480 -32 707 110 c 2,65,-1
 774 152 l 2,66,67
 781 156 781 156 789 156 c 128,-1,68
 797 156 797 156 797 154 c 128,-1,69
 797 152 797 152 794 150 c 2,70,-1
 722 106 l 1,71,72
 470 -57 470 -57 295 -57 c 0,73,74
 221 -57 221 -57 164 -28 c 1,75,76
 58 -123 58 -123 46 -123 c 0,77,78
 23 -123 23 -123 11.5 -91.5 c 128,-1,79
 0 -60 0 -60 0 -9 c 128,-1,80
 0 42 0 42 13 96 c 128,-1,81
 26 150 26 150 46 176 c 1,8,9
EndSplineSet
EndChar

StartChar: bracketleft
Encoding: 91 91 62
Width: 500
GlyphClass: 2
Flags: W
LayerCount: 2
Fore
SplineSet
727 826 m 2,0,-1
 846 826 l 2,1,2
 851 826 851 826 851 820.5 c 128,-1,3
 851 815 851 815 840.5 803.5 c 128,-1,4
 830 792 830 792 823 792 c 2,5,-1
 730 792 l 2,6,7
 721 792 721 792 715 784 c 2,8,-1
 126 -139 l 2,9,10
 124 -142 124 -142 124 -145 c 128,-1,11
 124 -148 124 -148 130 -148 c 2,12,-1
 224 -148 l 2,13,14
 234 -148 234 -148 234 -154 c 128,-1,15
 234 -160 234 -160 225 -168 c 128,-1,16
 216 -176 216 -176 207 -176 c 2,17,-1
 93 -176 l 2,18,19
 80 -176 80 -176 80 -164 c 0,20,21
 80 -160 80 -160 83 -154 c 2,22,-1
 698 809 l 2,23,24
 710 826 710 826 727 826 c 2,0,-1
EndSplineSet
EndChar

StartChar: backslash
Encoding: 92 92 63
Width: 260
GlyphClass: 2
Flags: W
LayerCount: 2
Fore
SplineSet
159 -136 m 1,0,1
 152 -147 152 -147 145 -147 c 128,-1,2
 138 -147 138 -147 135 -126 c 1,3,4
 135 40 135 40 147 294 c 128,-1,5
 159 548 159 548 172 727 c 128,-1,6
 185 906 185 906 189 912 c 1,7,8
 202 925 202 925 210 925 c 128,-1,9
 218 925 218 925 218 907.5 c 128,-1,10
 218 890 218 890 203 706 c 0,11,12
 158 154 158 154 158 -75 c 0,13,14
 158 -118 158 -118 159 -136 c 1,0,1
EndSplineSet
EndChar

StartChar: bracketright
Encoding: 93 93 64
Width: 335
GlyphClass: 2
Flags: W
LayerCount: 2
Fore
SplineSet
-40 -176 m 2,0,-1
 -159 -176 l 2,1,2
 -164 -176 -164 -176 -164 -170.5 c 128,-1,3
 -164 -165 -164 -165 -153.5 -153.5 c 128,-1,4
 -143 -142 -143 -142 -136 -142 c 2,5,-1
 -43 -142 l 2,6,7
 -34 -142 -34 -142 -28 -134 c 2,8,-1
 561 789 l 2,9,10
 563 792 563 792 563 795 c 128,-1,11
 563 798 563 798 557 798 c 2,12,-1
 463 798 l 2,13,14
 453 798 453 798 453 804 c 128,-1,15
 453 810 453 810 462 818 c 128,-1,16
 471 826 471 826 480 826 c 2,17,-1
 594 826 l 2,18,19
 607 826 607 826 607 814 c 0,20,21
 607 810 607 810 604 804 c 2,22,-1
 -11 -159 l 2,23,24
 -23 -176 -23 -176 -40 -176 c 2,0,-1
EndSplineSet
EndChar

StartChar: underscore
Encoding: 95 95 65
Width: 476
GlyphClass: 2
Flags: W
LayerCount: 2
Fore
SplineSet
84 -15 m 1,0,-1
 238 -14 l 1,1,-1
 359 -14 l 2,2,3
 365 -14 365 -14 367 -19 c 1,4,5
 367 -38 367 -38 340 -38 c 2,6,-1
 314 -38 l 1,7,-1
 41 -30 l 1,8,9
 26 -28 26 -28 25 -24 c 1,10,11
 25 -15 25 -15 41 -15 c 2,12,-1
 84 -15 l 1,0,-1
EndSplineSet
EndChar

StartChar: grave
Encoding: 96 96 66
Width: 355
GlyphClass: 2
Flags: W
LayerCount: 2
Fore
SplineSet
139 365 m 0,0,1
 139 376 139 376 151 376 c 128,-1,2
 163 376 163 376 168 371 c 0,3,4
 256 301 256 301 262.5 297.5 c 128,-1,5
 269 294 269 294 269 292 c 128,-1,6
 269 290 269 290 261.5 290 c 128,-1,7
 254 290 254 290 196.5 319.5 c 128,-1,8
 139 349 139 349 139 365 c 0,0,1
EndSplineSet
EndChar

StartChar: a
Encoding: 97 97 67
Width: 295
GlyphClass: 2
Flags: W
LayerCount: 2
Fore
SplineSet
329 119 m 1,0,-1
 330 106 l 1,1,2
 169 -1 169 -1 134 -1 c 0,3,4
 128 -1 128 -1 128 6 c 0,5,6
 128 27 128 27 144 66 c 1,7,-1
 149 80 l 2,8,9
 149 82 149 82 145.5 82 c 128,-1,10
 142 82 142 82 87 42 c 0,11,12
 33 2 33 2 16.5 2 c 128,-1,13
 0 2 0 2 0 32 c 0,14,15
 0 115 0 115 94.5 194 c 128,-1,16
 189 273 189 273 322 273 c 0,17,18
 334 273 334 273 334 263 c 128,-1,19
 334 253 334 253 240 146.5 c 128,-1,20
 146 40 146 40 146 18 c 0,21,22
 146 14 146 14 152 14 c 128,-1,23
 158 14 158 14 203 40 c 128,-1,24
 248 66 248 66 288 92 c 2,25,-1
 329 119 l 1,0,-1
170 118 m 1,26,27
 187 131 187 131 236 187 c 128,-1,28
 285 243 285 243 285 252 c 0,29,30
 285 256 285 256 277 256 c 0,31,32
 231 256 231 256 170 213.5 c 128,-1,33
 109 171 109 171 66.5 117 c 128,-1,34
 24 63 24 63 24 30 c 0,35,36
 24 24 24 24 30 24 c 128,-1,37
 36 24 36 24 49.5 31.5 c 128,-1,38
 63 39 63 39 82.5 52.5 c 128,-1,39
 102 66 102 66 116 76 c 0,40,41
 164 112 164 112 170 118 c 1,26,27
EndSplineSet
EndChar

StartChar: b
Encoding: 98 98 68
Width: 209
GlyphClass: 2
Flags: W
LayerCount: 2
Fore
SplineSet
142 108 m 0,0,1
 142 100 142 100 143 97 c 1,2,3
 183 138 183 138 215.5 182.5 c 128,-1,4
 248 227 248 227 248 240 c 0,5,6
 248 243 248 243 245 243 c 0,7,8
 226 243 226 243 184 189.5 c 128,-1,9
 142 136 142 136 142 108 c 0,0,1
582 657 m 1,10,11
 556 657 556 657 396.5 500.5 c 128,-1,12
 237 344 237 344 123 203 c 1,13,14
 214 270 214 270 399 443 c 128,-1,15
 584 616 584 616 584 654 c 0,16,17
 584 656 584 656 582 657 c 1,10,11
601 675 m 0,18,19
 610 675 610 675 610 664 c 0,20,21
 610 617 610 617 421 442 c 128,-1,22
 232 267 232 267 103 178 c 1,23,24
 11 61 11 61 11 22 c 0,25,26
 11 15 11 15 18 15 c 0,27,28
 57 15 57 15 127 81 c 1,29,30
 124 89 124 89 124 101 c 0,31,32
 124 136 124 136 178.5 199 c 128,-1,33
 233 262 233 262 253 262 c 0,34,35
 263 262 263 262 263 247 c 128,-1,36
 263 232 263 232 229 183.5 c 128,-1,37
 195 135 195 135 149 88 c 1,38,39
 153 83 153 83 163 83 c 0,40,41
 189 83 189 83 245 120 c 1,42,-1
 250 110 l 1,43,44
 181 64 181 64 152 64 c 0,45,46
 139 64 139 64 132 71 c 1,47,48
 53 -3 53 -3 5 -3 c 0,49,50
 -7 -3 -7 -3 -7 16 c 0,51,52
 -7 74 -7 74 74 187.5 c 128,-1,53
 155 301 155 301 259.5 407.5 c 128,-1,54
 364 514 364 514 464.5 594.5 c 128,-1,55
 565 675 565 675 601 675 c 0,18,19
EndSplineSet
EndChar

StartChar: c
Encoding: 99 99 69
Width: 203
GlyphClass: 2
Flags: W
LayerCount: 2
Fore
SplineSet
183 192 m 128,-1,1
 188 201 188 201 193 201 c 128,-1,2
 198 201 198 201 202 194 c 1,3,4
 258 238 258 238 258 259 c 0,5,6
 258 262 258 262 253 262 c 0,7,8
 221 262 221 262 165 217 c 128,-1,9
 109 172 109 172 65.5 113.5 c 128,-1,10
 22 55 22 55 22 21 c 0,11,12
 22 12 22 12 31 12 c 0,13,14
 68 12 68 12 177 80 c 1,15,-1
 237 119 l 1,16,-1
 238 106 l 1,17,18
 213 90 213 90 181 70 c 0,19,20
 65 -2 65 -2 20 -2 c 0,21,22
 0 -2 0 -2 0 40 c 128,-1,23
 0 82 0 82 41 137.5 c 128,-1,24
 82 193 82 193 144 234 c 128,-1,25
 206 275 206 275 257 275 c 0,26,27
 277 275 277 275 277 259 c 0,28,29
 277 237 277 237 242.5 201 c 128,-1,30
 208 165 208 165 193 165 c 128,-1,31
 178 165 178 165 178 176 c 0,32,0
 178 183 178 183 183 192 c 128,-1,1
EndSplineSet
EndChar

StartChar: d
Encoding: 100 100 70
Width: 337
GlyphClass: 2
Flags: W
LayerCount: 2
Fore
SplineSet
24 17 m 0,0,1
 51 17 51 17 157 95.5 c 128,-1,2
 263 174 263 174 309 246 c 1,3,4
 309 253 309 253 297 253 c 0,5,6
 269 253 269 253 202 211 c 128,-1,7
 135 169 135 169 77.5 112.5 c 128,-1,8
 20 56 20 56 20 22 c 0,9,10
 20 17 20 17 24 17 c 0,0,1
162 -6 m 0,11,12
 150 -6 150 -6 150 7.5 c 128,-1,13
 150 21 150 21 156.5 35 c 128,-1,14
 163 49 163 49 176 70 c 0,15,16
 193 97 193 97 198 111 c 1,17,-1
 197 112 l 1,18,19
 46 2 46 2 11 2 c 0,20,21
 0 2 0 2 0 22 c 0,22,23
 0 74 0 74 37.5 122 c 128,-1,24
 75 170 75 170 128 200.5 c 128,-1,25
 181 231 181 231 234 249 c 128,-1,26
 287 267 287 267 323 267 c 1,27,28
 524 488 524 488 637 634 c 0,29,30
 660 664 660 664 689 665 c 0,31,32
 698 665 698 665 698 657 c 128,-1,33
 698 649 698 649 565 498 c 128,-1,34
 432 347 432 347 299 190 c 128,-1,35
 166 33 166 33 166 10 c 0,36,37
 166 6 166 6 171 6 c 128,-1,38
 176 6 176 6 211 23 c 128,-1,39
 246 40 246 40 274 57 c 2,40,-1
 372 119 l 1,41,-1
 373 106 l 1,42,43
 207 -6 207 -6 162 -6 c 0,11,12
EndSplineSet
EndChar

StartChar: e
Encoding: 101 101 71
Width: 218
GlyphClass: 2
Flags: W
LayerCount: 2
Fore
SplineSet
252 257 m 0,0,1
 252 260 252 260 248 260 c 0,2,3
 221 260 221 260 164 213 c 128,-1,4
 107 166 107 166 65 110 c 1,5,6
 115 126 115 126 183.5 182 c 128,-1,7
 252 238 252 238 252 257 c 0,0,1
21 21 m 0,8,9
 21 8 21 8 31 8 c 0,10,11
 43 8 43 8 85 24.5 c 128,-1,12
 127 41 127 41 154 57 c 2,13,-1
 252 119 l 1,14,-1
 253 106 l 1,15,16
 148 36 148 36 96.5 17 c 128,-1,17
 45 -2 45 -2 28 -2 c 0,18,19
 0 -2 0 -2 0 33 c 0,20,21
 0 80 0 80 34 127 c 128,-1,22
 68 174 68 174 113.5 204 c 128,-1,23
 159 234 159 234 201.5 253 c 128,-1,24
 244 272 244 272 266 272 c 128,-1,25
 288 272 288 272 288 257 c 0,26,27
 288 220 288 220 200.5 167 c 128,-1,28
 113 114 113 114 55 97 c 1,29,30
 21 48 21 48 21 21 c 0,8,9
EndSplineSet
EndChar

StartChar: f
Encoding: 102 102 72
Width: 200
GlyphClass: 2
Flags: W
LayerCount: 2
Fore
SplineSet
75 91 m 0,0,1
 75 95 75 95 73 95 c 0,2,3
 59 95 59 95 48.5 72 c 128,-1,4
 38 49 38 49 38 33.5 c 128,-1,5
 38 18 38 18 41 13 c 1,6,7
 75 75 75 75 75 91 c 0,0,1
570 683 m 0,8,9
 570 685 570 685 567 685 c 0,10,11
 532 685 532 685 162 235 c 1,12,13
 263 308 263 308 416.5 470.5 c 128,-1,14
 570 633 570 633 570 683 c 0,8,9
-242 -303 m 0,15,16
 -242 -306 -242 -306 -238 -306 c 0,17,18
 -188 -306 -188 -306 -107.5 -208 c 128,-1,19
 -27 -110 -27 -110 34 0 c 1,20,21
 24 4 24 4 24 29.5 c 128,-1,22
 24 55 24 55 45 90 c 1,23,24
 -242 -269 -242 -269 -242 -303 c 0,15,16
586 708 m 0,25,26
 595 708 595 708 595 700 c 0,27,28
 595 659 595 659 539 584 c 128,-1,29
 483 509 483 509 402 432 c 1,30,31
 227 262 227 262 123 187 c 1,32,-1
 59 107 l 1,33,34
 67 113 67 113 73 113 c 0,35,36
 89 113 89 113 89 90 c 128,-1,37
 89 67 89 67 68 19 c 1,38,39
 105 37 105 37 147 63 c 2,40,-1
 234 119 l 1,41,-1
 235 106 l 1,42,43
 117 28 117 28 61 6 c 1,44,45
 8 -106 8 -106 -87 -213.5 c 128,-1,46
 -182 -321 -182 -321 -252 -321 c 0,47,48
 -263 -321 -263 -321 -263 -308 c 0,49,50
 -263 -271 -263 -271 -74 -20 c 128,-1,51
 115 231 115 231 326 469.5 c 128,-1,52
 537 708 537 708 586 708 c 0,25,26
EndSplineSet
EndChar

StartChar: g
Encoding: 103 103 73
Width: 290
GlyphClass: 2
Flags: W
LayerCount: 2
Fore
SplineSet
171 118 m 1,0,1
 188 131 188 131 237 187 c 128,-1,2
 286 243 286 243 286 252 c 0,3,4
 286 256 286 256 278 256 c 0,5,6
 207 256 207 256 116 172.5 c 128,-1,7
 25 89 25 89 25 30 c 0,8,9
 25 24 25 24 31 24 c 128,-1,10
 37 24 37 24 50.5 31.5 c 128,-1,11
 64 39 64 39 83.5 52.5 c 128,-1,12
 103 66 103 66 116 76 c 0,13,14
 165 112 165 112 171 118 c 1,0,1
-215 -344 m 0,15,16
 -203 -344 -203 -344 -41 -150 c 1,17,-1
 13 -86 l 1,18,19
 13 -84 13 -84 11 -84 c 1,20,21
 -57 -133 -57 -133 -116 -184.5 c 128,-1,22
 -175 -236 -175 -236 -196.5 -271 c 128,-1,23
 -218 -306 -218 -306 -218 -338 c 0,24,25
 -218 -344 -218 -344 -215 -344 c 0,15,16
141 13 m 1,26,27
 158 13 158 13 282 92 c 1,28,-1
 324 118 l 1,29,-1
 325 106 l 1,30,31
 261 62 261 62 205 32 c 2,32,-1
 114 -15 l 1,33,34
 35 -122 35 -122 -83.5 -244.5 c 128,-1,35
 -202 -367 -202 -367 -223 -367 c 128,-1,36
 -244 -367 -244 -367 -244 -353 c 0,37,38
 -244 -280 -244 -280 -134 -184 c 0,39,40
 -94 -149 -94 -149 -32 -103.5 c 128,-1,41
 30 -58 30 -58 44 -47 c 1,42,43
 67 -19 67 -19 92 11 c 0,44,45
 146 74 146 74 150 80 c 1,46,47
 150 82 150 82 146.5 82 c 128,-1,48
 143 82 143 82 88 42 c 0,49,50
 34 2 34 2 17.5 2 c 128,-1,51
 1 2 1 2 1 32 c 0,52,53
 1 115 1 115 95.5 194 c 128,-1,54
 190 273 190 273 323 273 c 0,55,56
 334 273 334 273 334 261 c 1,57,58
 151 31 151 31 141 13 c 1,26,27
EndSplineSet
EndChar

StartChar: h
Encoding: 104 104 74
Width: 322
GlyphClass: 2
Flags: W
LayerCount: 2
Fore
SplineSet
318 426 m 2,0,-1
 173 257 l 1,1,2
 252 310 252 310 416 477 c 128,-1,3
 580 644 580 644 580 676 c 0,4,5
 580 681 580 681 575 681 c 128,-1,6
 570 681 570 681 564 678 c 0,7,8
 499 642 499 642 406 531 c 0,9,10
 402 527 402 527 364.5 481.5 c 128,-1,11
 327 436 327 436 318 426 c 2,0,-1
604 687 m 0,12,13
 604 640 604 640 430.5 467.5 c 128,-1,14
 257 295 257 295 140 218 c 1,15,-1
 124 199 l 1,16,17
 99 176 99 176 23 74 c 1,18,19
 17 64 17 64 17 63 c 128,-1,20
 17 62 17 62 18.5 62 c 128,-1,21
 20 62 20 62 30 68.5 c 128,-1,22
 40 75 40 75 105 122 c 0,23,24
 255 231 255 231 324 265 c 0,25,26
 330 267 330 267 332 267 c 0,27,28
 343 267 343 267 343 248.5 c 128,-1,29
 343 230 343 230 314 191.5 c 128,-1,30
 285 153 285 153 250 120 c 0,31,32
 156 31 156 31 156 20 c 0,33,34
 156 14 156 14 160 14 c 1,35,36
 216 32 216 32 258 57 c 1,37,-1
 356 119 l 1,38,-1
 357 106 l 1,39,40
 252 36 252 36 200.5 17 c 128,-1,41
 149 -2 149 -2 134.5 -2 c 128,-1,42
 120 -2 120 -2 120 7 c 0,43,44
 120 25 120 25 171 79 c 128,-1,45
 222 133 222 133 272.5 184.5 c 128,-1,46
 323 236 323 236 323 246 c 0,47,48
 323 248 323 248 320 248 c 0,49,50
 307 248 307 248 196 173 c 128,-1,51
 85 98 85 98 29.5 55.5 c 128,-1,52
 -26 13 -26 13 -32 6.5 c 128,-1,53
 -38 0 -38 0 -63 -3 c 1,54,55
 -73 -3 -73 -3 -73 2 c 128,-1,56
 -73 7 -73 7 -59 26 c 1,57,58
 13 114 13 114 173 300.5 c 128,-1,59
 333 487 333 487 345 498.5 c 128,-1,60
 357 510 357 510 379.5 533 c 128,-1,61
 402 556 402 556 419.5 573.5 c 128,-1,62
 437 591 437 591 464.5 616.5 c 128,-1,63
 492 642 492 642 512 659 c 0,64,65
 563 701 563 701 587 701 c 0,66,67
 594 701 594 701 599 696.5 c 128,-1,68
 604 692 604 692 604 687 c 0,12,13
EndSplineSet
EndChar

StartChar: i
Encoding: 105 105 75
Width: 148
GlyphClass: 2
Flags: W
LayerCount: 2
Fore
SplineSet
233 348.5 m 128,-1,1
 233 364 233 364 248 378 c 128,-1,2
 263 392 263 392 273.5 392 c 128,-1,3
 284 392 284 392 289.5 386 c 128,-1,4
 295 380 295 380 295 372 c 128,-1,5
 295 364 295 364 281 348.5 c 128,-1,6
 267 333 267 333 250 333 c 128,-1,0
 233 333 233 333 233 348.5 c 128,-1,1
-3 17 m 1,7,8
 8 42 8 42 85.5 131 c 128,-1,9
 163 220 163 220 203 260 c 1,10,11
 209 268 209 268 209 271.5 c 128,-1,12
 209 275 209 275 201 276 c 2,13,-1
 178 278 l 2,14,15
 170 278 170 278 163 270 c 0,16,17
 95 201 95 201 34.5 119.5 c 128,-1,18
 -26 38 -26 38 -26 18.5 c 128,-1,19
 -26 -1 -26 -1 -14 -1 c 0,20,21
 2 -1 2 -1 51 25.5 c 128,-1,22
 100 52 100 52 141 79 c 2,23,-1
 182 106 l 1,24,-1
 181 119 l 1,25,26
 20 13 20 13 2 13 c 0,27,28
 -3 13 -3 13 -3 17 c 1,7,8
EndSplineSet
EndChar

StartChar: j
Encoding: 106 106 76
Width: 183
GlyphClass: 2
Flags: W
LayerCount: 2
Fore
SplineSet
255 348.5 m 128,-1,1
 255 364 255 364 270 378 c 128,-1,2
 285 392 285 392 295.5 392 c 128,-1,3
 306 392 306 392 311.5 386 c 128,-1,4
 317 380 317 380 317 372 c 128,-1,5
 317 364 317 364 303 348.5 c 128,-1,6
 289 333 289 333 272 333 c 128,-1,0
 255 333 255 333 255 348.5 c 128,-1,1
-351 -385 m 0,7,8
 -351 -397 -351 -397 -342 -397 c 0,9,10
 -326 -397 -326 -397 -77 -84 c 1,11,12
 -351 -281 -351 -281 -351 -385 c 0,7,8
23 98 m 1,13,-1
 20 110 l 1,14,15
 26 114 26 114 39.5 123.5 c 128,-1,16
 53 133 53 133 76 148.5 c 128,-1,17
 99 164 99 164 124.5 187 c 128,-1,18
 150 210 150 210 172.5 238 c 128,-1,19
 195 266 195 266 200 271.5 c 128,-1,20
 205 277 205 277 226 277 c 128,-1,21
 247 277 247 277 247 267 c 0,22,23
 247 264 247 264 245 262 c 128,-1,24
 243 260 243 260 237.5 253.5 c 128,-1,25
 232 247 232 247 219.5 232 c 128,-1,26
 207 217 207 217 191 198 c 2,27,-1
 45 12 l 1,28,29
 65 24 65 24 130 64 c 2,30,-1
 218 119 l 1,31,-1
 219 106 l 1,32,33
 180 81 180 81 137 55 c 2,34,-1
 21 -17 l 1,35,36
 -171 -257 -171 -257 -279 -363 c 0,37,38
 -332 -415 -332 -415 -349 -415 c 0,39,40
 -358 -415 -358 -415 -363.5 -407.5 c 128,-1,41
 -369 -400 -369 -400 -369 -392 c 0,42,43
 -369 -266 -369 -266 -50 -50 c 1,44,45
 -32 -28 -32 -28 -10.5 -0.5 c 128,-1,46
 11 27 11 27 25 44.5 c 128,-1,47
 39 62 39 62 50 75 c 128,-1,48
 61 88 61 88 104 147 c 1,49,-1
 68 126 l 2,50,51
 44 112 44 112 23 98 c 1,13,-1
EndSplineSet
EndChar

StartChar: k
Encoding: 107 107 77
Width: 332
GlyphClass: 2
Flags: W
LayerCount: 2
Fore
SplineSet
114 125 m 1,0,1
 114 121 114 121 126 121 c 1,2,3
 174 127 174 127 230 158 c 128,-1,4
 286 189 286 189 318.5 217.5 c 128,-1,5
 351 246 351 246 351 254 c 0,6,7
 351 256 351 256 348 256 c 0,8,9
 325 256 325 256 266.5 223.5 c 128,-1,10
 208 191 208 191 161 158 c 2,11,-1
 114 125 l 1,0,1
544 665 m 0,12,13
 544 667 544 667 538.5 667 c 128,-1,14
 533 667 533 667 511 645 c 1,15,16
 486 624 486 624 374 498 c 128,-1,17
 262 372 262 372 177 259 c 1,18,19
 259 312 259 312 401.5 460.5 c 128,-1,20
 544 609 544 609 544 665 c 0,12,13
175 105 m 1,21,22
 172 110 172 110 137.5 110 c 128,-1,23
 103 110 103 110 93 107.5 c 128,-1,24
 83 105 83 105 52.5 74.5 c 128,-1,25
 22 44 22 44 11 32 c 128,-1,26
 0 20 0 20 -8 11 c 128,-1,27
 -16 2 -16 2 -21.5 -4 c 128,-1,28
 -27 -10 -27 -10 -44.5 -10 c 128,-1,29
 -62 -10 -62 -10 -62 -4 c 128,-1,30
 -62 2 -62 2 -57 8 c 0,31,32
 -7 68 -7 68 117.5 231.5 c 128,-1,33
 242 395 242 395 320 479.5 c 128,-1,34
 398 564 398 564 468 625 c 128,-1,35
 538 686 538 686 563 686 c 0,36,37
 574 686 574 686 574 674 c 0,38,39
 574 620 574 620 428.5 469.5 c 128,-1,40
 283 319 283 319 152 225 c 1,41,42
 134 200 134 200 101 153 c 128,-1,43
 68 106 68 106 60 95 c 1,44,45
 121 147 121 147 218 206 c 128,-1,46
 315 265 315 265 375 272 c 1,47,48
 392 272 392 272 392 253 c 0,49,50
 392 227 392 227 337.5 194 c 128,-1,51
 283 161 283 161 228 142 c 1,52,-1
 174 122 l 1,53,54
 174 120 174 120 177 119 c 0,55,56
 200 109 200 109 200 93.5 c 128,-1,57
 200 78 200 78 173 49 c 128,-1,58
 146 20 146 20 146 12 c 0,59,60
 146 7 146 7 154 7 c 0,61,62
 187 7 187 7 267 56 c 2,63,-1
 366 118 l 1,64,-1
 367 106 l 1,65,66
 204 -4 204 -4 149 -4 c 0,67,68
 122 -4 122 -4 122 23 c 0,69,70
 122 32 122 32 148.5 66 c 128,-1,71
 175 100 175 100 175 105 c 1,21,22
EndSplineSet
EndChar

StartChar: l
Encoding: 108 108 78
Width: 181
GlyphClass: 2
Flags: W
LayerCount: 2
Fore
SplineSet
574 658 m 1,0,1
 544 658 544 658 353 466 c 128,-1,2
 162 274 162 274 63 137 c 1,3,4
 155 207 155 207 365.5 411.5 c 128,-1,5
 576 616 576 616 576 655 c 0,6,7
 576 657 576 657 574 658 c 1,0,1
593 676 m 0,8,9
 602 676 602 676 602 665 c 0,10,11
 602 617 602 617 387.5 409.5 c 128,-1,12
 173 202 173 202 47 114 c 1,13,14
 3 51 3 51 3 23 c 0,15,16
 3 14 3 14 7 14 c 0,17,18
 48 14 48 14 154 80 c 1,19,-1
 214 119 l 1,20,-1
 215 106 l 1,21,22
 190 90 190 90 158 70 c 0,23,24
 42 -2 42 -2 -3 -2 c 0,25,26
 -15 -2 -15 -2 -15 17 c 0,27,28
 -15 75 -15 75 66 188.5 c 128,-1,29
 147 302 147 302 251.5 408.5 c 128,-1,30
 356 515 356 515 456.5 595.5 c 128,-1,31
 557 676 557 676 593 676 c 0,8,9
EndSplineSet
EndChar

StartChar: m
Encoding: 109 109 79
Width: 493
GlyphClass: 2
Flags: W
LayerCount: 2
Fore
SplineSet
23 99 m 1,0,-1
 20 110 l 1,1,-1
 62 139 l 2,2,3
 107 169 107 169 124 184 c 128,-1,4
 141 199 141 199 148.5 204.5 c 128,-1,5
 156 210 156 210 165.5 221 c 128,-1,6
 175 232 175 232 177 234 c 2,7,8
 177 234 177 234 189 250 c 0,9,10
 199 262 199 262 200 264 c 1,11,12
 216 260 216 260 216 240 c 1,13,14
 188 198 188 198 134 136 c 128,-1,15
 80 74 80 74 80 71.5 c 128,-1,16
 80 69 80 69 81.5 69 c 128,-1,17
 83 69 83 69 96.5 79.5 c 128,-1,18
 110 90 110 90 170 132 c 0,19,20
 292 216 292 216 335 245 c 1,21,22
 352 259 352 259 358.5 259 c 128,-1,23
 365 259 365 259 369.5 254.5 c 128,-1,24
 374 250 374 250 374 242 c 128,-1,25
 374 234 374 234 358 209 c 128,-1,26
 342 184 342 184 324 161 c 0,27,28
 277 101 277 101 266 90 c 1,29,30
 261 82 261 82 261 80.5 c 128,-1,31
 261 79 261 79 262 79 c 0,32,33
 269 79 269 79 484 236 c 0,34,35
 519 261 519 261 531 261 c 0,36,37
 540 261 540 261 540 241.5 c 128,-1,38
 540 222 540 222 510 183 c 128,-1,39
 480 144 480 144 444 111 c 0,40,41
 348 23 348 23 348 14 c 0,42,43
 348 13 348 13 352 13 c 0,44,45
 364 13 364 13 487 92 c 1,46,-1
 528 119 l 1,47,-1
 529 106 l 1,48,49
 368 -1 368 -1 333 -1 c 0,50,51
 327 -1 327 -1 327 5 c 0,52,53
 327 42 327 42 373.5 92.5 c 128,-1,54
 420 143 420 143 466 183.5 c 128,-1,55
 512 224 512 224 512 237 c 0,56,57
 512 239 512 239 510.5 239 c 128,-1,58
 509 239 509 239 504 236 c 128,-1,59
 499 233 499 233 378.5 148 c 128,-1,60
 258 63 258 63 238 48.5 c 128,-1,61
 218 34 218 34 189 5 c 1,62,63
 179 -3 179 -3 158 -3 c 128,-1,64
 137 -3 137 -3 137 1.5 c 128,-1,65
 137 6 137 6 145 14 c 0,66,67
 205 74 205 74 273.5 150 c 128,-1,68
 342 226 342 226 345 232 c 1,69,70
 345 235 345 235 342 235 c 0,71,72
 332 235 332 235 219 155.5 c 128,-1,73
 106 76 106 76 88 63 c 0,74,75
 41 28 41 28 38.5 26.5 c 128,-1,76
 36 25 36 25 28 16 c 0,77,78
 10 -3 10 -3 -5 -3 c 1,79,80
 -20 1 -20 1 -21 3 c 1,81,82
 2 29 2 29 93 142 c 1,83,-1
 23 99 l 1,0,-1
EndSplineSet
EndChar

StartChar: n
Encoding: 110 110 80
Width: 328
GlyphClass: 2
Flags: W
LayerCount: 2
Fore
SplineSet
22 98 m 1,0,-1
 19 110 l 1,1,-1
 52 131 l 1,2,3
 127 181 127 181 146 201.5 c 128,-1,4
 165 222 165 222 169 227 c 0,5,6
 195 260 195 260 198 264 c 1,7,8
 210 260 210 260 210 240 c 1,9,10
 190 211 190 211 156 170.5 c 128,-1,11
 122 130 122 130 100 103.5 c 128,-1,12
 78 77 78 77 78 73 c 128,-1,13
 78 69 78 69 79.5 69 c 128,-1,14
 81 69 81 69 94.5 79.5 c 128,-1,15
 108 90 108 90 168 132 c 0,16,17
 289 216 289 216 322 238.5 c 128,-1,18
 355 261 355 261 364.5 261 c 128,-1,19
 374 261 374 261 374 241.5 c 128,-1,20
 374 222 374 222 344 183 c 128,-1,21
 314 144 314 144 278 111 c 0,22,23
 182 23 182 23 182 14 c 0,24,25
 182 13 182 13 186 13 c 0,26,27
 198 13 198 13 321 92 c 1,28,-1
 362 119 l 1,29,-1
 363 106 l 1,30,31
 202 -1 202 -1 167 -1 c 0,32,33
 161 -1 161 -1 161 5 c 0,34,35
 161 42 161 42 207.5 92.5 c 128,-1,36
 254 143 254 143 300 183.5 c 128,-1,37
 346 224 346 224 346 237 c 0,38,39
 346 239 346 239 344 239 c 0,40,41
 315 225 315 225 209.5 150.5 c 128,-1,42
 104 76 104 76 86 63 c 0,43,44
 39 28 39 28 36.5 26.5 c 128,-1,45
 34 25 34 25 26 16 c 0,46,47
 8 -3 8 -3 -7 -3 c 1,48,49
 -31 -1 -31 -1 -32 0 c 256,50,51
 -33 1 -33 1 -33 2 c 256,52,53
 -33 3 -33 3 -16 21 c 0,54,55
 0 38 0 38 16 55 c 0,56,57
 69 114 69 114 89 139 c 1,58,-1
 22 98 l 1,0,-1
EndSplineSet
EndChar

StartChar: o
Encoding: 111 111 81
Width: 232
GlyphClass: 2
Flags: W
LayerCount: 2
Fore
SplineSet
238 225 m 2,0,-1
 238 226 l 1,1,2
 218 216 218 216 194 178.5 c 128,-1,3
 170 141 170 141 166 114 c 1,4,5
 238 188 238 188 238 225 c 2,0,-1
25 16 m 0,6,7
 63 16 63 16 148 96 c 1,8,-1
 148 101 l 2,9,10
 148 132 148 132 178.5 177.5 c 128,-1,11
 209 223 209 223 234 236 c 1,12,13
 231 239 231 239 226 239 c 0,14,15
 189 239 189 239 103.5 154 c 128,-1,16
 18 69 18 69 18 22 c 0,17,18
 18 16 18 16 25 16 c 0,6,7
-6 30 m 0,19,20
 -6 105 -6 105 80.5 179.5 c 128,-1,21
 167 254 167 254 224 254 c 0,22,23
 252 254 252 254 252 229 c 0,24,25
 252 158 252 158 176 87 c 1,26,27
 182 85 182 85 188 85 c 0,28,29
 216 85 216 85 269 120 c 1,30,-1
 274 110 l 1,31,32
 210 67 210 67 177 67 c 0,33,34
 164 67 164 67 158 72 c 1,35,36
 119 40 119 40 76 20 c 128,-1,37
 33 0 33 0 13.5 0 c 128,-1,38
 -6 0 -6 0 -6 30 c 0,19,20
EndSplineSet
EndChar

StartChar: p
Encoding: 112 112 82
Width: 315
GlyphClass: 2
Flags: W
LayerCount: 2
Fore
SplineSet
-291 -253 m 2,0,-1
 266 387 l 2,1,2
 271 393 271 393 287 393 c 128,-1,3
 303 393 303 393 303 385 c 0,4,5
 303 382 303 382 298 377 c 2,6,-1
 71 121 l 2,7,8
 66 115 66 115 66 113 c 128,-1,9
 66 111 66 111 67.5 111 c 128,-1,10
 69 111 69 111 87 126.5 c 128,-1,11
 105 142 105 142 201.5 204.5 c 128,-1,12
 298 267 298 267 325 267 c 0,13,14
 336 267 336 267 336 253 c 0,15,16
 336 226 336 226 307 185.5 c 128,-1,17
 278 145 278 145 242 112 c 0,18,19
 149 25 149 25 149 19.5 c 128,-1,20
 149 14 149 14 153 14 c 1,21,22
 209 32 209 32 251 57 c 1,23,-1
 349 119 l 1,24,-1
 350 106 l 1,25,26
 245 36 245 36 193.5 17 c 128,-1,27
 142 -2 142 -2 127.5 -2 c 128,-1,28
 113 -2 113 -2 113 7 c 0,29,30
 113 25 113 25 163.5 79 c 128,-1,31
 214 133 214 133 265 184.5 c 128,-1,32
 316 236 316 236 316 246 c 0,33,34
 316 248 316 248 313 248 c 0,35,36
 291 248 291 248 213.5 198.5 c 128,-1,37
 136 149 136 149 110.5 128.5 c 128,-1,38
 85 108 85 108 64 89.5 c 128,-1,39
 43 71 43 71 29.5 58 c 128,-1,40
 16 45 16 45 3.5 33.5 c 128,-1,41
 -9 22 -9 22 -17 14 c 128,-1,42
 -25 6 -25 6 -130 -115.5 c 128,-1,43
 -235 -237 -235 -237 -251 -258 c 0,44,45
 -267 -280 -267 -280 -284 -280 c 1,46,47
 -284 -280 -284 -280 -284 -280 c 1,48,49
 -302 -279 -302 -279 -302 -273 c 128,-1,50
 -302 -267 -302 -267 -291 -253 c 2,0,-1
EndSplineSet
EndChar

StartChar: q
Encoding: 113 113 83
Width: 350
GlyphClass: 2
Flags: W
LayerCount: 2
Fore
SplineSet
195 11 m 0,0,1
 205 11 205 11 221 19 c 1,2,3
 226 36 226 36 226 56.5 c 128,-1,4
 226 77 226 77 218 77 c 2,5,-1
 216 77 l 1,6,-1
 180 36 l 1,7,-1
 180 32 l 2,8,9
 180 11 180 11 195 11 c 0,0,1
311 254 m 0,10,11
 255 254 255 254 186 209 c 128,-1,12
 117 164 117 164 72 109.5 c 128,-1,13
 27 55 27 55 27 24 c 0,14,15
 27 17 27 17 32 17 c 0,16,17
 47 17 47 17 134 80 c 1,18,19
 243 157 243 157 285 206 c 0,20,21
 301 224 301 224 312 236.5 c 128,-1,22
 323 249 323 249 323 251.5 c 128,-1,23
 323 254 323 254 311 254 c 0,10,11
188 -1 m 0,24,25
 171 -1 171 -1 168 24 c 1,26,27
 -32 -197 -32 -197 -119 -318 c 0,28,29
 -123 -323 -123 -323 -123 -328 c 128,-1,30
 -123 -333 -123 -333 -112 -333 c 1,31,32
 -27 -298 -27 -298 80.5 -186 c 128,-1,33
 188 -74 188 -74 218 8 c 1,34,35
 199 -1 199 -1 188 -1 c 0,24,25
-127 -351 m 0,36,37
 -143 -351 -143 -351 -143 -339 c 0,38,39
 -143 -305 -143 -305 16 -108 c 0,40,41
 115 15 115 15 177 89 c 0,42,43
 182 96 182 96 182 97 c 128,-1,44
 182 98 182 98 180.5 98 c 128,-1,45
 179 98 179 98 154 80 c 0,46,47
 74 26 74 26 51.5 14 c 128,-1,48
 29 2 29 2 18 2 c 0,49,50
 2 2 2 2 -1 24 c 1,51,52
 4 85 4 85 42 134 c 128,-1,53
 80 183 80 183 132 210 c 0,54,55
 237 264 237 264 313 264 c 1,56,-1
 335 263 l 1,57,58
 354 270 354 270 363 270 c 128,-1,59
 372 270 372 270 372 263 c 0,60,61
 372 255 372 255 360 240.5 c 128,-1,62
 348 226 348 226 227 88 c 1,63,64
 240 73 240 73 240 44 c 0,65,66
 240 39 240 39 238 29 c 1,67,68
 260 41 260 41 271 48 c 2,69,-1
 383 117 l 1,70,-1
 384 106 l 1,71,72
 296 47 296 47 236 17 c 1,73,74
 221 -46 221 -46 151 -134.5 c 128,-1,75
 81 -223 81 -223 -0.5 -287 c 128,-1,76
 -82 -351 -82 -351 -127 -351 c 0,36,37
EndSplineSet
EndChar

StartChar: r
Encoding: 114 114 84
Width: 255
GlyphClass: 2
Flags: W
LayerCount: 2
Fore
SplineSet
338 149 m 1,0,-1
 346 140 l 1,1,2
 300 112 300 112 271 93 c 128,-1,3
 242 74 242 74 227 74 c 0,4,5
 205 74 205 74 205 93 c 0,6,7
 205 107 205 107 220.5 148.5 c 128,-1,8
 236 190 236 190 242 207 c 1,9,-1
 239 210 l 1,10,11
 235 210 235 210 230 206 c 0,12,13
 129 125 129 125 99.5 97 c 128,-1,14
 70 69 70 69 42.5 37 c 128,-1,15
 15 5 15 5 12.5 2 c 128,-1,16
 10 -1 10 -1 9 -2 c 0,17,18
 6 -5 6 -5 -11.5 -5 c 128,-1,19
 -29 -5 -29 -5 -29 -2 c 1,20,21
 -27 1 -27 1 -4 26 c 0,22,23
 52 87 52 87 97 143 c 1,24,-1
 68 126 l 2,25,26
 22 98 22 98 1 84 c 1,27,-1
 -3 95 l 1,28,-1
 60 135 l 2,29,30
 94 157 94 157 118.5 181 c 128,-1,31
 143 205 143 205 152 220 c 128,-1,32
 161 235 161 235 168 245 c 128,-1,33
 175 255 175 255 181 255 c 128,-1,34
 187 255 187 255 200 248 c 1,35,36
 200 238 200 238 184 213 c 128,-1,37
 168 188 168 188 152 168 c 2,38,-1
 136 149 l 1,39,40
 136 147 136 147 137 147 c 0,41,42
 140 147 140 147 144 150.5 c 128,-1,43
 148 154 148 154 177.5 178.5 c 128,-1,44
 207 203 207 203 229 220.5 c 128,-1,45
 251 238 251 238 279.5 254 c 128,-1,46
 308 270 308 270 321 270 c 128,-1,47
 334 270 334 270 334 264 c 0,48,49
 334 256 334 256 285 230 c 0,50,51
 274 224 274 224 251.5 172.5 c 128,-1,52
 229 121 229 121 229 97 c 0,53,54
 229 92 229 92 238.5 92 c 128,-1,55
 248 92 248 92 276 110 c 2,56,-1
 338 149 l 1,0,-1
EndSplineSet
EndChar

StartChar: s
Encoding: 115 115 85
Width: 258
GlyphClass: 2
Flags: W
LayerCount: 2
Fore
SplineSet
35 106 m 2,0,1
 30 103 30 103 23 98 c 1,2,-1
 20 110 l 1,3,4
 133 182 133 182 204 222 c 1,5,-1
 231 238 l 1,6,7
 246 250 246 250 264 266 c 1,8,9
 302 296 302 296 304 295 c 1,10,11
 309 295 309 295 309 290.5 c 128,-1,12
 309 286 309 286 301 275.5 c 128,-1,13
 293 265 293 265 278.5 251 c 128,-1,14
 264 237 264 237 261 233 c 0,15,16
 246 218 246 218 211.5 137.5 c 128,-1,17
 177 57 177 57 174 51 c 1,18,19
 174 47 174 47 176.5 47 c 128,-1,20
 179 47 179 47 180 48 c 2,21,-1
 292 119 l 1,22,-1
 293 106 l 1,23,24
 281 99 281 99 253 81 c 128,-1,25
 225 63 225 63 213.5 56 c 128,-1,26
 202 49 202 49 180 35.5 c 128,-1,27
 158 22 158 22 146 16 c 128,-1,28
 134 10 134 10 118 2 c 1,29,30
 77 -10 77 -10 66 -10 c 0,31,32
 65 -10 65 -10 65 -10 c 2,33,34
 38 -10 38 -10 21 6 c 128,-1,35
 4 22 4 22 4 43 c 128,-1,36
 4 64 4 64 18.5 79 c 128,-1,37
 33 94 33 94 53 94 c 128,-1,38
 73 94 73 94 73 78 c 0,39,40
 73 69 73 69 66.5 61 c 128,-1,41
 60 53 60 53 50.5 53 c 128,-1,42
 41 53 41 53 39.5 62 c 128,-1,43
 38 71 38 71 34 71 c 0,44,45
 27 71 27 71 22.5 64 c 128,-1,46
 18 57 18 57 18 44 c 128,-1,47
 18 31 18 31 30 18.5 c 128,-1,48
 42 6 42 6 64 6 c 128,-1,49
 86 6 86 6 105.5 22 c 128,-1,50
 125 38 125 38 132 50 c 128,-1,51
 139 62 139 62 162 117.5 c 128,-1,52
 185 173 185 173 210 205 c 1,53,-1
 212 209 l 2,54,55
 212 210 212 210 209 210 c 0,56,57
 201 210 201 210 76 132 c 1,58,-1
 35 106 l 2,0,1
EndSplineSet
EndChar

StartChar: t
Encoding: 116 116 86
Width: 145
GlyphClass: 2
Flags: W
LayerCount: 2
Fore
SplineSet
181 107 m 1,0,1
 24 0 24 0 -19 0 c 0,2,3
 -30 0 -30 0 -30 7 c 0,4,5
 -30 35 -30 35 42 134 c 128,-1,6
 114 233 114 233 208 344 c 1,7,8
 112 346 112 346 90 346 c 128,-1,9
 68 346 68 346 68 357 c 0,10,11
 68 361 68 361 77 361 c 2,12,-1
 220 358 l 1,13,14
 342 501 342 501 355 501 c 0,15,16
 382 501 382 501 382 492.5 c 128,-1,17
 382 484 382 484 271 357 c 1,18,-1
 439 354 l 2,19,20
 452 354 452 354 452 350.5 c 128,-1,21
 452 347 452 347 448 346 c 0,22,23
 442 343 442 343 349 343 c 2,24,-1
 259 343 l 1,25,26
 194 269 194 269 164 235.5 c 128,-1,27
 134 202 134 202 86 146 c 0,28,29
 -3 42 -3 42 -3 22 c 0,30,31
 -3 18 -3 18 4.5 18 c 128,-1,32
 12 18 12 18 55 41.5 c 128,-1,33
 98 65 98 65 120 81 c 1,34,-1
 180 118 l 1,35,-1
 181 107 l 1,0,1
EndSplineSet
EndChar

StartChar: u
Encoding: 117 117 87
Width: 348
GlyphClass: 2
Flags: W
LayerCount: 2
Fore
SplineSet
166 216 m 0,0,1
 175 227 175 227 187 244 c 128,-1,2
 199 261 199 261 207 261 c 128,-1,3
 215 261 215 261 224 246 c 1,4,5
 224 228 224 228 133.5 128 c 128,-1,6
 43 28 43 28 43 19 c 0,7,8
 43 17 43 17 49 17 c 128,-1,9
 55 17 55 17 119 58 c 0,10,11
 253 144 253 144 350 247 c 1,12,13
 374 269 374 269 392 269 c 0,14,15
 393 269 393 269 394 269 c 0,16,17
 413 268 413 268 413 264 c 1,18,-1
 412 262 l 1,19,20
 369 222 369 222 284 127 c 128,-1,21
 199 32 199 32 199 15 c 0,22,23
 199 11 199 11 205.5 11 c 128,-1,24
 212 11 212 11 342 93 c 2,25,-1
 383 119 l 1,26,-1
 384 107 l 1,27,28
 372 99 372 99 353 87 c 0,29,30
 204 -7 204 -7 179 -7 c 0,31,32
 170 -7 170 -7 170 3 c 128,-1,33
 170 13 170 13 194.5 60 c 128,-1,34
 219 107 219 107 230 120 c 1,35,-1
 214 111 l 1,36,37
 63 3 63 3 33 3 c 0,38,39
 21 3 21 3 21 16.5 c 128,-1,40
 21 30 21 30 32 51.5 c 128,-1,41
 43 73 43 73 52.5 86 c 128,-1,42
 62 99 62 99 81 121.5 c 128,-1,43
 100 144 100 144 101 145 c 2,44,-1
 23 99 l 1,45,-1
 20 110 l 1,46,-1
 54 131 l 1,47,48
 141 187 141 187 166 216 c 0,0,1
EndSplineSet
EndChar

StartChar: v
Encoding: 118 118 88
Width: 232
GlyphClass: 2
Flags: W
LayerCount: 2
Fore
SplineSet
260 243 m 0,0,1
 251 243 251 243 231.5 212.5 c 128,-1,2
 212 182 212 182 197 148 c 1,3,4
 263 221 263 221 263 240 c 0,5,6
 263 243 263 243 260 243 c 0,0,1
151 264 m 2,7,8
 176 264 176 264 176 256 c 0,9,10
 176 253 176 253 171.5 247.5 c 128,-1,11
 167 242 167 242 146.5 215 c 128,-1,12
 126 188 126 188 106 160.5 c 128,-1,13
 86 133 86 133 63 101 c 0,14,15
 11 29 11 29 11 16 c 0,16,17
 11 15 11 15 13 15 c 0,18,19
 67 15 67 15 171 121 c 1,20,21
 185 165 185 165 217.5 213.5 c 128,-1,22
 250 262 250 262 268 262 c 0,23,24
 277 262 277 262 277 253 c 0,25,26
 277 218 277 218 187 124 c 1,27,28
 181 108 181 108 181 96.5 c 128,-1,29
 181 85 181 85 189 85 c 0,30,31
 217 85 217 85 270 120 c 1,32,-1
 275 111 l 1,33,34
 210 68 210 68 181 68 c 0,35,36
 165 68 165 68 165 89 c 0,37,38
 165 98 165 98 166 103 c 1,39,40
 60 -3 60 -3 -2 -3 c 0,41,42
 -17 -3 -17 -3 -17 18 c 128,-1,43
 -17 39 -17 39 21.5 101 c 128,-1,44
 60 163 60 163 99 213.5 c 128,-1,45
 138 264 138 264 144 264 c 2,46,-1
 151 264 l 2,7,8
EndSplineSet
EndChar

StartChar: w
Encoding: 119 119 89
Width: 403
GlyphClass: 2
Flags: W
LayerCount: 2
Fore
SplineSet
498 292 m 0,0,1
 490 292 490 292 458 254 c 128,-1,2
 426 216 426 216 397 172 c 1,3,4
 501 269 501 269 501 289 c 0,5,6
 501 292 501 292 498 292 c 0,0,1
172 270 m 2,7,8
 197 270 197 270 197 262 c 0,9,10
 197 259 197 259 191 251.5 c 128,-1,11
 185 244 185 244 137 191 c 0,12,13
 4 44 4 44 4 26 c 0,14,15
 4 25 4 25 6 25 c 0,16,17
 21 25 21 25 91 74 c 128,-1,18
 161 123 161 123 187.5 145.5 c 128,-1,19
 214 168 214 168 254.5 210.5 c 128,-1,20
 295 253 295 253 299.5 258.5 c 128,-1,21
 304 264 304 264 306 267 c 0,22,23
 313 275 313 275 331 277 c 1,24,25
 359 274 359 274 359 265 c 0,26,27
 359 260 359 260 350 249 c 1,28,29
 311 210 311 210 232 122 c 128,-1,30
 153 34 153 34 153 14 c 0,31,32
 153 10 153 10 158 10 c 0,33,34
 212 10 212 10 357 136 c 1,35,36
 387 191 387 191 437.5 251 c 128,-1,37
 488 311 488 311 506 311 c 0,38,39
 517 311 517 311 517 302 c 0,40,41
 517 284 517 284 476.5 237.5 c 128,-1,42
 436 191 436 191 376 138 c 1,43,44
 355 104 355 104 355 93 c 128,-1,45
 355 82 355 82 365 82 c 0,46,47
 392 82 392 82 441 120 c 1,48,-1
 446 111 l 1,49,50
 383 64 383 64 355 64 c 0,51,52
 338 64 338 64 338 83 c 0,53,54
 338 93 338 93 346 112 c 1,55,56
 284 61 284 61 229 27.5 c 128,-1,57
 174 -6 174 -6 145 -7 c 0,58,59
 125 -7 125 -7 125 10.5 c 128,-1,60
 125 28 125 28 153.5 75 c 128,-1,61
 182 122 182 122 182 124 c 128,-1,62
 182 126 182 126 181 126 c 0,63,64
 178 126 178 126 165 115 c 128,-1,65
 152 104 152 104 87.5 58 c 128,-1,66
 23 12 23 12 9 7.5 c 128,-1,67
 -5 3 -5 3 -10 3 c 0,68,69
 -25 3 -25 3 -25 24 c 128,-1,70
 -25 45 -25 45 20.5 107 c 128,-1,71
 66 169 66 169 112.5 219.5 c 128,-1,72
 159 270 159 270 165 270 c 2,73,-1
 172 270 l 2,7,8
EndSplineSet
EndChar

StartChar: x
Encoding: 120 120 90
Width: 311
GlyphClass: 2
Flags: W
LayerCount: 2
Fore
SplineSet
191 238 m 1,0,1
 195 245 195 245 213 245 c 128,-1,2
 231 245 231 245 231 227.5 c 128,-1,3
 231 210 231 210 203 142 c 1,4,5
 235 165 235 165 274 195 c 1,6,7
 374 265 374 265 390 265 c 0,8,9
 394 265 394 265 394 260.5 c 128,-1,10
 394 256 394 256 386 251 c 0,11,12
 331 219 331 219 274 178 c 2,13,-1
 195 122 l 1,14,15
 168 51 168 51 162 18 c 0,16,17
 162 14 162 14 168 14 c 128,-1,18
 174 14 174 14 219 40 c 128,-1,19
 264 66 264 66 304 92 c 2,20,-1
 345 118 l 1,21,-1
 346 106 l 1,22,23
 185 -1 185 -1 150 -1 c 0,24,25
 139 -1 139 -1 139 25.5 c 128,-1,26
 139 52 139 52 149 89 c 1,27,28
 129 75 129 75 74.5 41.5 c 128,-1,29
 20 8 20 8 -0.5 -3 c 128,-1,30
 -21 -14 -21 -14 -28.5 -14 c 128,-1,31
 -36 -14 -36 -14 -38 -9 c 1,32,33
 -38 -1 -38 -1 0 15 c 128,-1,34
 38 31 38 31 123 87 c 2,35,-1
 155 108 l 1,36,37
 167 146 167 146 181 181 c 128,-1,38
 195 216 195 216 195 218 c 128,-1,39
 195 220 195 220 193 220 c 1,40,41
 147 174 147 174 47 112 c 0,42,43
 26 99 26 99 25 98 c 1,44,-1
 22 110 l 1,45,46
 104 161 104 161 140 191 c 128,-1,47
 176 221 176 221 184 230 c 2,48,-1
 191 238 l 1,0,1
EndSplineSet
EndChar

StartChar: y
Encoding: 121 121 91
Width: 343
GlyphClass: 2
Flags: W
LayerCount: 2
Fore
SplineSet
192 251 m 0,0,1
 199 261 199 261 207 261 c 128,-1,2
 215 261 215 261 224 246 c 1,3,4
 224 228 224 228 133.5 128 c 128,-1,5
 43 28 43 28 43 19 c 0,6,7
 43 17 43 17 49 17 c 128,-1,8
 55 17 55 17 119 58 c 128,-1,9
 183 99 183 99 217 126 c 0,10,11
 271 170 271 170 316 224 c 1,12,-1
 334 247 l 1,13,14
 358 269 358 269 376 269 c 0,15,16
 377 269 377 269 378 269 c 0,17,18
 397 268 397 268 397 264 c 1,19,-1
 396 262 l 1,20,21
 363 224 363 224 284 128 c 128,-1,22
 205 32 205 32 194 13 c 1,23,24
 202 13 202 13 248 39 c 128,-1,25
 294 65 294 65 336 92 c 2,26,-1
 377 118 l 1,27,-1
 378 106 l 1,28,29
 314 62 314 62 258 32 c 2,30,-1
 167 -15 l 1,31,32
 88 -122 88 -122 -30.5 -244.5 c 128,-1,33
 -149 -367 -149 -367 -170 -367 c 128,-1,34
 -191 -367 -191 -367 -191 -353 c 0,35,36
 -191 -304 -191 -304 -146 -250 c 0,37,38
 -94 -189 -94 -189 -51.5 -154 c 128,-1,39
 -9 -119 -9 -119 12 -102 c 0,40,41
 87 -44 87 -44 115 -24 c 1,42,43
 156 26 156 26 176 48 c 0,44,45
 218 97 218 97 248 133 c 1,46,-1
 236 125 l 2,47,48
 222 116 222 116 214 111 c 0,49,50
 63 3 63 3 33 3 c 0,51,52
 21 3 21 3 21 16.5 c 128,-1,53
 21 30 21 30 33 52.5 c 128,-1,54
 45 75 45 75 56 90 c 128,-1,55
 67 105 67 105 87 128.5 c 128,-1,56
 107 152 107 152 108 153 c 2,57,-1
 23 99 l 1,58,-1
 20 110 l 1,59,-1
 58 136 l 2,60,61
 129 185 129 185 150.5 203.5 c 128,-1,62
 172 222 172 222 192 251 c 0,0,1
-162 -344 m 0,63,64
 -156 -344 -156 -344 -94.5 -274 c 128,-1,65
 -33 -204 -33 -204 26 -134 c 1,66,-1
 84 -63 l 1,67,68
 84 -61 84 -61 82 -61 c 1,69,70
 -165 -241 -165 -241 -165 -338 c 0,71,72
 -165 -344 -165 -344 -162 -344 c 0,63,64
EndSplineSet
EndChar

StartChar: z
Encoding: 122 122 92
Width: 331
GlyphClass: 2
Flags: W
LayerCount: 2
Fore
SplineSet
-218 -336 m 0,0,1
 -218 -340 -218 -340 -213 -340 c 0,2,3
 -172 -340 -172 -340 -48 -230 c 128,-1,4
 76 -120 76 -120 145 -29 c 1,5,6
 10 -105 10 -105 -104 -205.5 c 128,-1,7
 -218 -306 -218 -306 -218 -336 c 0,0,1
160 -9 m 1,8,9
 182 22 182 22 182 36 c 128,-1,10
 182 50 182 50 169 50 c 0,11,12
 146 50 146 50 106.5 35.5 c 128,-1,13
 67 21 67 21 50.5 11.5 c 128,-1,14
 34 2 34 2 28.5 2 c 128,-1,15
 23 2 23 2 23 5 c 0,16,17
 23 11 23 11 35.5 18.5 c 128,-1,18
 48 26 48 26 84.5 50 c 128,-1,19
 121 74 121 74 174 111.5 c 128,-1,20
 227 149 227 149 266.5 188 c 128,-1,21
 306 227 306 227 306 250 c 0,22,23
 306 253 306 253 298 253 c 128,-1,24
 290 253 290 253 266 243 c 128,-1,25
 242 233 242 233 210 214 c 128,-1,26
 178 195 178 195 150.5 178 c 128,-1,27
 123 161 123 161 87 138 c 128,-1,28
 51 115 51 115 41 109 c 128,-1,29
 31 103 31 103 24 98 c 1,30,-1
 21 110 l 1,31,32
 134 182 134 182 205 222 c 1,33,-1
 232 238 l 1,34,35
 241 242 241 242 258 252 c 0,36,37
 293 273 293 273 310 273 c 0,38,39
 340 273 340 273 340 241.5 c 128,-1,40
 340 210 340 210 311 176.5 c 128,-1,41
 282 143 282 143 246.5 122.5 c 128,-1,42
 211 102 211 102 182 86 c 128,-1,43
 153 70 153 70 153 66 c 128,-1,44
 153 62 153 62 158 62 c 0,45,46
 206 62 206 62 206 25 c 2,47,-1
 206 19 l 1,48,-1
 368 118 l 1,49,-1
 369 107 l 1,50,51
 304 65 304 65 249 32 c 1,52,53
 223 18 223 18 203 4 c 1,54,55
 187 -56 187 -56 95.5 -144.5 c 128,-1,56
 4 -233 4 -233 -92.5 -295.5 c 128,-1,57
 -189 -358 -189 -358 -226 -358 c 0,58,59
 -239 -358 -239 -358 -239 -347 c 128,-1,60
 -239 -336 -239 -336 -227.5 -315.5 c 128,-1,61
 -216 -295 -216 -295 -186.5 -262 c 128,-1,62
 -157 -229 -157 -229 -114 -192 c 0,63,64
 -16 -106 -16 -106 160 -9 c 1,8,9
EndSplineSet
EndChar

StartChar: braceleft
Encoding: 123 123 93
Width: 339
GlyphClass: 2
Flags: W
LayerCount: 2
Fore
SplineSet
664 723 m 0,0,1
 664 718 664 718 646 710 c 1,2,3
 555 710 555 710 491 640 c 0,4,5
 462 609 462 609 435 570.5 c 128,-1,6
 408 532 408 532 379 491 c 128,-1,7
 350 450 350 450 318 413.5 c 128,-1,8
 286 377 286 377 239 348 c 128,-1,9
 192 319 192 319 136 307 c 1,10,11
 208 307 208 307 208 253 c 0,12,13
 208 208 208 208 144.5 93.5 c 128,-1,14
 81 -21 81 -21 81 -53 c 128,-1,15
 81 -85 81 -85 105 -85 c 0,16,17
 125 -85 125 -85 144.5 -74.5 c 128,-1,18
 164 -64 164 -64 166 -64 c 128,-1,19
 168 -64 168 -64 168 -66.5 c 128,-1,20
 168 -69 168 -69 159 -75 c 1,21,22
 101 -106 101 -106 69 -106 c 0,23,24
 30 -106 30 -106 30 -62 c 0,25,26
 30 -31 30 -31 71 32 c 128,-1,27
 112 95 112 95 153 158.5 c 128,-1,28
 194 222 194 222 194 254 c 0,29,30
 194 295 194 295 129 295 c 0,31,32
 119 295 119 295 83 291 c 0,33,34
 79 291 79 291 79 296 c 128,-1,35
 79 301 79 301 86.5 309.5 c 128,-1,36
 94 318 94 318 102 318 c 0,37,38
 166 324 166 324 213 349.5 c 128,-1,39
 260 375 260 375 288 411.5 c 128,-1,40
 316 448 316 448 339 490.5 c 128,-1,41
 362 533 362 533 386.5 574.5 c 128,-1,42
 411 616 411 616 442.5 650 c 128,-1,43
 474 684 474 684 528 705 c 128,-1,44
 582 726 582 726 655 726 c 0,45,46
 664 726 664 726 664 723 c 0,0,1
EndSplineSet
EndChar

StartChar: bar
Encoding: 124 124 94
Width: 274
GlyphClass: 2
Flags: W
LayerCount: 2
Fore
SplineSet
61 -107 m 1,0,1
 107 5 107 5 172 216 c 0,2,3
 274 545 274 545 328 757 c 0,4,5
 334 781 334 781 342 784 c 1,6,7
 349 784 349 784 354.5 776 c 128,-1,8
 360 768 360 768 360 763 c 0,9,10
 360 736 360 736 256.5 400.5 c 128,-1,11
 153 65 153 65 87 -107 c 1,12,13
 79 -123 79 -123 74 -123 c 0,14,15
 65 -123 65 -123 61 -107 c 1,0,1
EndSplineSet
EndChar

StartChar: braceright
Encoding: 125 125 95
Width: 438
GlyphClass: 2
Flags: W
LayerCount: 2
Fore
SplineSet
-140 -125 m 0,0,1
 -140 -120 -140 -120 -122 -112 c 1,2,3
 -31 -112 -31 -112 33 -42 c 0,4,5
 62 -11 62 -11 89 27.5 c 128,-1,6
 116 66 116 66 145 107 c 128,-1,7
 174 148 174 148 206 184.5 c 128,-1,8
 238 221 238 221 285 250 c 128,-1,9
 332 279 332 279 388 291 c 1,10,11
 316 291 316 291 316 345 c 0,12,13
 316 390 316 390 379.5 504.5 c 128,-1,14
 443 619 443 619 443 651 c 128,-1,15
 443 683 443 683 419 683 c 0,16,17
 399 683 399 683 379.5 672.5 c 128,-1,18
 360 662 360 662 358 662 c 128,-1,19
 356 662 356 662 356 664.5 c 128,-1,20
 356 667 356 667 365 673 c 1,21,22
 423 704 423 704 455 704 c 0,23,24
 494 704 494 704 494 660 c 0,25,26
 494 629 494 629 453 566 c 128,-1,27
 412 503 412 503 371 439.5 c 128,-1,28
 330 376 330 376 330 344 c 0,29,30
 330 303 330 303 395 303 c 0,31,32
 405 303 405 303 441 307 c 0,33,34
 445 307 445 307 445 302 c 128,-1,35
 445 297 445 297 437.5 288.5 c 128,-1,36
 430 280 430 280 422 280 c 0,37,38
 358 274 358 274 311 248.5 c 128,-1,39
 264 223 264 223 236 186.5 c 128,-1,40
 208 150 208 150 185 107.5 c 128,-1,41
 162 65 162 65 137.5 23.5 c 128,-1,42
 113 -18 113 -18 81.5 -52 c 128,-1,43
 50 -86 50 -86 -4 -107 c 128,-1,44
 -58 -128 -58 -128 -131 -128 c 0,45,46
 -140 -128 -140 -128 -140 -125 c 0,0,1
EndSplineSet
EndChar

StartChar: asciitilde
Encoding: 126 126 96
Width: 370
GlyphClass: 2
Flags: W
LayerCount: 2
Fore
SplineSet
93 120 m 0,0,1
 92 119 92 119 86.5 119 c 128,-1,2
 81 119 81 119 81 122.5 c 128,-1,3
 81 126 81 126 85 130 c 0,4,5
 108 153 108 153 147 153 c 0,6,7
 165 153 165 153 209 142 c 128,-1,8
 253 131 253 131 290.5 131 c 128,-1,9
 328 131 328 131 343 148 c 0,10,11
 344 150 344 150 348 150 c 128,-1,12
 352 150 352 150 352 144.5 c 128,-1,13
 352 139 352 139 351 138 c 0,14,15
 327 109 327 109 278 109 c 0,16,17
 250 109 250 109 207.5 122 c 128,-1,18
 165 135 165 135 137 135 c 128,-1,19
 109 135 109 135 93 120 c 0,0,1
EndSplineSet
EndChar

StartChar: exclamdown
Encoding: 161 161 97
Width: 308
GlyphClass: 2
Flags: W
LayerCount: 2
Fore
SplineSet
-148 -300 m 0,0,1
 -162 -320 -162 -320 -171 -320 c 128,-1,2
 -180 -320 -180 -320 -180 -295.5 c 128,-1,3
 -180 -271 -180 -271 -58 -117.5 c 128,-1,4
 64 36 64 36 215 209 c 1,5,6
 226 220 226 220 233 220 c 128,-1,7
 240 220 240 220 240 204 c 2,8,-1
 240 200 l 1,9,10
 131 65 131 65 7 -95.5 c 128,-1,11
 -117 -256 -117 -256 -148 -300 c 0,0,1
276.5 312.5 m 128,-1,13
 290 327 290 327 306.5 327 c 128,-1,14
 323 327 323 327 323 311 c 0,15,16
 323 298 323 298 308.5 284 c 128,-1,17
 294 270 294 270 283.5 270 c 128,-1,18
 273 270 273 270 268 276 c 128,-1,19
 263 282 263 282 263 290 c 128,-1,12
 263 298 263 298 276.5 312.5 c 128,-1,13
EndSplineSet
EndChar

StartChar: cent
Encoding: 162 162 98
Width: 232
GlyphClass: 2
Flags: W
LayerCount: 2
Fore
SplineSet
183 192 m 128,-1,1
 188 201 188 201 193 201 c 128,-1,2
 198 201 198 201 202 194 c 1,3,4
 258 238 258 238 258 259 c 0,5,6
 258 262 258 262 253 262 c 0,7,8
 221 262 221 262 165 217 c 128,-1,9
 109 172 109 172 65.5 113.5 c 128,-1,10
 22 55 22 55 22 21 c 0,11,12
 22 12 22 12 31 12 c 0,13,14
 68 12 68 12 177 80 c 1,15,-1
 237 119 l 1,16,-1
 238 106 l 1,17,18
 213 90 213 90 181 70 c 0,19,20
 71 1 71 1 25 -2 c 1,21,22
 7 -26 7 -26 -6 -48 c 0,23,24
 -31 -89 -31 -89 -36 -89 c 0,25,26
 -43 -89 -43 -89 -43 -71 c 0,27,28
 -43 -64 -43 -64 8 3 c 1,29,30
 0 12 0 12 0 41 c 0,31,32
 0 104 0 104 86.5 187 c 128,-1,33
 173 270 173 270 251 274 c 1,34,35
 271 301 271 301 286 324 c 1,36,37
 310 365 310 365 315 365 c 0,38,39
 322 365 322 365 322 347 c 0,40,41
 322 340 322 340 269 272 c 1,42,43
 277 267 277 267 277 259 c 0,44,45
 277 237 277 237 242.5 201 c 128,-1,46
 208 165 208 165 193 165 c 128,-1,47
 178 165 178 165 178 176 c 0,48,0
 178 183 178 183 183 192 c 128,-1,1
EndSplineSet
EndChar

StartChar: sterling
Encoding: 163 163 99
Width: 624
GlyphClass: 2
Flags: W
LayerCount: 2
Fore
SplineSet
196 42 m 1,0,1
 149 78 149 78 132 133 c 1,2,3
 68 43 68 43 68 -86 c 0,4,5
 68 -106 68 -106 74 -108 c 1,6,7
 94 -108 94 -108 196 42 c 1,0,1
259 282 m 2,8,-1
 353 280 l 1,9,10
 457 434 457 434 531 523.5 c 128,-1,11
 605 613 605 613 646 613 c 0,12,13
 666 613 666 613 666 576.5 c 128,-1,14
 666 540 666 540 641 474.5 c 128,-1,15
 616 409 616 409 580 357 c 128,-1,16
 544 305 544 305 518 305 c 0,17,18
 501 305 501 305 501 338.5 c 128,-1,19
 501 372 501 372 527.5 434.5 c 128,-1,20
 554 497 554 497 570 497 c 0,21,22
 576 497 576 497 576 489 c 0,23,24
 576 487 576 487 575 485 c 0,25,26
 555 459 555 459 538.5 414.5 c 128,-1,27
 522 370 522 370 522 347 c 128,-1,28
 522 324 522 324 532 324 c 0,29,30
 559 324 559 324 604.5 426 c 128,-1,31
 650 528 650 528 650 579 c 0,32,33
 650 599 650 599 639 599 c 0,34,35
 622 599 622 599 561.5 518 c 128,-1,36
 501 437 501 437 390 278 c 1,37,-1
 476 275 l 2,38,39
 496 275 496 275 496 270.5 c 128,-1,40
 496 266 496 266 485 261.5 c 128,-1,41
 474 257 474 257 445.5 257 c 128,-1,42
 417 257 417 257 376 258 c 1,43,-1
 353 226 l 1,44,-1
 452 222 l 2,45,46
 472 222 472 222 472 217.5 c 128,-1,47
 472 213 472 213 460 208.5 c 128,-1,48
 448 204 448 204 440.5 204 c 128,-1,49
 433 204 433 204 339 206 c 1,50,-1
 231 55 l 1,51,52
 283 24 283 24 342 24 c 128,-1,53
 401 24 401 24 463 34.5 c 128,-1,54
 525 45 525 45 558 56 c 2,55,-1
 591 66 l 1,56,-1
 594 66 l 2,57,58
 599 66 599 66 599 61.5 c 128,-1,59
 599 57 599 57 593 55 c 0,60,61
 431 4 431 4 324 4 c 0,62,63
 263 4 263 4 213 31 c 1,64,65
 87 -137 87 -137 55 -137 c 0,66,67
 41 -137 41 -137 41 -85.5 c 128,-1,68
 41 -34 41 -34 67 33.5 c 128,-1,69
 93 101 93 101 118.5 138 c 128,-1,70
 144 175 144 175 151 175 c 0,71,72
 154 175 154 175 154 171 c 2,73,-1
 153 162 l 1,74,75
 165 103 165 103 213 67 c 1,76,-1
 304 206 l 1,77,-1
 220 206 l 2,78,79
 211 206 211 206 211 212 c 0,80,81
 211 229 211 229 232 229 c 0,82,83
 285 229 285 229 318 227 c 1,84,-1
 338 258 l 1,85,-1
 247 258 l 2,86,87
 238 258 238 258 238 265.5 c 128,-1,88
 238 273 238 273 245 277.5 c 128,-1,89
 252 282 252 282 259 282 c 2,8,-1
EndSplineSet
EndChar

StartChar: currency
Encoding: 164 164 100
Width: 262
GlyphClass: 2
Flags: W
LayerCount: 2
Fore
SplineSet
146 158 m 128,-1,1
 172 158 172 158 197 190 c 128,-1,2
 222 222 222 222 222 248.5 c 128,-1,3
 222 275 222 275 196 275 c 128,-1,4
 170 275 170 275 145 243 c 128,-1,5
 120 211 120 211 120 184.5 c 128,-1,0
 120 158 120 158 146 158 c 128,-1,1
200 164 m 1,6,7
 172 146 172 146 149.5 146 c 128,-1,8
 127 146 127 146 122 148 c 1,9,-1
 87 106 l 2,10,11
 80 99 80 99 75.5 99 c 128,-1,12
 71 99 71 99 71 109 c 2,13,-1
 71 112 l 1,14,-1
 108 154 l 1,15,16
 94 164 94 164 94 190.5 c 128,-1,17
 94 217 94 217 122 247 c 1,18,-1
 87 288 l 1,19,-1
 87 291 l 2,20,21
 87 301 87 301 91.5 301 c 128,-1,22
 96 301 96 301 103 294 c 1,23,-1
 133 257 l 1,24,25
 165 286 165 286 206 286 c 0,26,27
 212 286 212 286 222 284 c 1,28,-1
 257 326 l 2,29,30
 264 333 264 333 268.5 333 c 128,-1,31
 273 333 273 333 273 323 c 2,32,-1
 273 320 l 1,33,-1
 236 278 l 1,34,35
 252 268 252 268 252 247 c 0,36,37
 252 207 252 207 212 173 c 1,38,-1
 243 138 l 1,39,-1
 243 135 l 2,40,41
 243 125 243 125 238.5 125 c 128,-1,42
 234 125 234 125 227 132 c 1,43,44
 212 151 212 151 200 164 c 1,6,7
EndSplineSet
EndChar

StartChar: yen
Encoding: 165 165 101
Width: 407
GlyphClass: 2
Flags: W
LayerCount: 2
Fore
SplineSet
753 569 m 1,0,-1
 763 582 l 2,1,2
 763 583 763 583 760 583 c 0,3,4
 707 583 707 583 544.5 456 c 128,-1,5
 382 329 382 329 243 181 c 1,6,-1
 314 178 l 2,7,8
 334 178 334 178 334 173.5 c 128,-1,9
 334 169 334 169 323 164.5 c 128,-1,10
 312 160 312 160 286 160 c 128,-1,11
 260 160 260 160 224 161 c 1,12,-1
 205 139 l 1,13,-1
 292 136 l 2,14,15
 312 136 312 136 312 131.5 c 128,-1,16
 312 127 312 127 300 122.5 c 128,-1,17
 288 118 288 118 280 118 c 128,-1,18
 272 118 272 118 188 120 c 1,19,-1
 179 109 l 1,20,-1
 90 -16 l 1,21,22
 76 -32 76 -32 47 -32 c 0,23,24
 42 -32 42 -32 42 -31 c 0,25,26
 96 32 96 32 158 120 c 1,27,-1
 60 120 l 2,28,29
 51 120 51 120 51 126 c 0,30,31
 51 143 51 143 74 143 c 128,-1,32
 97 143 97 143 173 141 c 1,33,-1
 187 161 l 1,34,-1
 85 161 l 2,35,36
 76 161 76 161 76 168.5 c 128,-1,37
 76 176 76 176 83 180.5 c 128,-1,38
 90 185 90 185 116 185 c 128,-1,39
 142 185 142 185 201 182 c 1,40,-1
 225 220 l 2,41,42
 227 223 227 223 284 306 c 0,43,44
 414 497 414 497 428 577 c 1,45,46
 426 599 426 599 403 599 c 0,47,48
 362 599 362 599 306.5 558 c 128,-1,49
 251 517 251 517 206 463 c 128,-1,50
 161 409 161 409 129.5 356 c 128,-1,51
 98 303 98 303 98 284.5 c 128,-1,52
 98 266 98 266 109 266 c 0,53,54
 147 266 147 266 196 302 c 128,-1,55
 245 338 245 338 291 391 c 0,56,57
 295 395 295 395 297.5 395 c 128,-1,58
 300 395 300 395 300 391 c 128,-1,59
 300 387 300 387 296 382 c 0,60,61
 269 343 269 343 206 299 c 128,-1,62
 143 255 143 255 102 255 c 0,63,64
 86 255 86 255 86 282.5 c 128,-1,65
 86 310 86 310 111 363.5 c 128,-1,66
 136 417 136 417 177 471 c 128,-1,67
 218 525 218 525 279.5 564.5 c 128,-1,68
 341 604 341 604 404 604 c 0,69,70
 443 604 443 604 443 560.5 c 128,-1,71
 443 517 443 517 395.5 435.5 c 128,-1,72
 348 354 348 354 287 268 c 128,-1,73
 226 182 226 182 225 181 c 1,74,-1
 227 181 l 1,75,76
 502 469 502 469 692 578 c 0,77,78
 769 623 769 623 817 623 c 0,79,80
 829 623 829 623 829 619 c 128,-1,81
 829 615 829 615 810 602 c 0,82,83
 761 567 761 567 757 567 c 128,-1,84
 753 567 753 567 753 569 c 1,0,-1
EndSplineSet
EndChar

StartChar: brokenbar
Encoding: 166 166 102
Width: 274
GlyphClass: 2
Flags: W
LayerCount: 2
Fore
SplineSet
224 395 m 1,0,-1
 343 760 l 1,1,2
 349 784 349 784 357 787 c 1,3,4
 364 787 364 787 369.5 779 c 128,-1,5
 375 771 375 771 375 766 c 1,6,-1
 250 395 l 1,7,8
 242 379 242 379 237 379 c 0,9,10
 228 379 228 379 224 395 c 1,0,-1
61 -107 m 1,11,-1
 189 287 l 1,12,13
 195 311 195 311 203 314 c 1,14,15
 210 314 210 314 215.5 306 c 128,-1,16
 221 298 221 298 221 293 c 1,17,-1
 87 -107 l 1,18,19
 79 -123 79 -123 74 -123 c 0,20,21
 65 -123 65 -123 61 -107 c 1,11,-1
EndSplineSet
EndChar

StartChar: section
Encoding: 167 167 103
Width: 358
GlyphClass: 2
Flags: W
LayerCount: 2
Fore
SplineSet
261 126 m 2,0,-1
 261 111 l 1,1,2
 325 145 325 145 325 234 c 0,3,4
 325 267 325 267 301.5 316 c 128,-1,5
 278 365 278 365 273 377 c 1,6,7
 237 360 237 360 223.5 346.5 c 128,-1,8
 210 333 210 333 210 312.5 c 128,-1,9
 210 292 210 292 223 268 c 0,10,11
 261 196 261 196 261 126 c 2,0,-1
177 297 m 0,12,13
 177 329 177 329 199 349 c 128,-1,14
 221 369 221 369 268 389 c 1,15,16
 255 422 255 422 255 446 c 0,17,18
 255 486 255 486 309.5 512 c 128,-1,19
 364 538 364 538 429.5 538 c 128,-1,20
 495 538 495 538 495 501 c 0,21,22
 495 469 495 469 443 419.5 c 128,-1,23
 391 370 391 370 345 366 c 1,24,25
 331 366 331 366 331 379 c 0,26,27
 331 387 331 387 337.5 396.5 c 128,-1,28
 344 406 344 406 351 407 c 0,29,30
 357 407 357 407 357 400 c 0,31,32
 357 399 357 399 353 394 c 1,33,34
 387 398 387 398 436 437.5 c 128,-1,35
 485 477 485 477 485 498 c 0,36,37
 485 524 485 524 434 524 c 128,-1,38
 383 524 383 524 334.5 502 c 128,-1,39
 286 480 286 480 286 449 c 128,-1,40
 286 418 286 418 326 347 c 128,-1,41
 366 276 366 276 366 248 c 0,42,43
 366 132 366 132 258 95 c 1,44,45
 251 59 251 59 226.5 31.5 c 128,-1,46
 202 4 202 4 172 -10 c 0,47,48
 109 -40 109 -40 61 -40 c 0,49,50
 -1 -40 -1 -40 -1 4 c 0,51,52
 -1 44 -1 44 42.5 89.5 c 128,-1,53
 86 135 86 135 129 135 c 0,54,55
 141 135 141 135 141 124.5 c 128,-1,56
 141 114 141 114 128.5 102 c 128,-1,57
 116 90 116 90 107.5 90 c 128,-1,58
 99 90 99 90 99 94 c 0,59,60
 99 95 99 95 108.5 100.5 c 128,-1,61
 118 106 118 106 118 108 c 128,-1,62
 118 110 118 110 110 110 c 0,63,64
 82 110 82 110 52 73 c 128,-1,65
 22 36 22 36 22 5 c 0,66,67
 22 -30 22 -30 65 -30 c 0,68,69
 129 -30 129 -30 174.5 12 c 128,-1,70
 220 54 220 54 220 111 c 128,-1,71
 220 168 220 168 198.5 226.5 c 128,-1,72
 177 285 177 285 177 297 c 0,12,13
EndSplineSet
EndChar

StartChar: dieresis
Encoding: 168 168 104
Width: 365
GlyphClass: 2
Flags: W
LayerCount: 2
Fore
SplineSet
201 348.5 m 128,-1,1
 201 364 201 364 216 378 c 128,-1,2
 231 392 231 392 241.5 392 c 128,-1,3
 252 392 252 392 257.5 386 c 128,-1,4
 263 380 263 380 263 372 c 128,-1,5
 263 364 263 364 249 348.5 c 128,-1,6
 235 333 235 333 218 333 c 128,-1,0
 201 333 201 333 201 348.5 c 128,-1,1
121 348.5 m 128,-1,8
 121 364 121 364 136 378 c 128,-1,9
 151 392 151 392 161.5 392 c 128,-1,10
 172 392 172 392 177.5 386 c 128,-1,11
 183 380 183 380 183 372 c 128,-1,12
 183 364 183 364 169 348.5 c 128,-1,13
 155 333 155 333 138 333 c 128,-1,7
 121 333 121 333 121 348.5 c 128,-1,8
EndSplineSet
EndChar

StartChar: copyright
Encoding: 169 169 105
Width: 500
GlyphClass: 2
Flags: W
LayerCount: 2
Fore
SplineSet
149 38 m 0,0,1
 124 38 124 38 124 62 c 0,2,3
 124 111 124 111 195.5 185 c 128,-1,4
 267 259 267 259 338 259 c 0,5,6
 354 259 354 259 354 247 c 0,7,8
 354 229 354 229 326.5 200 c 128,-1,9
 299 171 299 171 287 171 c 128,-1,10
 275 171 275 171 275 180 c 0,11,12
 275 185 275 185 279 192.5 c 128,-1,13
 283 200 283 200 287 200 c 1,14,-1
 294 195 l 1,15,16
 339 230 339 230 339 247 c 0,17,18
 339 249 339 249 335 249 c 0,19,20
 295 249 295 249 225.5 178.5 c 128,-1,21
 156 108 156 108 156 65 c 0,22,23
 156 58 156 58 164 58 c 0,24,25
 203 58 203 58 274 103 c 1,26,-1
 322 135 l 1,27,-1
 323 124 l 1,28,29
 197 38 197 38 149 38 c 0,0,1
131 -13 m 0,30,31
 190 -13 190 -13 242 15.5 c 128,-1,32
 294 44 294 44 326 86 c 128,-1,33
 358 128 358 128 376.5 172.5 c 128,-1,34
 395 217 395 217 395 253 c 0,35,36
 395 308 395 308 356 308 c 0,37,38
 297 308 297 308 245 279.5 c 128,-1,39
 193 251 193 251 161 209 c 128,-1,40
 129 167 129 167 110.5 122.5 c 128,-1,41
 92 78 92 78 92 42 c 0,42,43
 92 -13 92 -13 131 -13 c 0,30,31
120 -28 m 0,44,45
 89 -28 89 -28 72.5 -6.5 c 128,-1,46
 56 15 56 15 56 53 c 128,-1,47
 56 91 56 91 76.5 137 c 128,-1,48
 97 183 97 183 134 225 c 128,-1,49
 171 267 171 267 232 294.5 c 128,-1,50
 293 322 293 322 365 322 c 0,51,52
 399 322 399 322 416.5 301.5 c 128,-1,53
 434 281 434 281 434 244 c 128,-1,54
 434 207 434 207 411.5 160.5 c 128,-1,55
 389 114 389 114 350.5 71.5 c 128,-1,56
 312 29 312 29 250.5 0.5 c 128,-1,57
 189 -28 189 -28 120 -28 c 0,44,45
EndSplineSet
EndChar

StartChar: ordfeminine
Encoding: 170 170 106
Width: 301
GlyphClass: 2
Flags: W
LayerCount: 2
Fore
SplineSet
324 367 m 1,0,-1
 325 358 l 1,1,2
 212 283 212 283 188 283 c 0,3,4
 184 283 184 283 184 288 c 0,5,6
 184 300 184 300 194 330 c 1,7,-1
 198 340 l 2,8,9
 198 341 198 341 196 341 c 128,-1,10
 194 341 194 341 156 313 c 256,11,12
 118 285 118 285 106 285 c 128,-1,13
 94 285 94 285 94 306 c 0,14,15
 94 365 94 365 160 420 c 128,-1,16
 226 475 226 475 320 475 c 0,17,18
 328 475 328 475 328 468 c 128,-1,19
 328 461 328 461 262 386.5 c 128,-1,20
 196 312 196 312 196 296 c 0,21,22
 196 294 196 294 200 294 c 0,23,24
 212 294 212 294 296 348 c 1,25,-1
 324 367 l 1,0,-1
213 366 m 0,26,27
 225 376 225 376 259.5 415 c 128,-1,28
 294 454 294 454 294 460 c 0,29,30
 294 463 294 463 288 463 c 0,31,32
 239 463 239 463 175 402.5 c 128,-1,33
 111 342 111 342 111 305 c 0,34,35
 111 301 111 301 115 301 c 0,36,37
 133 301 133 301 213 366 c 0,26,27
EndSplineSet
EndChar

StartChar: guillemotleft
Encoding: 171 171 107
Width: 470
GlyphClass: 2
Flags: W
LayerCount: 2
Fore
SplineSet
238 118 m 1,0,-1
 366 56 l 1,1,2
 367 53 367 53 367 50 c 0,3,4
 367 42 367 42 359 42 c 1,5,6
 339 52 339 52 290.5 75 c 128,-1,7
 242 98 242 98 228 106 c 128,-1,8
 214 114 214 114 214 120 c 0,9,10
 214 134 214 134 238 137 c 2,11,-1
 387 159 l 2,12,13
 391 159 391 159 391 157 c 2,14,-1
 388 151 l 1,15,-1
 245 130 l 2,16,17
 234 128 234 128 234 125 c 128,-1,18
 234 122 234 122 238 118 c 1,0,-1
128 130 m 2,19,-1
 278 58 l 2,20,21
 283 55 283 55 283 51 c 0,22,23
 283 42 283 42 269 42 c 1,24,-1
 136 106 l 2,25,26
 133 107 133 107 128.5 109.5 c 128,-1,27
 124 112 124 112 122 113 c 128,-1,28
 120 114 120 114 116.5 115.5 c 128,-1,29
 113 117 113 117 111 118 c 128,-1,30
 109 119 109 119 107 120.5 c 128,-1,31
 105 122 105 122 103.5 123.5 c 128,-1,32
 102 125 102 125 101 126 c 0,33,34
 99 130 99 130 99 133 c 0,35,36
 99 148 99 148 127 153 c 2,37,-1
 303 179 l 2,38,39
 309 179 309 179 309 175.5 c 128,-1,40
 309 172 309 172 304 170 c 1,41,-1
 136 145 l 2,42,43
 122 142 122 142 122 136 c 0,44,45
 122 133 122 133 128 130 c 2,19,-1
EndSplineSet
EndChar

StartChar: logicalnot
Encoding: 172 172 108
Width: 400
GlyphClass: 2
Flags: W
LayerCount: 2
Fore
SplineSet
126 250 m 1,0,-1
 155 251 l 2,1,2
 234 254 234 254 279 257 c 2,3,-1
 372 263 l 2,4,5
 380 263 380 263 382 257 c 1,6,-1
 323 156 l 1,7,8
 321 148 321 148 314.5 148 c 128,-1,9
 308 148 308 148 308 154 c 0,10,11
 308 157 308 157 315 172 c 128,-1,12
 322 187 322 187 326 193 c 2,13,-1
 349 236 l 1,14,15
 318 234 318 234 229 234 c 2,16,-1
 121 235 l 2,17,18
 109 235 109 235 108 240 c 1,19,20
 108 248 108 248 121 250 c 1,21,-1
 126 250 l 1,0,-1
EndSplineSet
EndChar

StartChar: registered
Encoding: 174 174 109
Width: 500
GlyphClass: 2
Flags: W
LayerCount: 2
Fore
SplineSet
238 176 m 1,0,-1
 237 164 l 2,1,2
 236 151 236 151 236 146 c 1,3,-1
 237 146 l 2,4,5
 266 146 266 146 315 189.5 c 128,-1,6
 364 233 364 233 364 256 c 0,7,8
 364 267 364 267 348 267 c 0,9,10
 312 267 312 267 257 227 c 128,-1,11
 202 187 202 187 161.5 137 c 128,-1,12
 121 87 121 87 121 58 c 0,13,14
 121 57 121 57 122 57 c 0,15,16
 134 57 134 57 182.5 121 c 128,-1,17
 231 185 231 185 234.5 196 c 128,-1,18
 238 207 238 207 240.5 207 c 128,-1,19
 243 207 243 207 243 199 c 128,-1,20
 243 191 243 191 242 189 c 2,21,-1
 235 175 l 2,22,23
 237 177 237 177 238 177 c 1,24,-1
 238 176 l 1,0,-1
131 -13 m 0,25,26
 230 -13 230 -13 305 64 c 1,27,28
 279 49 279 49 260 49 c 0,29,30
 226 49 226 49 226 107 c 0,31,32
 226 136 226 136 232 163 c 1,33,34
 232 169 232 169 233 173 c 1,35,36
 213 136 213 136 171.5 93.5 c 128,-1,37
 130 51 130 51 119 51 c 0,38,39
 104 51 104 51 104 66 c 0,40,41
 104 92 104 92 142 141.5 c 128,-1,42
 180 191 180 191 240.5 233.5 c 128,-1,43
 301 276 301 276 352 276 c 0,44,45
 386 276 386 276 386 255 c 0,46,47
 386 225 386 225 332 181.5 c 128,-1,48
 278 138 278 138 238 138 c 2,49,-1
 236 138 l 1,50,51
 239 56 239 56 264 56 c 0,52,53
 281 56 281 56 318 78 c 1,54,55
 354 119 354 119 374.5 167.5 c 128,-1,56
 395 216 395 216 395 254 c 0,57,58
 395 308 395 308 356 308 c 0,59,60
 297 308 297 308 245 279.5 c 128,-1,61
 193 251 193 251 161 209 c 128,-1,62
 129 167 129 167 110.5 122.5 c 128,-1,63
 92 78 92 78 92 42 c 0,64,65
 92 -13 92 -13 131 -13 c 0,25,26
120 -28 m 0,66,67
 89 -28 89 -28 72.5 -6.5 c 128,-1,68
 56 15 56 15 56 53 c 128,-1,69
 56 91 56 91 76.5 137 c 128,-1,70
 97 183 97 183 134 225 c 128,-1,71
 171 267 171 267 232 294.5 c 128,-1,72
 293 322 293 322 365 322 c 0,73,74
 399 322 399 322 416.5 301.5 c 128,-1,75
 434 281 434 281 434 244 c 128,-1,76
 434 207 434 207 411.5 160.5 c 128,-1,77
 389 114 389 114 350.5 71.5 c 128,-1,78
 312 29 312 29 250.5 0.5 c 128,-1,79
 189 -28 189 -28 120 -28 c 0,66,67
EndSplineSet
EndChar

StartChar: macron
Encoding: 175 175 110
Width: 295
GlyphClass: 2
Flags: W
LayerCount: 2
Fore
SplineSet
181 336 m 1,0,-1
 208 337 l 1,1,2
 287 341 287 341 324 343 c 2,3,-1
 411 349 l 2,4,5
 420 349 420 349 420 343 c 0,6,7
 420 334 420 334 413.5 328.5 c 128,-1,8
 407 323 407 323 382 321.5 c 128,-1,9
 357 320 357 320 277 320 c 2,10,-1
 176 321 l 2,11,12
 164 321 164 321 164 326 c 0,13,14
 164 334 164 334 176 336 c 1,15,-1
 181 336 l 1,0,-1
EndSplineSet
EndChar

StartChar: degree
Encoding: 176 176 111
Width: 148
GlyphClass: 2
Flags: W
LayerCount: 2
Fore
SplineSet
139 331 m 0,0,1
 126 331 126 331 118 341.5 c 128,-1,2
 110 352 110 352 110 366 c 0,3,4
 110 395 110 395 141.5 424 c 128,-1,5
 173 453 173 453 202 453 c 0,6,7
 217 453 217 453 227.5 441.5 c 128,-1,8
 238 430 238 430 238 412.5 c 128,-1,9
 238 395 238 395 209.5 363 c 128,-1,10
 181 331 181 331 139 331 c 0,0,1
146 344 m 0,11,12
 171 344 171 344 191.5 370 c 128,-1,13
 212 396 212 396 212 418.5 c 128,-1,14
 212 441 212 441 193 441 c 128,-1,15
 174 441 174 441 154.5 411 c 128,-1,16
 135 381 135 381 135 362.5 c 128,-1,17
 135 344 135 344 146 344 c 0,11,12
EndSplineSet
EndChar

StartChar: plusminus
Encoding: 177 177 112
Width: 400
GlyphClass: 2
Flags: W
LayerCount: 2
Fore
SplineSet
91 122 m 1,0,-1
 120 123 l 2,1,2
 199 126 199 126 244 129 c 2,3,-1
 337 135 l 2,4,5
 346 135 346 135 347 129 c 1,6,7
 347 120 347 120 340 114.5 c 128,-1,8
 333 109 333 109 305.5 107.5 c 128,-1,9
 278 106 278 106 194 106 c 2,10,-1
 86 107 l 2,11,12
 74 107 74 107 73 112 c 1,13,14
 73 120 73 120 86 122 c 1,15,-1
 91 122 l 1,0,-1
280 281 m 1,16,17
 287 281 287 281 385 288 c 0,18,19
 394 288 394 288 395 282 c 1,20,21
 395 273 395 273 388 267.5 c 128,-1,22
 381 262 381 262 357.5 260.5 c 128,-1,23
 334 259 334 259 267 259 c 1,24,-1
 208 158 l 1,25,26
 206 150 206 150 199.5 150 c 128,-1,27
 193 150 193 150 193 156 c 0,28,29
 193 159 193 159 200 174 c 128,-1,30
 207 189 207 189 225 222 c 128,-1,31
 243 255 243 255 245 259 c 1,32,-1
 242 259 l 1,33,-1
 134 260 l 2,34,35
 122 260 122 260 121 265 c 1,36,37
 121 276 121 276 152 276 c 0,38,39
 160 276 160 276 165 276 c 0,40,41
 201 276 201 276 255 280 c 1,42,43
 286 342 286 342 309 389 c 0,44,45
 313 395 313 395 317 395 c 1,46,47
 329 390 329 390 329 380 c 128,-1,48
 329 370 329 370 315 344.5 c 128,-1,49
 301 319 301 319 280 281 c 1,16,17
EndSplineSet
EndChar

StartChar: twosuperior
Encoding: 178 178 113
Width: 299
GlyphClass: 2
Flags: W
LayerCount: 2
Fore
SplineSet
32 161 m 0,0,1
 32 159 32 159 35 159 c 1,2,3
 86 179 86 179 154 230 c 1,4,5
 120 230 120 230 76 201.5 c 128,-1,6
 32 173 32 173 32 161 c 0,0,1
208 244 m 1,7,-1
 200 238 l 1,8,9
 207 235 207 235 237 213.5 c 128,-1,10
 267 192 267 192 287 192 c 0,11,12
 324 192 324 192 360 212 c 2,13,-1
 372 219 l 1,14,-1
 376 220 l 2,15,16
 380 220 380 220 380 217 c 1,17,18
 379 215 379 215 378 214 c 0,19,20
 329 176 329 176 270 176 c 0,21,22
 235 176 235 176 198 204 c 0,23,24
 182 216 182 216 174 220 c 1,25,26
 131 192 131 192 87 170.5 c 128,-1,27
 43 149 43 149 28.5 149 c 128,-1,28
 14 149 14 149 14 158 c 0,29,30
 14 179 14 179 71.5 214.5 c 128,-1,31
 129 250 129 250 178 250 c 2,32,-1
 180 250 l 1,33,34
 258 312 258 312 310.5 378 c 128,-1,35
 363 444 363 444 363 492 c 0,36,37
 363 502 363 502 359.5 505.5 c 128,-1,38
 356 509 356 509 346 509 c 0,39,40
 303 509 303 509 242 443.5 c 128,-1,41
 181 378 181 378 181 355 c 0,42,43
 181 351 181 351 184 351 c 0,44,45
 205 351 205 351 235 370.5 c 128,-1,46
 265 390 265 390 285 410 c 2,47,-1
 305 430 l 2,48,49
 308 432 308 432 312 432 c 256,50,51
 316 432 316 432 314 425 c 1,52,53
 291 395 291 395 248.5 368.5 c 128,-1,54
 206 342 206 342 183 342 c 128,-1,55
 160 342 160 342 160 362 c 0,56,57
 160 403 160 403 219.5 460 c 128,-1,58
 279 517 279 517 346 517 c 0,59,60
 362 517 362 517 373.5 505.5 c 128,-1,61
 385 494 385 494 385 471 c 0,62,63
 385 431 385 431 334 364.5 c 128,-1,64
 283 298 283 298 208 244 c 1,7,-1
EndSplineSet
EndChar

StartChar: threesuperior
Encoding: 179 179 114
Width: 237
GlyphClass: 2
Flags: W
LayerCount: 2
Fore
SplineSet
229 373 m 1,0,1
 244 378 244 378 258 378 c 0,2,3
 290 378 290 378 290 352 c 0,4,5
 290 322 290 322 253 276 c 128,-1,6
 216 230 216 230 155 193 c 128,-1,7
 94 156 94 156 37 156 c 0,8,9
 16 156 16 156 16 168 c 0,10,11
 16 188 16 188 61.5 222.5 c 128,-1,12
 107 257 107 257 133 257 c 0,13,14
 141 257 141 257 141 250 c 128,-1,15
 141 243 141 243 133.5 235.5 c 128,-1,16
 126 228 126 228 119.5 228 c 128,-1,17
 113 228 113 228 113 230 c 128,-1,18
 113 232 113 232 119 234.5 c 128,-1,19
 125 237 125 237 125 239 c 128,-1,20
 125 241 125 241 118 241 c 128,-1,21
 111 241 111 241 70.5 208.5 c 128,-1,22
 30 176 30 176 30 165 c 0,23,24
 30 161 30 161 35 161 c 0,25,26
 78 161 78 161 135 203 c 128,-1,27
 192 245 192 245 230 293 c 128,-1,28
 268 341 268 341 268 362 c 0,29,30
 268 371 268 371 257.5 371 c 128,-1,31
 247 371 247 371 235 369 c 128,-1,32
 223 367 223 367 213 362 c 0,33,34
 195 354 195 354 185 348 c 128,-1,35
 175 342 175 342 172 342 c 128,-1,36
 169 342 169 342 169 346 c 256,37,38
 169 350 169 350 202.5 370.5 c 128,-1,39
 236 391 236 391 277.5 435 c 128,-1,40
 319 479 319 479 319 500 c 0,41,42
 319 511 319 511 303 511 c 0,43,44
 270 511 270 511 228.5 483.5 c 128,-1,45
 187 456 187 456 159 427 c 0,46,47
 157 425 157 425 151 425 c 128,-1,48
 145 425 145 425 145 429 c 1,49,50
 237 521 237 521 308 521 c 0,51,52
 341 521 341 521 341 496.5 c 128,-1,53
 341 472 341 472 310.5 437 c 128,-1,54
 280 402 280 402 229 373 c 1,0,1
EndSplineSet
EndChar

StartChar: acute
Encoding: 180 180 115
Width: 355
GlyphClass: 2
Flags: W
LayerCount: 2
Fore
SplineSet
266 362 m 128,-1,1
 266 348 266 348 197 325 c 128,-1,2
 128 302 128 302 121 302 c 128,-1,3
 114 302 114 302 114 304 c 0,4,5
 114 308 114 308 121 310.5 c 128,-1,6
 128 313 128 313 143.5 321.5 c 128,-1,7
 159 330 159 330 184 344.5 c 128,-1,8
 209 359 209 359 233 371 c 1,9,10
 246 376 246 376 254 376 c 0,11,0
 266 376 266 376 266 362 c 128,-1,1
EndSplineSet
EndChar

StartChar: mu
Encoding: 181 181 116
Width: 348
GlyphClass: 2
Flags: W
LayerCount: 2
Fore
SplineSet
192 251 m 1,0,1
 201 261 201 261 212 261 c 128,-1,2
 223 261 223 261 235 257 c 1,3,4
 197 205 197 205 72 61 c 0,5,6
 43 27 43 27 43 22 c 128,-1,7
 43 17 43 17 49 17 c 128,-1,8
 55 17 55 17 119 58 c 0,9,10
 253 144 253 144 350 247 c 1,11,12
 374 269 374 269 392 269 c 0,13,14
 393 269 393 269 394 269 c 0,15,16
 413 268 413 268 413 264 c 1,17,-1
 412 262 l 1,18,19
 369 222 369 222 284 127 c 128,-1,20
 199 32 199 32 199 15 c 0,21,22
 199 11 199 11 205.5 11 c 128,-1,23
 212 11 212 11 342 93 c 2,24,-1
 383 119 l 1,25,-1
 384 107 l 1,26,27
 372 99 372 99 353 87 c 0,28,29
 204 -7 204 -7 179 -7 c 0,30,31
 170 -7 170 -7 170 3 c 128,-1,32
 170 13 170 13 194.5 60 c 128,-1,33
 219 107 219 107 230 120 c 1,34,-1
 214 111 l 1,35,36
 63 3 63 3 33 3 c 0,37,38
 26 3 26 3 23 7 c 1,39,40
 -116 -154 -116 -154 -134 -178 c 0,41,42
 -153 -203 -153 -203 -170 -203 c 1,43,44
 -170 -203 -170 -203 -170 -202 c 1,45,46
 -188 -202 -188 -202 -188 -196 c 128,-1,47
 -188 -190 -188 -190 -177 -176 c 0,48,49
 -61 -40 -61 -40 21.5 53 c 128,-1,50
 104 146 104 146 133.5 179.5 c 128,-1,51
 163 213 163 213 192 251 c 1,0,1
EndSplineSet
EndChar

StartChar: paragraph
Encoding: 182 182 117
Width: 380
GlyphClass: 2
Flags: W
LayerCount: 2
Fore
SplineSet
344 318 m 0,0,1
 433 416 433 416 435.5 419.5 c 128,-1,2
 438 423 438 423 438 425 c 0,3,4
 438 430 438 430 430 430 c 128,-1,5
 422 430 422 430 408 416 c 0,6,7
 152 160 152 160 -54 -123 c 0,8,9
 -58 -128 -58 -128 -58 -133 c 1,10,11
 -38 -128 -38 -128 -16 -121 c 1,12,13
 112 60 112 60 344 318 c 0,0,1
6 -114 m 1,14,15
 38 -105 38 -105 43 -105 c 128,-1,16
 48 -105 48 -105 48 -108 c 128,-1,17
 48 -111 48 -111 43 -115 c 1,18,19
 -62 -153 -62 -153 -66 -153 c 0,20,21
 -78 -153 -78 -153 -78 -144 c 0,22,23
 -78 -107 -78 -107 166 188 c 0,24,25
 247 286 247 286 247 292 c 0,26,27
 247 293 247 293 244.5 293 c 128,-1,28
 242 293 242 293 216.5 269 c 128,-1,29
 191 245 191 245 153.5 221 c 128,-1,30
 116 197 116 197 83 197 c 0,31,32
 67 197 67 197 64 219 c 1,33,34
 69 280 69 280 107 329 c 128,-1,35
 145 378 145 378 196 404 c 0,36,37
 302 459 302 459 380 459 c 128,-1,38
 458 459 458 459 458 427 c 0,39,40
 458 415 458 415 445 399 c 1,41,42
 130 60 130 60 6 -114 c 1,14,15
EndSplineSet
EndChar

StartChar: periodcentered
Encoding: 183 183 118
Width: 295
GlyphClass: 2
Flags: W
LayerCount: 2
Fore
SplineSet
324.5 330 m 128,-1,1
 311 315 311 315 294.5 315 c 128,-1,2
 278 315 278 315 278 330 c 128,-1,3
 278 345 278 345 292.5 358.5 c 128,-1,4
 307 372 307 372 317.5 372 c 128,-1,5
 328 372 328 372 333 366 c 128,-1,6
 338 360 338 360 338 352.5 c 128,-1,0
 338 345 338 345 324.5 330 c 128,-1,1
EndSplineSet
EndChar

StartChar: cedilla
Encoding: 184 184 119
Width: 228
GlyphClass: 2
Flags: W
LayerCount: 2
Fore
SplineSet
131 4 m 1,0,-1
 142 0 l 1,1,-1
 127 -24 l 1,2,3
 178 -25 178 -25 178 -50 c 0,4,5
 178 -71 178 -71 147.5 -92 c 128,-1,6
 117 -113 117 -113 91.5 -113 c 128,-1,7
 66 -113 66 -113 52 -101 c 0,8,9
 50 -99 50 -99 50 -96 c 128,-1,10
 50 -93 50 -93 54 -93 c 128,-1,11
 58 -93 58 -93 65 -99.5 c 128,-1,12
 72 -106 72 -106 93 -106 c 128,-1,13
 114 -106 114 -106 134 -91 c 128,-1,14
 154 -76 154 -76 154 -59 c 0,15,16
 154 -33 154 -33 110 -32 c 1,17,-1
 131 4 l 1,0,-1
EndSplineSet
EndChar

StartChar: onesuperior
Encoding: 185 185 120
Width: 215
GlyphClass: 2
Flags: W
LayerCount: 2
Fore
SplineSet
113 384 m 0,0,1
 107 384 107 384 107 391 c 0,2,3
 107 393 107 393 108 393 c 0,4,5
 143 393 143 393 207.5 442 c 128,-1,6
 272 491 272 491 282 508 c 1,7,8
 286 512 286 512 295 515 c 1,9,10
 319 515 319 515 319 509 c 0,11,12
 319 506 319 506 310 490.5 c 128,-1,13
 301 475 301 475 254 394 c 0,14,15
 151 217 151 217 102 149 c 1,16,17
 93 140 93 140 91 140 c 0,18,19
 79 141 79 141 79 143 c 0,20,21
 79 149 79 149 88 158 c 1,22,23
 97 170 97 170 179 314.5 c 128,-1,24
 261 459 261 459 274 479 c 1,25,26
 223 434 223 434 178.5 409 c 128,-1,27
 134 384 134 384 113 384 c 0,0,1
EndSplineSet
EndChar

StartChar: ordmasculine
Encoding: 186 186 121
Width: 185
GlyphClass: 2
Flags: W
LayerCount: 2
Fore
SplineSet
256 455 m 0,0,1
 256 464 256 464 248 464 c 0,2,3
 222 464 222 464 161.5 404.5 c 128,-1,4
 101 345 101 345 101 312 c 0,5,6
 101 308 101 308 106 308 c 0,7,8
 134 308 134 308 195 366 c 128,-1,9
 256 424 256 424 256 455 c 0,0,1
85 318 m 0,10,11
 85 371 85 371 145.5 422.5 c 128,-1,12
 206 474 206 474 246 474 c 0,13,14
 265 474 265 474 265 457 c 0,15,16
 265 398 265 398 199 347.5 c 128,-1,17
 133 297 133 297 98 297 c 0,18,19
 85 297 85 297 85 318 c 0,10,11
EndSplineSet
EndChar

StartChar: guillemotright
Encoding: 187 187 122
Width: 470
GlyphClass: 2
Flags: W
LayerCount: 2
Fore
SplineSet
244 118 m 1,0,-1
 116 180 l 1,1,2
 115 183 115 183 115 186 c 0,3,4
 115 194 115 194 123 194 c 1,5,6
 143 184 143 184 191.5 161 c 128,-1,7
 240 138 240 138 254 130 c 128,-1,8
 268 122 268 122 268 116 c 0,9,10
 268 102 268 102 244 99 c 2,11,-1
 95 77 l 2,12,13
 91 77 91 77 91 79 c 2,14,-1
 94 85 l 1,15,-1
 237 106 l 2,16,17
 248 108 248 108 248 111 c 128,-1,18
 248 114 248 114 244 118 c 1,0,-1
354 106 m 2,19,-1
 204 178 l 2,20,21
 199 181 199 181 199 185 c 0,22,23
 199 194 199 194 213 194 c 1,24,-1
 346 130 l 2,25,26
 349 129 349 129 353.5 126.5 c 128,-1,27
 358 124 358 124 360 123 c 128,-1,28
 362 122 362 122 365.5 120.5 c 128,-1,29
 369 119 369 119 371 118 c 128,-1,30
 373 117 373 117 375 115.5 c 128,-1,31
 377 114 377 114 378.5 112.5 c 128,-1,32
 380 111 380 111 381 110 c 0,33,34
 383 106 383 106 383 103 c 0,35,36
 383 88 383 88 355 83 c 2,37,-1
 179 57 l 2,38,39
 173 57 173 57 173 60.5 c 128,-1,40
 173 64 173 64 178 66 c 1,41,-1
 346 91 l 2,42,43
 360 94 360 94 360 100 c 0,44,45
 360 103 360 103 354 106 c 2,19,-1
EndSplineSet
EndChar

StartChar: onequarter
Encoding: 188 188 123
Width: 545
GlyphClass: 2
Flags: W
LayerCount: 2
Fore
SplineSet
240 94 m 0,0,1
 237 94 237 94 237 96 c 0,2,3
 237 103 237 103 254 116 c 128,-1,4
 271 129 271 129 290 134 c 1,5,6
 252 94 252 94 240 94 c 0,0,1
113 384 m 0,7,8
 134 384 134 384 170 404 c 0,9,10
 223 434 223 434 274 479 c 1,11,12
 261 459 261 459 179 314.5 c 128,-1,13
 97 170 97 170 88 158 c 1,14,15
 79 149 79 149 79 143 c 1,16,-1
 91 140 l 2,17,18
 93 140 93 140 102 149 c 1,19,20
 151 217 151 217 226 346 c 128,-1,21
 301 475 301 475 310 490.5 c 128,-1,22
 319 506 319 506 319 510.5 c 128,-1,23
 319 515 319 515 295 515 c 1,24,25
 286 512 286 512 282 508 c 1,26,27
 272 491 272 491 207.5 442 c 128,-1,28
 143 393 143 393 108 393 c 0,29,30
 107 393 107 393 107 391 c 0,31,32
 107 384 107 384 113 384 c 0,7,8
352 423 m 0,33,34
 420 535 420 535 428.5 547.5 c 128,-1,35
 437 560 437 560 446 560 c 128,-1,36
 455 560 455 560 455 535 c 0,37,38
 455 526 455 526 394.5 429 c 128,-1,39
 334 332 334 332 235.5 193 c 128,-1,40
 137 54 137 54 56 -39 c 1,41,42
 45 -50 45 -50 38 -50 c 128,-1,43
 31 -50 31 -50 31 -34 c 2,44,-1
 31 -30 l 1,45,46
 175 128 175 128 352 423 c 0,33,34
552 319 m 1,47,-1
 555 330 l 1,48,49
 555 339 555 339 544.5 339 c 128,-1,50
 534 339 534 339 528 332 c 1,51,52
 518 316 518 316 475 239 c 128,-1,53
 432 162 432 162 410 124 c 0,54,55
 409 124 409 124 408 125 c 0,56,57
 367 146 367 146 326 147 c 1,58,59
 378 199 378 199 430 266.5 c 128,-1,60
 482 334 482 334 482 348 c 0,61,62
 482 355 482 355 472.5 355 c 128,-1,63
 463 355 463 355 452 346 c 128,-1,64
 441 337 441 337 441 333 c 1,65,-1
 444 333 l 2,66,67
 447 333 447 333 448 334 c 1,68,69
 440 315 440 315 392.5 253.5 c 128,-1,70
 345 192 345 192 302 146 c 1,71,72
 244 134 244 134 231 104 c 0,73,74
 229 100 229 100 229 96 c 0,75,76
 229 87 229 87 240 86 c 1,77,78
 253 86 253 86 274 98.5 c 128,-1,79
 295 111 295 111 315 135 c 1,80,81
 341 135 341 135 399 106 c 1,82,83
 357 31 357 31 341 7 c 1,84,85
 332 -2 332 -2 332 -8 c 1,86,-1
 339 -12 l 1,87,88
 343 -12 343 -12 350 -3 c 0,89,90
 356 6 356 6 370 26 c 0,91,92
 400 68 400 68 418 96 c 1,93,94
 444 82 444 82 467 82 c 128,-1,95
 490 82 490 82 511.5 101.5 c 128,-1,96
 533 121 533 121 533 134 c 128,-1,97
 533 147 533 147 521.5 147 c 128,-1,98
 510 147 510 147 496 134 c 0,99,100
 478 118 478 118 478 112.5 c 128,-1,101
 478 107 478 107 482 107 c 1,102,103
 507 138 507 138 519 138 c 0,104,105
 522 138 522 138 522 131.5 c 128,-1,106
 522 125 522 125 506.5 110.5 c 128,-1,107
 491 96 491 96 475 96 c 128,-1,108
 459 96 459 96 431 113 c 1,109,-1
 552 319 l 1,47,-1
EndSplineSet
EndChar

StartChar: onehalf
Encoding: 189 189 124
Width: 557
GlyphClass: 2
Flags: W
LayerCount: 2
Fore
SplineSet
185 -2 m 0,0,1
 185 -4 185 -4 188 -4 c 1,2,3
 239 16 239 16 307 67 c 1,4,5
 273 67 273 67 229 38.5 c 128,-1,6
 185 10 185 10 185 -2 c 0,0,1
113 384 m 0,7,8
 134 384 134 384 170 404 c 0,9,10
 223 434 223 434 274 479 c 1,11,12
 261 459 261 459 179 314.5 c 128,-1,13
 97 170 97 170 88 158 c 1,14,15
 79 149 79 149 79 143 c 1,16,-1
 91 140 l 2,17,18
 93 140 93 140 102 149 c 1,19,20
 151 217 151 217 226 346 c 128,-1,21
 301 475 301 475 310 490.5 c 128,-1,22
 319 506 319 506 319 510.5 c 128,-1,23
 319 515 319 515 295 515 c 1,24,25
 286 512 286 512 282 508 c 1,26,27
 272 491 272 491 207.5 442 c 128,-1,28
 143 393 143 393 108 393 c 0,29,30
 107 393 107 393 107 391 c 0,31,32
 107 384 107 384 113 384 c 0,7,8
352 423 m 0,33,34
 420 535 420 535 428.5 547.5 c 128,-1,35
 437 560 437 560 446 560 c 128,-1,36
 455 560 455 560 455 535 c 0,37,38
 455 526 455 526 394.5 429 c 128,-1,39
 334 332 334 332 235.5 193 c 128,-1,40
 137 54 137 54 56 -39 c 1,41,42
 45 -50 45 -50 38 -50 c 128,-1,43
 31 -50 31 -50 31 -34 c 2,44,-1
 31 -30 l 1,45,46
 175 128 175 128 352 423 c 0,33,34
525 56 m 1,47,-1
 529 57 l 2,48,49
 533 57 533 57 533 54 c 1,50,51
 532 52 532 52 531 51 c 0,52,53
 482 13 482 13 423 13 c 0,54,55
 388 13 388 13 351 41 c 0,56,57
 335 53 335 53 327 57 c 1,58,59
 284 29 284 29 240 7.5 c 128,-1,60
 196 -14 196 -14 181.5 -14 c 128,-1,61
 167 -14 167 -14 167 -5 c 0,62,63
 167 16 167 16 224.5 51.5 c 128,-1,64
 282 87 282 87 331 87 c 2,65,-1
 333 87 l 1,66,67
 411 149 411 149 463.5 215 c 128,-1,68
 516 281 516 281 516 329 c 0,69,70
 516 339 516 339 512.5 342.5 c 128,-1,71
 509 346 509 346 499 346 c 0,72,73
 456 346 456 346 395 280.5 c 128,-1,74
 334 215 334 215 334 192 c 0,75,76
 334 188 334 188 337 188 c 0,77,78
 358 188 358 188 388 208 c 128,-1,79
 418 228 418 228 438 248 c 2,80,-1
 458 267 l 2,81,82
 461 269 461 269 464.5 269 c 128,-1,83
 468 269 468 269 468 266 c 2,84,-1
 467 262 l 1,85,86
 444 232 444 232 401.5 205.5 c 128,-1,87
 359 179 359 179 336 179 c 128,-1,88
 313 179 313 179 313 199 c 0,89,90
 313 240 313 240 372.5 297 c 128,-1,91
 432 354 432 354 499 354 c 0,92,93
 515 354 515 354 526.5 342.5 c 128,-1,94
 538 331 538 331 538 308 c 0,95,96
 538 268 538 268 487 201.5 c 128,-1,97
 436 135 436 135 361 81 c 1,98,-1
 353 75 l 1,99,100
 360 72 360 72 390 50.5 c 128,-1,101
 420 29 420 29 440 29 c 0,102,103
 481 29 481 29 514 49 c 2,104,-1
 525 56 l 1,47,-1
EndSplineSet
EndChar

StartChar: threequarters
Encoding: 190 190 125
Width: 603
GlyphClass: 2
Flags: W
LayerCount: 2
Fore
SplineSet
286 94 m 0,0,1
 283 94 283 94 283 96 c 0,2,3
 283 103 283 103 300 116 c 128,-1,4
 317 129 317 129 336 134 c 1,5,6
 298 94 298 94 286 94 c 0,0,1
229 373 m 1,7,8
 280 402 280 402 310.5 437 c 128,-1,9
 341 472 341 472 341 496.5 c 128,-1,10
 341 521 341 521 308 521 c 0,11,12
 237 521 237 521 145 429 c 1,13,14
 145 425 145 425 151 425 c 128,-1,15
 157 425 157 425 159 427 c 0,16,17
 187 456 187 456 228.5 483.5 c 128,-1,18
 270 511 270 511 303 511 c 0,19,20
 319 511 319 511 319 500 c 0,21,22
 319 479 319 479 277.5 435 c 128,-1,23
 236 391 236 391 202.5 371 c 128,-1,24
 169 351 169 351 169 346.5 c 128,-1,25
 169 342 169 342 172 342 c 0,26,27
 174 342 174 342 182.5 347 c 128,-1,28
 191 352 191 352 197 355 c 128,-1,29
 203 358 203 358 213 362 c 0,30,31
 232 371 232 371 259 371 c 0,32,33
 268 371 268 371 268 362 c 0,34,35
 268 341 268 341 230 293 c 128,-1,36
 192 245 192 245 135 203 c 128,-1,37
 78 161 78 161 35 161 c 0,38,39
 30 161 30 161 30 165 c 0,40,41
 30 176 30 176 70.5 208.5 c 128,-1,42
 111 241 111 241 118 241 c 128,-1,43
 125 241 125 241 125 239 c 128,-1,44
 125 237 125 237 119 234.5 c 128,-1,45
 113 232 113 232 113 230 c 128,-1,46
 113 228 113 228 119.5 228 c 128,-1,47
 126 228 126 228 133.5 235.5 c 128,-1,48
 141 243 141 243 141 250 c 128,-1,49
 141 257 141 257 133 257 c 0,50,51
 107 257 107 257 61.5 222.5 c 128,-1,52
 16 188 16 188 16 168 c 0,53,54
 16 156 16 156 37 156 c 0,55,56
 94 156 94 156 155 193 c 128,-1,57
 216 230 216 230 253 276 c 128,-1,58
 290 322 290 322 290 352 c 0,59,60
 290 378 290 378 258 378 c 0,61,62
 244 378 244 378 229 373 c 1,7,8
398 423 m 0,63,64
 466 535 466 535 474.5 547.5 c 128,-1,65
 483 560 483 560 492 560 c 128,-1,66
 501 560 501 560 501 535 c 0,67,68
 501 526 501 526 440.5 429 c 128,-1,69
 380 332 380 332 281.5 193 c 128,-1,70
 183 54 183 54 102 -39 c 1,71,72
 91 -50 91 -50 84 -50 c 128,-1,73
 77 -50 77 -50 77 -34 c 2,74,-1
 77 -30 l 1,75,76
 221 128 221 128 398 423 c 0,63,64
598 319 m 1,77,-1
 601 330 l 1,78,79
 601 339 601 339 590.5 339 c 128,-1,80
 580 339 580 339 574 332 c 1,81,82
 564 316 564 316 521 239 c 128,-1,83
 478 162 478 162 456 124 c 0,84,85
 455 124 455 124 454 125 c 0,86,87
 413 146 413 146 372 147 c 1,88,89
 424 199 424 199 476 266.5 c 128,-1,90
 528 334 528 334 528 348 c 0,91,92
 528 355 528 355 518.5 355 c 128,-1,93
 509 355 509 355 498 346 c 128,-1,94
 487 337 487 337 487 333 c 1,95,-1
 490 333 l 2,96,97
 493 333 493 333 494 334 c 1,98,99
 486 315 486 315 438.5 253.5 c 128,-1,100
 391 192 391 192 348 146 c 1,101,102
 313 139 313 139 294 124 c 128,-1,103
 275 109 275 109 275 97.5 c 128,-1,104
 275 86 275 86 287 86 c 128,-1,105
 299 86 299 86 320 98.5 c 128,-1,106
 341 111 341 111 361 135 c 1,107,108
 387 135 387 135 445 106 c 1,109,110
 403 31 403 31 387 7 c 1,111,112
 378 -2 378 -2 378 -8 c 1,113,-1
 385 -12 l 1,114,115
 389 -12 389 -12 396 -3 c 0,116,117
 402 6 402 6 416 26 c 0,118,119
 446 68 446 68 464 96 c 1,120,121
 490 82 490 82 513 82 c 128,-1,122
 536 82 536 82 557.5 101.5 c 128,-1,123
 579 121 579 121 579 134 c 128,-1,124
 579 147 579 147 567.5 147 c 128,-1,125
 556 147 556 147 542 134 c 0,126,127
 524 118 524 118 524 112.5 c 128,-1,128
 524 107 524 107 528 107 c 1,129,130
 553 138 553 138 565 138 c 0,131,132
 568 138 568 138 568 131.5 c 128,-1,133
 568 125 568 125 552.5 110.5 c 128,-1,134
 537 96 537 96 521 96 c 128,-1,135
 505 96 505 96 477 113 c 1,136,-1
 598 319 l 1,77,-1
EndSplineSet
EndChar

StartChar: questiondown
Encoding: 191 191 126
Width: 376
GlyphClass: 2
Flags: W
LayerCount: 2
Fore
SplineSet
270 205 m 0,0,1
 265 208 265 208 265 210.5 c 128,-1,2
 265 213 265 213 276.5 213 c 128,-1,3
 288 213 288 213 300.5 198 c 128,-1,4
 313 183 313 183 313 156 c 1,5,6
 308 107 308 107 267.5 67.5 c 128,-1,7
 227 28 227 28 172.5 -0.5 c 128,-1,8
 118 -29 118 -29 64.5 -59.5 c 128,-1,9
 11 -90 11 -90 -26 -135.5 c 128,-1,10
 -63 -181 -63 -181 -63 -239 c 0,11,12
 -63 -325 -63 -325 13.5 -325 c 128,-1,13
 90 -325 90 -325 175 -253.5 c 128,-1,14
 260 -182 260 -182 260 -106 c 0,15,16
 260 -67 260 -67 234 -67 c 0,17,18
 200 -67 200 -67 139.5 -122 c 128,-1,19
 79 -177 79 -177 67 -205 c 0,20,21
 64 -212 64 -212 58 -212 c 128,-1,22
 52 -212 52 -212 52 -205 c 0,23,24
 52 -204 52 -204 54 -198 c 1,25,26
 76 -160 76 -160 137.5 -107.5 c 128,-1,27
 199 -55 199 -55 236.5 -55 c 128,-1,28
 274 -55 274 -55 274 -112 c 0,29,30
 274 -208 274 -208 188 -274.5 c 128,-1,31
 102 -341 102 -341 9 -341 c 0,32,33
 -47 -341 -47 -341 -82 -312 c 128,-1,34
 -117 -283 -117 -283 -117 -231.5 c 128,-1,35
 -117 -180 -117 -180 -88 -142.5 c 128,-1,36
 -59 -105 -59 -105 -15.5 -81 c 128,-1,37
 28 -57 28 -57 79 -30.5 c 128,-1,38
 130 -4 130 -4 174.5 19.5 c 128,-1,39
 219 43 219 43 250 79.5 c 128,-1,40
 281 116 281 116 284 159 c 1,41,42
 284 199 284 199 270 205 c 0,0,1
327.5 310.5 m 128,-1,44
 341 325 341 325 357.5 325 c 128,-1,45
 374 325 374 325 374 309 c 0,46,47
 374 296 374 296 359.5 282 c 128,-1,48
 345 268 345 268 334.5 268 c 128,-1,49
 324 268 324 268 319 274 c 128,-1,50
 314 280 314 280 314 288 c 128,-1,43
 314 296 314 296 327.5 310.5 c 128,-1,44
EndSplineSet
EndChar

StartChar: Agrave
Encoding: 192 192 127
Width: 496
GlyphClass: 2
Flags: W
LayerCount: 2
Fore
SplineSet
587 832 m 0,0,1
 587 843 587 843 599 843 c 128,-1,2
 611 843 611 843 616 838 c 0,3,4
 704 768 704 768 710.5 764.5 c 128,-1,5
 717 761 717 761 717 759 c 128,-1,6
 717 757 717 757 709.5 757 c 128,-1,7
 702 757 702 757 644.5 786.5 c 128,-1,8
 587 816 587 816 587 832 c 0,0,1
531 106 m 1,9,10
 565 127 565 127 585.5 139.5 c 128,-1,11
 606 152 606 152 606 154 c 128,-1,12
 606 156 606 156 598 156 c 128,-1,13
 590 156 590 156 583 152 c 2,14,-1
 516 110 l 1,15,16
 340 -12 340 -12 316.5 -23.5 c 128,-1,17
 293 -35 293 -35 285 -35 c 128,-1,18
 277 -35 277 -35 277 -27 c 0,19,20
 277 18 277 18 567 377 c 0,21,22
 664 497 664 497 664 507.5 c 128,-1,23
 664 518 664 518 650 518 c 128,-1,24
 636 518 636 518 611 487 c 0,25,26
 463 299 463 299 256 120 c 0,27,28
 96 -18 96 -18 42 -18 c 0,29,30
 11 -18 11 -18 11 21 c 128,-1,31
 11 60 11 60 39.5 127.5 c 128,-1,32
 68 195 68 195 115 272.5 c 128,-1,33
 162 350 162 350 226.5 430.5 c 128,-1,34
 291 511 291 511 360 576 c 128,-1,35
 429 641 429 641 505.5 682.5 c 128,-1,36
 582 724 582 724 647 724 c 0,37,38
 672 724 672 724 672 705 c 0,39,40
 672 675 672 675 617.5 609.5 c 128,-1,41
 563 544 563 544 501.5 491 c 128,-1,42
 440 438 440 438 419 438 c 0,43,44
 413 438 413 438 413 442 c 128,-1,45
 413 446 413 446 425.5 459.5 c 128,-1,46
 438 473 438 473 438 477.5 c 128,-1,47
 438 482 438 482 432 482 c 128,-1,48
 426 482 426 482 403.5 455 c 128,-1,49
 381 428 381 428 381 414.5 c 128,-1,50
 381 401 381 401 394 401 c 0,51,52
 427 401 427 401 500 459 c 128,-1,53
 573 517 573 517 633.5 590.5 c 128,-1,54
 694 664 694 664 694 703 c 0,55,56
 694 733 694 733 654 733 c 0,57,58
 550 733 550 733 445 678.5 c 128,-1,59
 340 624 340 624 259.5 540.5 c 128,-1,60
 179 457 179 457 115 361.5 c 128,-1,61
 51 266 51 266 17 179 c 128,-1,62
 -17 92 -17 92 -17 35 c 0,63,64
 -17 -33 -17 -33 32 -33 c 0,65,66
 76 -33 76 -33 172 37.5 c 128,-1,67
 268 108 268 108 342 178 c 2,68,-1
 416 248 l 1,69,70
 418 248 418 248 418 245 c 128,-1,71
 418 242 418 242 378.5 187.5 c 128,-1,72
 339 133 339 133 299.5 68 c 128,-1,73
 260 3 260 3 260 -26 c 0,74,75
 260 -44 260 -44 277 -44 c 0,76,77
 296 -44 296 -44 323 -29.5 c 128,-1,78
 350 -15 350 -15 367 -5 c 128,-1,79
 384 5 384 5 408.5 21.5 c 128,-1,80
 433 38 433 38 449 49 c 128,-1,81
 465 60 465 60 492 78.5 c 128,-1,82
 519 97 519 97 531 106 c 1,9,10
EndSplineSet
EndChar

StartChar: Aacute
Encoding: 193 193 128
Width: 496
GlyphClass: 2
Flags: W
LayerCount: 2
Fore
SplineSet
748 819 m 128,-1,1
 748 805 748 805 679 782 c 128,-1,2
 610 759 610 759 603 759 c 128,-1,3
 596 759 596 759 596 761 c 0,4,5
 596 765 596 765 603 767.5 c 128,-1,6
 610 770 610 770 625.5 778.5 c 128,-1,7
 641 787 641 787 666 801.5 c 128,-1,8
 691 816 691 816 715 828 c 1,9,10
 728 833 728 833 736 833 c 0,11,0
 748 833 748 833 748 819 c 128,-1,1
531 106 m 1,12,13
 519 97 519 97 492 78.5 c 128,-1,14
 465 60 465 60 449 49 c 128,-1,15
 433 38 433 38 408.5 21.5 c 128,-1,16
 384 5 384 5 367 -5 c 128,-1,17
 350 -15 350 -15 332 -25 c 0,18,19
 295 -45 295 -45 277 -45 c 0,20,21
 260 -45 260 -45 260 -26 c 0,22,23
 260 3 260 3 299.5 68 c 128,-1,24
 339 133 339 133 378.5 187.5 c 128,-1,25
 418 242 418 242 418 245 c 128,-1,26
 418 248 418 248 416 248 c 1,27,28
 404 237 404 237 384.5 218 c 128,-1,29
 365 199 365 199 310 150.5 c 128,-1,30
 255 102 255 102 208.5 65 c 128,-1,31
 162 28 162 28 110.5 -2.5 c 128,-1,32
 59 -33 59 -33 32 -33 c 0,33,34
 -17 -33 -17 -33 -17 35 c 0,35,36
 -17 92 -17 92 17 179 c 128,-1,37
 51 266 51 266 115 361.5 c 128,-1,38
 179 457 179 457 259.5 540.5 c 128,-1,39
 340 624 340 624 445 678.5 c 128,-1,40
 550 733 550 733 654 733 c 0,41,42
 694 733 694 733 694 703 c 0,43,44
 694 664 694 664 633.5 590.5 c 128,-1,45
 573 517 573 517 500 459 c 128,-1,46
 427 401 427 401 394 401 c 0,47,48
 381 401 381 401 381 414.5 c 128,-1,49
 381 428 381 428 403.5 455 c 128,-1,50
 426 482 426 482 434 482 c 0,51,52
 438 482 438 482 438 477.5 c 128,-1,53
 438 473 438 473 425.5 459.5 c 128,-1,54
 413 446 413 446 413 442 c 128,-1,55
 413 438 413 438 419 438 c 0,56,57
 440 438 440 438 501.5 491 c 128,-1,58
 563 544 563 544 617.5 609.5 c 128,-1,59
 672 675 672 675 672 705 c 0,60,61
 672 724 672 724 647 724 c 0,62,63
 582 724 582 724 505.5 682.5 c 128,-1,64
 429 641 429 641 360 576 c 128,-1,65
 291 511 291 511 226.5 430.5 c 128,-1,66
 162 350 162 350 115 272.5 c 128,-1,67
 68 195 68 195 39.5 127.5 c 128,-1,68
 11 60 11 60 11 21 c 128,-1,69
 11 -18 11 -18 42 -18 c 0,70,71
 96 -18 96 -18 256 120 c 0,72,73
 463 299 463 299 611 487 c 0,74,75
 636 518 636 518 650 518 c 128,-1,76
 664 518 664 518 664 507.5 c 128,-1,77
 664 497 664 497 567 377 c 0,78,79
 277 18 277 18 277 -27 c 0,80,81
 277 -35 277 -35 285 -35 c 128,-1,82
 293 -35 293 -35 306.5 -28.5 c 128,-1,83
 320 -22 320 -22 345.5 -5.5 c 128,-1,84
 371 11 371 11 390 24 c 0,85,86
 436 54 436 54 516 110 c 1,87,-1
 583 152 l 2,88,89
 590 156 590 156 598 156 c 128,-1,90
 606 156 606 156 606 154 c 128,-1,91
 606 152 606 152 603 150 c 2,92,-1
 531 106 l 1,12,13
EndSplineSet
EndChar

StartChar: Acircumflex
Encoding: 194 194 129
Width: 496
GlyphClass: 2
Flags: W
LayerCount: 2
Fore
SplineSet
652 798 m 1,0,1
 556 756 556 756 546.5 756 c 128,-1,2
 537 756 537 756 537 760 c 2,3,-1
 537 762 l 2,4,5
 537 765 537 765 553.5 773 c 128,-1,6
 570 781 570 781 602 800 c 0,7,8
 684 848 684 848 692.5 848 c 128,-1,9
 701 848 701 848 703 838.5 c 128,-1,10
 705 829 705 829 707.5 814 c 128,-1,11
 710 799 710 799 711 794 c 0,12,13
 714 779 714 779 727 760 c 1,14,-1
 728 758 l 1,15,16
 728 755 728 755 720 755 c 128,-1,17
 712 755 712 755 701 773 c 128,-1,18
 690 791 690 791 684 811 c 1,19,-1
 652 798 l 1,0,1
531 106 m 1,20,21
 519 97 519 97 492 78.5 c 128,-1,22
 465 60 465 60 449 49 c 128,-1,23
 433 38 433 38 408.5 21.5 c 128,-1,24
 384 5 384 5 367 -5 c 128,-1,25
 350 -15 350 -15 332 -25 c 0,26,27
 295 -45 295 -45 277 -45 c 0,28,29
 260 -45 260 -45 260 -26 c 0,30,31
 260 3 260 3 299.5 68 c 128,-1,32
 339 133 339 133 378.5 187.5 c 128,-1,33
 418 242 418 242 418 245 c 128,-1,34
 418 248 418 248 416 248 c 1,35,36
 404 237 404 237 384.5 218 c 128,-1,37
 365 199 365 199 310 150.5 c 128,-1,38
 255 102 255 102 208.5 65 c 128,-1,39
 162 28 162 28 110.5 -2.5 c 128,-1,40
 59 -33 59 -33 32 -33 c 0,41,42
 -17 -33 -17 -33 -17 35 c 0,43,44
 -17 92 -17 92 17 179 c 128,-1,45
 51 266 51 266 115 361.5 c 128,-1,46
 179 457 179 457 259.5 540.5 c 128,-1,47
 340 624 340 624 445 678.5 c 128,-1,48
 550 733 550 733 654 733 c 0,49,50
 694 733 694 733 694 703 c 0,51,52
 694 664 694 664 633.5 590.5 c 128,-1,53
 573 517 573 517 500 459 c 128,-1,54
 427 401 427 401 394 401 c 0,55,56
 381 401 381 401 381 414.5 c 128,-1,57
 381 428 381 428 403.5 455 c 128,-1,58
 426 482 426 482 434 482 c 0,59,60
 438 482 438 482 438 477.5 c 128,-1,61
 438 473 438 473 425.5 459.5 c 128,-1,62
 413 446 413 446 413 442 c 128,-1,63
 413 438 413 438 419 438 c 0,64,65
 440 438 440 438 501.5 491 c 128,-1,66
 563 544 563 544 617.5 609.5 c 128,-1,67
 672 675 672 675 672 705 c 0,68,69
 672 724 672 724 647 724 c 0,70,71
 582 724 582 724 505.5 682.5 c 128,-1,72
 429 641 429 641 360 576 c 128,-1,73
 291 511 291 511 226.5 430.5 c 128,-1,74
 162 350 162 350 115 272.5 c 128,-1,75
 68 195 68 195 39.5 127.5 c 128,-1,76
 11 60 11 60 11 21 c 128,-1,77
 11 -18 11 -18 42 -18 c 0,78,79
 96 -18 96 -18 256 120 c 0,80,81
 463 299 463 299 611 487 c 0,82,83
 636 518 636 518 650 518 c 128,-1,84
 664 518 664 518 664 507.5 c 128,-1,85
 664 497 664 497 567 377 c 0,86,87
 277 18 277 18 277 -27 c 0,88,89
 277 -35 277 -35 285 -35 c 128,-1,90
 293 -35 293 -35 306.5 -28.5 c 128,-1,91
 320 -22 320 -22 345.5 -5.5 c 128,-1,92
 371 11 371 11 390 24 c 0,93,94
 436 54 436 54 516 110 c 1,95,-1
 583 152 l 2,96,97
 590 156 590 156 598 156 c 128,-1,98
 606 156 606 156 606 154 c 128,-1,99
 606 152 606 152 603 150 c 2,100,-1
 531 106 l 1,20,21
EndSplineSet
EndChar

StartChar: Atilde
Encoding: 195 195 130
Width: 496
GlyphClass: 2
Flags: W
LayerCount: 2
Fore
SplineSet
633 769 m 128,-1,1
 608 780 608 780 598 780 c 128,-1,2
 588 780 588 780 583 775 c 128,-1,3
 578 770 578 770 572.5 770 c 128,-1,4
 567 770 567 770 567 773.5 c 128,-1,5
 567 777 567 777 571 781 c 0,6,7
 593 803 593 803 611.5 803 c 128,-1,8
 630 803 630 803 654 790.5 c 128,-1,9
 678 778 678 778 692 778 c 128,-1,10
 706 778 706 778 724 799 c 0,11,12
 725 801 725 801 729 801 c 128,-1,13
 733 801 733 801 733 795.5 c 128,-1,14
 733 790 733 790 732 789 c 0,15,16
 706 758 706 758 674 758 c 0,17,0
 658 758 658 758 633 769 c 128,-1,1
531 106 m 1,18,19
 519 97 519 97 492 78.5 c 128,-1,20
 465 60 465 60 449 49 c 128,-1,21
 433 38 433 38 408.5 21.5 c 128,-1,22
 384 5 384 5 367 -5 c 128,-1,23
 350 -15 350 -15 332 -25 c 0,24,25
 295 -45 295 -45 277 -45 c 0,26,27
 260 -45 260 -45 260 -26 c 0,28,29
 260 3 260 3 299.5 68 c 128,-1,30
 339 133 339 133 378.5 187.5 c 128,-1,31
 418 242 418 242 418 245 c 128,-1,32
 418 248 418 248 416 248 c 1,33,34
 404 237 404 237 384.5 218 c 128,-1,35
 365 199 365 199 310 150.5 c 128,-1,36
 255 102 255 102 208.5 65 c 128,-1,37
 162 28 162 28 110.5 -2.5 c 128,-1,38
 59 -33 59 -33 32 -33 c 0,39,40
 -17 -33 -17 -33 -17 35 c 0,41,42
 -17 92 -17 92 17 179 c 128,-1,43
 51 266 51 266 115 361.5 c 128,-1,44
 179 457 179 457 259.5 540.5 c 128,-1,45
 340 624 340 624 445 678.5 c 128,-1,46
 550 733 550 733 654 733 c 0,47,48
 694 733 694 733 694 703 c 0,49,50
 694 664 694 664 633.5 590.5 c 128,-1,51
 573 517 573 517 500 459 c 128,-1,52
 427 401 427 401 394 401 c 0,53,54
 381 401 381 401 381 414.5 c 128,-1,55
 381 428 381 428 403.5 455 c 128,-1,56
 426 482 426 482 434 482 c 0,57,58
 438 482 438 482 438 477.5 c 128,-1,59
 438 473 438 473 425.5 459.5 c 128,-1,60
 413 446 413 446 413 442 c 128,-1,61
 413 438 413 438 419 438 c 0,62,63
 440 438 440 438 501.5 491 c 128,-1,64
 563 544 563 544 617.5 609.5 c 128,-1,65
 672 675 672 675 672 705 c 0,66,67
 672 724 672 724 647 724 c 0,68,69
 582 724 582 724 505.5 682.5 c 128,-1,70
 429 641 429 641 360 576 c 128,-1,71
 291 511 291 511 226.5 430.5 c 128,-1,72
 162 350 162 350 115 272.5 c 128,-1,73
 68 195 68 195 39.5 127.5 c 128,-1,74
 11 60 11 60 11 21 c 128,-1,75
 11 -18 11 -18 42 -18 c 0,76,77
 96 -18 96 -18 256 120 c 0,78,79
 463 299 463 299 611 487 c 0,80,81
 636 518 636 518 650 518 c 128,-1,82
 664 518 664 518 664 507.5 c 128,-1,83
 664 497 664 497 567 377 c 0,84,85
 277 18 277 18 277 -27 c 0,86,87
 277 -35 277 -35 285 -35 c 128,-1,88
 293 -35 293 -35 306.5 -28.5 c 128,-1,89
 320 -22 320 -22 345.5 -5.5 c 128,-1,90
 371 11 371 11 390 24 c 0,91,92
 436 54 436 54 516 110 c 1,93,-1
 583 152 l 2,94,95
 590 156 590 156 598 156 c 128,-1,96
 606 156 606 156 606 154 c 128,-1,97
 606 152 606 152 603 150 c 2,98,-1
 531 106 l 1,18,19
EndSplineSet
EndChar

StartChar: Adieresis
Encoding: 196 196 131
Width: 496
GlyphClass: 2
Flags: W
LayerCount: 2
Fore
SplineSet
568 782.5 m 128,-1,1
 568 798 568 798 583 812 c 128,-1,2
 598 826 598 826 608.5 826 c 128,-1,3
 619 826 619 826 624.5 820 c 128,-1,4
 630 814 630 814 630 806 c 128,-1,5
 630 798 630 798 616 782.5 c 128,-1,6
 602 767 602 767 585 767 c 128,-1,0
 568 767 568 767 568 782.5 c 128,-1,1
648 782.5 m 128,-1,8
 648 798 648 798 663 812 c 128,-1,9
 678 826 678 826 688.5 826 c 128,-1,10
 699 826 699 826 704.5 820 c 128,-1,11
 710 814 710 814 710 806 c 128,-1,12
 710 798 710 798 696 782.5 c 128,-1,13
 682 767 682 767 665 767 c 128,-1,7
 648 767 648 767 648 782.5 c 128,-1,8
531 106 m 1,14,15
 565 127 565 127 585.5 139.5 c 128,-1,16
 606 152 606 152 606 154 c 128,-1,17
 606 156 606 156 598 156 c 128,-1,18
 590 156 590 156 583 152 c 2,19,-1
 516 110 l 1,20,21
 340 -12 340 -12 316.5 -23.5 c 128,-1,22
 293 -35 293 -35 285 -35 c 128,-1,23
 277 -35 277 -35 277 -27 c 0,24,25
 277 18 277 18 567 377 c 0,26,27
 664 497 664 497 664 507.5 c 128,-1,28
 664 518 664 518 650 518 c 128,-1,29
 636 518 636 518 611 487 c 0,30,31
 463 299 463 299 256 120 c 0,32,33
 96 -18 96 -18 42 -18 c 0,34,35
 11 -18 11 -18 11 21 c 128,-1,36
 11 60 11 60 39.5 127.5 c 128,-1,37
 68 195 68 195 115 272.5 c 128,-1,38
 162 350 162 350 226.5 430.5 c 128,-1,39
 291 511 291 511 360 576 c 128,-1,40
 429 641 429 641 505.5 682.5 c 128,-1,41
 582 724 582 724 647 724 c 0,42,43
 672 724 672 724 672 705 c 0,44,45
 672 675 672 675 617.5 609.5 c 128,-1,46
 563 544 563 544 501.5 491 c 128,-1,47
 440 438 440 438 419 438 c 0,48,49
 413 438 413 438 413 442 c 128,-1,50
 413 446 413 446 425.5 459.5 c 128,-1,51
 438 473 438 473 438 477.5 c 128,-1,52
 438 482 438 482 432 482 c 128,-1,53
 426 482 426 482 403.5 455 c 128,-1,54
 381 428 381 428 381 414.5 c 128,-1,55
 381 401 381 401 394 401 c 0,56,57
 427 401 427 401 500 459 c 128,-1,58
 573 517 573 517 633.5 590.5 c 128,-1,59
 694 664 694 664 694 703 c 0,60,61
 694 733 694 733 654 733 c 0,62,63
 550 733 550 733 445 678.5 c 128,-1,64
 340 624 340 624 259.5 540.5 c 128,-1,65
 179 457 179 457 115 361.5 c 128,-1,66
 51 266 51 266 17 179 c 128,-1,67
 -17 92 -17 92 -17 35 c 0,68,69
 -17 -33 -17 -33 32 -33 c 0,70,71
 76 -33 76 -33 172 37.5 c 128,-1,72
 268 108 268 108 342 178 c 2,73,-1
 416 248 l 1,74,75
 418 248 418 248 418 245 c 128,-1,76
 418 242 418 242 378.5 187.5 c 128,-1,77
 339 133 339 133 299.5 68 c 128,-1,78
 260 3 260 3 260 -26 c 0,79,80
 260 -44 260 -44 277 -44 c 0,81,82
 296 -44 296 -44 323 -29.5 c 128,-1,83
 350 -15 350 -15 367 -5 c 128,-1,84
 384 5 384 5 408.5 21.5 c 128,-1,85
 433 38 433 38 449 49 c 128,-1,86
 465 60 465 60 492 78.5 c 128,-1,87
 519 97 519 97 531 106 c 1,14,15
EndSplineSet
EndChar

StartChar: Aring
Encoding: 197 197 132
Width: 496
GlyphClass: 2
Flags: W
LayerCount: 2
Fore
SplineSet
647 760 m 0,0,1
 668 760 668 760 685 781.5 c 128,-1,2
 702 803 702 803 702 822 c 128,-1,3
 702 841 702 841 686 841 c 128,-1,4
 670 841 670 841 654 816 c 128,-1,5
 638 791 638 791 638 775.5 c 128,-1,6
 638 760 638 760 647 760 c 0,0,1
641 749 m 0,7,8
 630 749 630 749 623.5 758 c 128,-1,9
 617 767 617 767 617 778 c 0,10,11
 617 802 617 802 643 826.5 c 128,-1,12
 669 851 669 851 687.5 851 c 128,-1,13
 706 851 706 851 714.5 841.5 c 128,-1,14
 723 832 723 832 723 817 c 128,-1,15
 723 802 723 802 699 775.5 c 128,-1,16
 675 749 675 749 641 749 c 0,7,8
531 106 m 1,17,18
 519 97 519 97 492 78.5 c 128,-1,19
 465 60 465 60 449 49 c 128,-1,20
 433 38 433 38 408.5 21.5 c 128,-1,21
 384 5 384 5 367 -5 c 128,-1,22
 350 -15 350 -15 332 -25 c 0,23,24
 295 -45 295 -45 277 -45 c 0,25,26
 260 -45 260 -45 260 -26 c 0,27,28
 260 3 260 3 299.5 68 c 128,-1,29
 339 133 339 133 378.5 187.5 c 128,-1,30
 418 242 418 242 418 245 c 128,-1,31
 418 248 418 248 416 248 c 1,32,33
 404 237 404 237 384.5 218 c 128,-1,34
 365 199 365 199 310 150.5 c 128,-1,35
 255 102 255 102 208.5 65 c 128,-1,36
 162 28 162 28 110.5 -2.5 c 128,-1,37
 59 -33 59 -33 32 -33 c 0,38,39
 -17 -33 -17 -33 -17 35 c 0,40,41
 -17 92 -17 92 17 179 c 128,-1,42
 51 266 51 266 115 361.5 c 128,-1,43
 179 457 179 457 259.5 540.5 c 128,-1,44
 340 624 340 624 445 678.5 c 128,-1,45
 550 733 550 733 654 733 c 0,46,47
 694 733 694 733 694 703 c 0,48,49
 694 664 694 664 633.5 590.5 c 128,-1,50
 573 517 573 517 500 459 c 128,-1,51
 427 401 427 401 394 401 c 0,52,53
 381 401 381 401 381 414.5 c 128,-1,54
 381 428 381 428 403.5 455 c 128,-1,55
 426 482 426 482 434 482 c 0,56,57
 438 482 438 482 438 477.5 c 128,-1,58
 438 473 438 473 425.5 459.5 c 128,-1,59
 413 446 413 446 413 442 c 128,-1,60
 413 438 413 438 419 438 c 0,61,62
 440 438 440 438 501.5 491 c 128,-1,63
 563 544 563 544 617.5 609.5 c 128,-1,64
 672 675 672 675 672 705 c 0,65,66
 672 724 672 724 647 724 c 0,67,68
 582 724 582 724 505.5 682.5 c 128,-1,69
 429 641 429 641 360 576 c 128,-1,70
 291 511 291 511 226.5 430.5 c 128,-1,71
 162 350 162 350 115 272.5 c 128,-1,72
 68 195 68 195 39.5 127.5 c 128,-1,73
 11 60 11 60 11 21 c 128,-1,74
 11 -18 11 -18 42 -18 c 0,75,76
 96 -18 96 -18 256 120 c 0,77,78
 463 299 463 299 611 487 c 0,79,80
 636 518 636 518 650 518 c 128,-1,81
 664 518 664 518 664 507.5 c 128,-1,82
 664 497 664 497 567 377 c 0,83,84
 277 18 277 18 277 -27 c 0,85,86
 277 -35 277 -35 285 -35 c 128,-1,87
 293 -35 293 -35 306.5 -28.5 c 128,-1,88
 320 -22 320 -22 345.5 -5.5 c 128,-1,89
 371 11 371 11 390 24 c 0,90,91
 436 54 436 54 516 110 c 1,92,-1
 583 152 l 2,93,94
 590 156 590 156 598 156 c 128,-1,95
 606 156 606 156 606 154 c 128,-1,96
 606 152 606 152 603 150 c 2,97,-1
 531 106 l 1,17,18
EndSplineSet
EndChar

StartChar: AE
Encoding: 198 198 133
Width: 588
GlyphClass: 2
Flags: W
LayerCount: 2
Fore
SplineSet
42 -18 m 0,0,1
 82 -18 82 -18 179.5 58.5 c 128,-1,2
 277 135 277 135 380 238 c 0,3,4
 452 310 452 310 527 347 c 1,5,6
 491 338 491 338 466 338 c 0,7,8
 395 338 395 338 395 393 c 0,9,10
 395 453 395 453 476 544.5 c 128,-1,11
 557 636 557 636 671 699 c 1,12,13
 670 712 670 712 665.5 718 c 128,-1,14
 661 724 661 724 647 724 c 0,15,16
 582 724 582 724 505.5 682.5 c 128,-1,17
 429 641 429 641 360 576 c 128,-1,18
 291 511 291 511 226.5 430.5 c 128,-1,19
 162 350 162 350 115 272.5 c 128,-1,20
 68 195 68 195 39.5 127.5 c 128,-1,21
 11 60 11 60 11 21 c 128,-1,22
 11 -18 11 -18 42 -18 c 0,0,1
654 733 m 0,23,24
 689 733 689 733 694 711 c 1,25,26
 814 771 814 771 925 771 c 0,27,28
 969 771 969 771 969 746 c 0,29,30
 969 703 969 703 868.5 625 c 128,-1,31
 768 547 768 547 717 547 c 0,32,33
 703 547 703 547 703 562.5 c 128,-1,34
 703 578 703 578 724 595.5 c 128,-1,35
 745 613 745 613 750.5 613 c 128,-1,36
 756 613 756 613 756 608.5 c 128,-1,37
 756 604 756 604 746.5 598 c 128,-1,38
 737 592 737 592 737 587.5 c 128,-1,39
 737 583 737 583 741 583 c 0,40,41
 769 583 769 583 860 654 c 128,-1,42
 951 725 951 725 951 752 c 0,43,44
 951 762 951 762 936 762 c 0,45,46
 853 762 853 762 758.5 715.5 c 128,-1,47
 664 669 664 669 593 606.5 c 128,-1,48
 522 544 522 544 475 480 c 128,-1,49
 428 416 428 416 428 380 c 0,50,51
 428 349 428 349 464 349 c 0,52,53
 546 349 546 349 648 416 c 0,54,55
 662 425 662 425 677.5 435.5 c 128,-1,56
 693 446 693 446 696.5 448.5 c 128,-1,57
 700 451 700 451 703 451 c 128,-1,58
 706 451 706 451 706 440 c 0,59,60
 706 433 706 433 628 386 c 1,61,-1
 603 370 l 1,62,63
 499 308 499 308 396.5 187.5 c 128,-1,64
 294 67 294 67 294 6 c 0,65,66
 294 -29 294 -29 335 -29 c 0,67,68
 399 -29 399 -29 606 110 c 1,69,-1
 673 152 l 2,70,71
 680 156 680 156 688 156 c 128,-1,72
 696 156 696 156 696 154 c 128,-1,73
 696 152 696 152 693 150 c 2,74,-1
 621 106 l 2,75,76
 612 100 612 100 565 68.5 c 128,-1,77
 518 37 518 37 498 24.5 c 128,-1,78
 478 12 478 12 442 -8 c 0,79,80
 375 -46 375 -46 334 -46 c 0,81,82
 267 -46 267 -46 267 21 c 0,83,84
 267 79 267 79 314 153 c 1,85,86
 103 -33 103 -33 32 -33 c 0,87,88
 -17 -33 -17 -33 -17 35 c 0,89,90
 -17 92 -17 92 17 179 c 128,-1,91
 51 266 51 266 115 361.5 c 128,-1,92
 179 457 179 457 259.5 540.5 c 128,-1,93
 340 624 340 624 445 678.5 c 128,-1,94
 550 733 550 733 654 733 c 0,23,24
EndSplineSet
EndChar

StartChar: Ccedilla
Encoding: 199 199 134
Width: 293
GlyphClass: 2
Flags: W
LayerCount: 2
Fore
SplineSet
60 189 m 128,-1,1
 22 103 22 103 22 44.5 c 128,-1,2
 22 -14 22 -14 67 -14 c 0,3,4
 128 -14 128 -14 312 110 c 1,5,-1
 379 152 l 2,6,7
 386 156 386 156 394 156 c 128,-1,8
 402 156 402 156 402 154 c 128,-1,9
 402 152 402 152 399 150 c 2,10,-1
 327 106 l 2,11,12
 315 98 315 98 271 68.5 c 128,-1,13
 227 39 227 39 206 26 c 128,-1,14
 185 13 185 13 151 -6 c 0,15,16
 87 -43 87 -43 46 -43 c 2,17,-1
 41 -43 l 1,18,-1
 32 -58 l 1,19,20
 83 -59 83 -59 83 -84 c 0,21,22
 83 -105 83 -105 52.5 -126 c 128,-1,23
 22 -147 22 -147 -4 -147 c 128,-1,24
 -30 -147 -30 -147 -43 -135 c 0,25,26
 -45 -133 -45 -133 -45 -130 c 128,-1,27
 -45 -127 -45 -127 -41 -127 c 128,-1,28
 -37 -127 -37 -127 -30 -133.5 c 128,-1,29
 -23 -140 -23 -140 -2 -140 c 128,-1,30
 19 -140 19 -140 39 -125 c 128,-1,31
 59 -110 59 -110 59 -93 c 0,32,33
 59 -67 59 -67 15 -66 c 1,34,-1
 29 -41 l 1,35,36
 -18 -30 -18 -30 -18 53 c 0,37,38
 -18 116 -18 116 20 204 c 128,-1,39
 58 292 58 292 126.5 383 c 128,-1,40
 195 474 195 474 280.5 553 c 128,-1,41
 366 632 366 632 472.5 682.5 c 128,-1,42
 579 733 579 733 680 733 c 0,43,44
 735 733 735 733 735 691 c 0,45,46
 735 641 735 641 668 554.5 c 128,-1,47
 601 468 601 468 512.5 400 c 128,-1,48
 424 332 424 332 371 332 c 0,49,50
 347 332 347 332 347 346 c 0,51,52
 347 356 347 356 368.5 378.5 c 128,-1,53
 390 401 390 401 403 401 c 0,54,55
 407 401 407 401 407 397.5 c 128,-1,56
 407 394 407 394 394.5 382.5 c 128,-1,57
 382 371 382 371 382 367.5 c 128,-1,58
 382 364 382 364 384 364 c 0,59,60
 414 364 414 364 496 426 c 128,-1,61
 578 488 578 488 650 567.5 c 128,-1,62
 722 647 722 647 722 688 c 0,63,64
 722 721 722 721 672 721 c 0,65,66
 586 721 586 721 489.5 669.5 c 128,-1,67
 393 618 393 618 312 537.5 c 128,-1,68
 231 457 231 457 164.5 366 c 128,-1,0
 98 275 98 275 60 189 c 128,-1,1
EndSplineSet
EndChar

StartChar: Egrave
Encoding: 200 200 135
Width: 315
GlyphClass: 2
Flags: W
LayerCount: 2
Fore
SplineSet
580 870 m 0,0,1
 580 881 580 881 592 881 c 128,-1,2
 604 881 604 881 609 876 c 0,3,4
 697 806 697 806 703.5 802.5 c 128,-1,5
 710 799 710 799 710 797 c 128,-1,6
 710 795 710 795 702.5 795 c 128,-1,7
 695 795 695 795 637.5 824.5 c 128,-1,8
 580 854 580 854 580 870 c 0,0,1
68.5 193 m 128,-1,10
 -6 94 -6 94 -6 24 c 128,-1,11
 -6 -46 -6 -46 61 -46 c 0,12,13
 102 -46 102 -46 153.5 -17 c 128,-1,14
 205 12 205 12 225 24.5 c 128,-1,15
 245 37 245 37 292 68 c 0,16,17
 354 110 354 110 388.5 131 c 128,-1,18
 423 152 423 152 423 154 c 128,-1,19
 423 156 423 156 415 156 c 128,-1,20
 407 156 407 156 400 152 c 2,21,-1
 333 110 l 1,22,23
 126 -29 126 -29 62 -29 c 0,24,25
 21 -29 21 -29 21 6 c 0,26,27
 21 67 21 67 123.5 187.5 c 128,-1,28
 226 308 226 308 329.5 370 c 128,-1,29
 433 432 433 432 433 440 c 2,30,-1
 433 443 l 2,31,32
 433 451 433 451 430 451 c 128,-1,33
 427 451 427 451 423.5 448.5 c 128,-1,34
 420 446 420 446 404.5 435.5 c 128,-1,35
 389 425 389 425 374.5 415.5 c 128,-1,36
 360 406 360 406 336 393 c 128,-1,37
 312 380 312 380 290 371 c 0,38,39
 236 349 236 349 195.5 349 c 128,-1,40
 155 349 155 349 155 380 c 0,41,42
 155 416 155 416 202 480 c 128,-1,43
 249 544 249 544 320 606.5 c 128,-1,44
 391 669 391 669 485.5 715.5 c 128,-1,45
 580 762 580 762 663 762 c 0,46,47
 678 762 678 762 678 752 c 0,48,49
 678 725 678 725 587 654 c 128,-1,50
 496 583 496 583 468 583 c 0,51,52
 464 583 464 583 464 587.5 c 128,-1,53
 464 592 464 592 473.5 598 c 128,-1,54
 483 604 483 604 483 608.5 c 128,-1,55
 483 613 483 613 477.5 613 c 128,-1,56
 472 613 472 613 451 595.5 c 128,-1,57
 430 578 430 578 430 562.5 c 128,-1,58
 430 547 430 547 444 547 c 0,59,60
 495 547 495 547 595.5 625 c 128,-1,61
 696 703 696 703 696 746 c 0,62,63
 696 771 696 771 652 771 c 0,64,65
 558 771 558 771 458.5 728.5 c 128,-1,66
 359 686 359 686 287 625.5 c 128,-1,67
 215 565 215 565 168.5 501 c 128,-1,68
 122 437 122 437 122 393 c 0,69,70
 122 338 122 338 193 338 c 0,71,72
 218 338 218 338 254 347 c 1,73,9
 143 292 143 292 68.5 193 c 128,-1,10
EndSplineSet
EndChar

StartChar: Eacute
Encoding: 201 201 136
Width: 315
GlyphClass: 2
Flags: W
LayerCount: 2
Fore
SplineSet
716 864 m 128,-1,1
 716 850 716 850 647 827 c 128,-1,2
 578 804 578 804 571 804 c 128,-1,3
 564 804 564 804 564 806 c 0,4,5
 564 810 564 810 571 812.5 c 128,-1,6
 578 815 578 815 593.5 823.5 c 128,-1,7
 609 832 609 832 634 846.5 c 128,-1,8
 659 861 659 861 683 873 c 1,9,10
 696 878 696 878 704 878 c 0,11,0
 716 878 716 878 716 864 c 128,-1,1
61 -46 m 0,12,13
 -6 -46 -6 -46 -6 24 c 128,-1,14
 -6 94 -6 94 68.5 193 c 128,-1,15
 143 292 143 292 254 347 c 1,16,17
 218 338 218 338 193 338 c 0,18,19
 122 338 122 338 122 393 c 0,20,21
 122 437 122 437 168.5 501 c 128,-1,22
 215 565 215 565 287 625.5 c 128,-1,23
 359 686 359 686 458.5 728.5 c 128,-1,24
 558 771 558 771 652 771 c 0,25,26
 696 771 696 771 696 746 c 0,27,28
 696 703 696 703 595.5 625 c 128,-1,29
 495 547 495 547 444 547 c 0,30,31
 430 547 430 547 430 562.5 c 128,-1,32
 430 578 430 578 451 595.5 c 128,-1,33
 472 613 472 613 477.5 613 c 128,-1,34
 483 613 483 613 483 608.5 c 128,-1,35
 483 604 483 604 473.5 598 c 128,-1,36
 464 592 464 592 464 587.5 c 128,-1,37
 464 583 464 583 468 583 c 0,38,39
 496 583 496 583 587 654 c 128,-1,40
 678 725 678 725 678 752 c 0,41,42
 678 762 678 762 663 762 c 0,43,44
 580 762 580 762 485.5 715.5 c 128,-1,45
 391 669 391 669 320 606.5 c 128,-1,46
 249 544 249 544 202 480 c 128,-1,47
 155 416 155 416 155 380 c 0,48,49
 155 349 155 349 191 349 c 0,50,51
 273 349 273 349 374 416 c 0,52,53
 389 425 389 425 404.5 435.5 c 128,-1,54
 420 446 420 446 423.5 448.5 c 128,-1,55
 427 451 427 451 430 451 c 128,-1,56
 433 451 433 451 433 443 c 2,57,-1
 433 440 l 2,58,59
 433 431 433 431 356 386 c 1,60,-1
 330 370 l 1,61,62
 226 308 226 308 123.5 187.5 c 128,-1,63
 21 67 21 67 21 6 c 0,64,65
 21 -29 21 -29 62 -29 c 0,66,67
 126 -29 126 -29 333 110 c 1,68,-1
 400 152 l 2,69,70
 407 156 407 156 415 156 c 128,-1,71
 423 156 423 156 423 154 c 128,-1,72
 423 152 423 152 420 150 c 2,73,-1
 348 106 l 2,74,75
 339 100 339 100 292 68.5 c 128,-1,76
 245 37 245 37 225 24.5 c 128,-1,77
 205 12 205 12 168 -8 c 1,78,79
 80 -46 80 -46 63 -46 c 0,80,81
 62 -46 62 -46 61 -46 c 0,12,13
EndSplineSet
EndChar

StartChar: Ecircumflex
Encoding: 202 202 137
Width: 315
GlyphClass: 2
Flags: W
LayerCount: 2
Fore
SplineSet
650 828 m 1,0,1
 547 785 547 785 544 786 c 1,2,3
 535 786 535 786 535 790 c 2,4,-1
 535 792 l 2,5,6
 535 795 535 795 551.5 803 c 128,-1,7
 568 811 568 811 600 830 c 0,8,9
 682 878 682 878 690.5 878 c 128,-1,10
 699 878 699 878 701 868.5 c 128,-1,11
 703 859 703 859 705.5 844 c 128,-1,12
 708 829 708 829 709 824 c 0,13,14
 712 809 712 809 725 790 c 1,15,-1
 726 788 l 1,16,17
 726 785 726 785 718 785 c 128,-1,18
 710 785 710 785 699 803 c 128,-1,19
 688 821 688 821 682 841 c 1,20,-1
 650 828 l 1,0,1
61 -46 m 0,21,22
 -6 -46 -6 -46 -6 24 c 128,-1,23
 -6 94 -6 94 68.5 193 c 128,-1,24
 143 292 143 292 254 347 c 1,25,26
 218 338 218 338 193 338 c 0,27,28
 122 338 122 338 122 393 c 0,29,30
 122 437 122 437 168.5 501 c 128,-1,31
 215 565 215 565 287 625.5 c 128,-1,32
 359 686 359 686 458.5 728.5 c 128,-1,33
 558 771 558 771 652 771 c 0,34,35
 696 771 696 771 696 746 c 0,36,37
 696 703 696 703 595.5 625 c 128,-1,38
 495 547 495 547 444 547 c 0,39,40
 430 547 430 547 430 562.5 c 128,-1,41
 430 578 430 578 451 595.5 c 128,-1,42
 472 613 472 613 477.5 613 c 128,-1,43
 483 613 483 613 483 608.5 c 128,-1,44
 483 604 483 604 473.5 598 c 128,-1,45
 464 592 464 592 464 587.5 c 128,-1,46
 464 583 464 583 468 583 c 0,47,48
 496 583 496 583 587 654 c 128,-1,49
 678 725 678 725 678 752 c 0,50,51
 678 762 678 762 663 762 c 0,52,53
 580 762 580 762 485.5 715.5 c 128,-1,54
 391 669 391 669 320 606.5 c 128,-1,55
 249 544 249 544 202 480 c 128,-1,56
 155 416 155 416 155 380 c 0,57,58
 155 349 155 349 191 349 c 0,59,60
 273 349 273 349 374 416 c 0,61,62
 389 425 389 425 404.5 435.5 c 128,-1,63
 420 446 420 446 423.5 448.5 c 128,-1,64
 427 451 427 451 430 451 c 128,-1,65
 433 451 433 451 433 443 c 2,66,-1
 433 440 l 2,67,68
 433 431 433 431 356 386 c 1,69,-1
 330 370 l 1,70,71
 226 308 226 308 123.5 187.5 c 128,-1,72
 21 67 21 67 21 6 c 0,73,74
 21 -29 21 -29 62 -29 c 0,75,76
 126 -29 126 -29 333 110 c 1,77,-1
 400 152 l 2,78,79
 407 156 407 156 415 156 c 128,-1,80
 423 156 423 156 423 154 c 128,-1,81
 423 152 423 152 420 150 c 2,82,-1
 348 106 l 2,83,84
 339 100 339 100 292 68.5 c 128,-1,85
 245 37 245 37 225 24.5 c 128,-1,86
 205 12 205 12 168 -8 c 1,87,88
 80 -46 80 -46 63 -46 c 0,89,90
 62 -46 62 -46 61 -46 c 0,21,22
EndSplineSet
EndChar

